<?xml version="1.0" standalone="no"?>
<!DOCTYPE svg PUBLIC "-//W3C//DTD SVG 20010904//EN"
 "http://www.w3.org/TR/2001/REC-SVG-20010904/DTD/svg10.dtd">
<svg version="1.0" xmlns="http://www.w3.org/2000/svg"
 width="500.000000pt" height="500.000000pt" viewBox="0 0 500.000000 500.000000"
 preserveAspectRatio="xMidYMid meet">
<metadata>
Created by potrace 1.14, written by Peter Selinger 2001-2017
</metadata>
<g transform="translate(0.000000,500.000000) scale(0.100000,-0.100000)"
fill="#000000" stroke="none">
<path d="M664 4989 c-85 -14 -220 -68 -297 -119 -170 -111 -290 -277 -343
-475 -18 -67 -19 -136 -19 -1900 0 -2056 -7 -1870 75 -2041 101 -211 294 -369
525 -430 67 -18 147 -19 1900 -19 2056 0 1870 -7 2041 75 211 101 369 294 430
525 18 67 19 147 19 1900 0 1742 -1 1833 -18 1894 -80 280 -278 482 -564 574
l-68 22 -1815 1 c-998 1 -1838 -2 -1866 -7z m1736 -986 c0 -542 -6 -623 -55
-771 -103 -306 -358 -480 -767 -523 -158 -17 -494 -6 -618 20 -312 64 -518
222 -606 467 -26 71 -54 214 -54 275 l0 39 324 0 325 0 11 -54 c23 -112 100
-190 223 -227 58 -18 87 -21 185 -17 99 3 126 8 173 30 64 29 120 81 150 139
44 88 49 145 49 647 l0 472 330 0 330 0 0 -497z m1590 -1827 c330 -50 519
-151 604 -323 26 -52 46 -134 46 -189 l0 -34 -352 2 -352 3 -8 30 c-25 97
-181 154 -423 155 -187 0 -327 -28 -365 -75 -21 -26 -18 -89 5 -116 51 -56
117 -67 490 -79 352 -11 464 -21 619 -55 308 -69 446 -219 446 -488 0 -167
-42 -277 -142 -374 -184 -176 -498 -242 -1103 -230 -369 7 -548 36 -722 117
-210 97 -332 272 -333 478 l0 42 355 0 355 0 5 -27 c26 -127 127 -193 330
-214 118 -13 326 0 412 26 135 40 164 182 50 242 -60 31 -165 43 -457 53 -162
6 -347 17 -411 25 -334 42 -529 160 -590 358 -18 57 -20 86 -17 180 6 149 28
207 112 291 122 124 332 195 641 220 130 10 704 -3 805 -18z"/>
</g>
</svg>
