<svg width="24" height="24" viewBox="0 0 24 24" fill="none" xmlns="http://www.w3.org/2000/svg">
<g id="bath">
<g id="Vector">
<path d="M8.99914 6C9.55143 6 9.99914 5.55228 9.99914 5C9.99914 4.44772 9.55143 4 8.99914 4C8.44686 4 7.99914 4.44772 7.99914 5C7.99914 5.55228 8.44686 6 8.99914 6Z" fill="#1C1C1C"/>
<path d="M6.99914 8.5C6.99914 9.32843 6.32757 10 5.49914 10C4.67072 10 3.99914 9.32843 3.99914 8.5C3.99914 7.67157 4.67072 7 5.49914 7C6.32757 7 6.99914 7.67157 6.99914 8.5Z" fill="#1C1C1C"/>
<path fill-rule="evenodd" clip-rule="evenodd" d="M19.9991 11C19.9991 11.3807 19.946 11.7489 19.8466 12.0977C20.8629 12.4283 21.484 13.5453 21.1217 14.6325L19.455 19.6325C19.1828 20.4491 18.4185 21 17.5576 21H6.44066C5.5798 21 4.81552 20.4491 4.54329 19.6325L2.87663 14.6325C2.44494 13.3374 3.40888 12 4.77399 12H8.99914C8.99914 10.3431 10.3423 9 11.9991 9C12.1732 9 12.3437 9.01482 12.5096 9.04326C13.1949 7.82384 14.5008 7 15.9991 7C18.2083 7 19.9991 8.79086 19.9991 11ZM8.99002 14H4.77387L6.44054 19L17.5575 19L19.1935 14.0919L8.99002 14Z" fill="#1C1C1C"/>
</g>
</g>
</svg>
