<svg width="24" height="24" viewBox="0 0 24 24" fill="none" xmlns="http://www.w3.org/2000/svg">
<g id="clock-fast">
<path id="Icon (Stroke)" fill-rule="evenodd" clip-rule="evenodd" d="M6.58183 9H4C3.44772 9 3 9.44772 3 10C3 10.5523 3.44772 11 4 11H11C11.5523 11 12 10.5523 12 10C12 9.44772 11.5523 9 11 9H8.80237C9.84012 7.20612 11.7801 6 14 6C17.3137 6 20 8.68629 20 12C20 15.3137 17.3137 18 14 18C12.7734 18 11.6326 17.6322 10.6819 17H11.5C12.0523 17 12.5 16.5523 12.5 16C12.5 15.4477 12.0523 15 11.5 15H5.5C4.94772 15 4.5 15.4477 4.5 16C4.5 16.5523 4.94772 17 5.5 17H7.7547C9.21949 18.8273 11.4727 20 14 20C18.4183 20 22 16.4183 22 12C22 7.58172 18.4183 4 14 4C10.6415 4 7.76841 6.0689 6.58183 9ZM2.5 6C2.5 5.44772 2.94772 5 3.5 5H6C6.55228 5 7 5.44772 7 6C7 6.55228 6.55228 7 6 7H3.5C2.94772 7 2.5 6.55228 2.5 6ZM14 7.5C14.5523 7.5 15 7.94772 15 8.5V11.5858L16.2071 12.7929C16.5976 13.1834 16.5976 13.8166 16.2071 14.2071C15.8166 14.5976 15.1834 14.5976 14.7929 14.2071L13.5858 13C13.2107 12.6249 13 12.1162 13 11.5858V8.5C13 7.94772 13.4477 7.5 14 7.5ZM2 13C2 12.4477 2.44772 12 3 12H7C7.55228 12 8 12.4477 8 13C8 13.5523 7.55228 14 7 14H3C2.44772 14 2 13.5523 2 13Z" fill="#262625"/>
</g>
</svg>
