<svg width="24" height="24" viewBox="0 0 24 24" fill="none" xmlns="http://www.w3.org/2000/svg">
<g id="diamond-01">
<path id="Icon (Stroke)" fill-rule="evenodd" clip-rule="evenodd" d="M4.9715 3.82742C5.74514 2.68243 7.04315 2 8.42731 2H15.5727C16.9568 2 18.2549 2.68243 19.0285 3.82742L21.475 7.44825C21.8458 7.99693 22.0199 8.63413 21.9982 9.2652C21.9769 9.88343 21.7676 10.4951 21.3751 11.0115L13.6381 21.1898C13.3341 21.5897 12.9142 21.843 12.4694 21.9463C12.1609 22.0179 11.8391 22.0179 11.5306 21.9463C11.0858 21.843 10.6659 21.5897 10.3619 21.1898L2.6249 11.0115C2.23237 10.4951 2.02311 9.88343 2.00181 9.2652C1.98007 8.63413 2.15422 7.99693 2.52495 7.44825L4.9715 3.82742ZM8.42731 4C7.7 4 7.02625 4.35873 6.62867 4.94714L4.40997 8.23077H7.25877L10.1174 4H8.42731ZM12 4.78615L9.67252 8.23077H14.3275L12 4.78615ZM14.8167 10.2308H9.18333L12 18.568L14.8167 10.2308ZM9.09516 16.2184L7.07227 10.2308H4.54366L9.09516 16.2184ZM14.9048 16.2184L19.4563 10.2308H16.9277L14.9048 16.2184ZM19.59 8.23077H16.7412L13.8826 4H15.5727C16.3 4 16.9738 4.35873 17.3713 4.94714L19.59 8.23077Z" fill="#262625"/>
</g>
</svg>
