<svg xmlns="http://www.w3.org/2000/svg" width="24" height="24" viewBox="0 0 24 24" fill="none">
    <path fill-rule="evenodd" clip-rule="evenodd" d="M7 6C7 3.23858 9.23858 1 12 1C14.7614 1 17 3.23858 17 6C17 8.41896 15.2822 10.4367 13 10.9V18C13 18.5523 12.5523 19 12 19C11.4477 19 11 18.5523 11 18V10.9C8.71776 10.4367 7 8.41896 7 6ZM12 3C10.3431 3 9 4.34315 9 6C9 7.65685 10.3431 9 12 9C13.6569 9 15 7.65685 15 6C15 4.34315 13.6569 3 12 3ZM8.98507 14.1607C9.08015 14.7047 8.7162 15.2228 8.17216 15.3179C6.47999 15.6136 5.10862 16.0896 4.18976 16.6405C3.22579 17.2184 3 17.7191 3 18C3 18.1887 3.0915 18.4697 3.47296 18.8304C3.85653 19.1932 4.46523 19.5659 5.30032 19.9C6.96497 20.5658 9.33323 21 12 21C14.6668 21 17.035 20.5658 18.6997 19.9C19.5348 19.5659 20.1435 19.1932 20.527 18.8304C20.9085 18.4697 21 18.1887 21 18C21 17.7191 20.7742 17.2184 19.8102 16.6405C18.8914 16.0896 17.52 15.6136 15.8278 15.3179C15.2838 15.2228 14.9199 14.7047 15.0149 14.1607C15.11 13.6166 15.6281 13.2527 16.1722 13.3478C18.0118 13.6693 19.6404 14.2068 20.8386 14.9251C21.9917 15.6164 23 16.6406 23 18C23 18.9159 22.5319 19.6872 21.9013 20.2835C21.2728 20.8779 20.417 21.3671 19.4425 21.7569C17.4878 22.5388 14.8561 23 12 23C9.14392 23 6.51218 22.5388 4.55754 21.7569C3.58299 21.3671 2.72723 20.8779 2.09874 20.2835C1.46814 19.6872 1 18.9159 1 18C1 16.6406 2.0083 15.6164 3.16138 14.9251C4.35957 14.2068 5.9882 13.6693 7.82784 13.3478C8.37188 13.2527 8.88999 13.6166 8.98507 14.1607Z" fill="#262625"/>
</svg>