<svg width="24" height="24" viewBox="0 0 24 24" fill="none" xmlns="http://www.w3.org/2000/svg">
<g id="parking">
<g id="Union">
<path fill-rule="evenodd" clip-rule="evenodd" d="M12.5272 7H9V17H11.2074V13.4146H12.5272C13.1552 13.4146 13.6895 13.3259 14.1301 13.1485C14.5706 12.9617 14.9268 12.719 15.1986 12.4202C15.4798 12.1214 15.6813 11.7806 15.8032 11.3978C15.9344 11.0056 16 10.6088 16 10.2073C16 9.79645 15.9344 9.39963 15.8032 9.01681C15.6813 8.63399 15.4798 8.29318 15.1986 7.9944C14.9268 7.69561 14.5706 7.45752 14.1301 7.28011C13.6895 7.09337 13.1552 7 12.5272 7ZM11.9227 11.7059H11.2074V8.70868H11.9227C12.1757 8.70868 12.4194 8.72736 12.6538 8.76471C12.8881 8.80205 13.0943 8.87675 13.2724 8.9888C13.4505 9.0915 13.5911 9.2409 13.6942 9.43698C13.8067 9.63305 13.8629 9.88982 13.8629 10.2073C13.8629 10.5247 13.8067 10.7815 13.6942 10.9776C13.5911 11.1737 13.4505 11.3277 13.2724 11.4398C13.0943 11.5425 12.8881 11.6125 12.6538 11.6499C12.4194 11.6872 12.1757 11.7059 11.9227 11.7059Z" fill="#1C1C1C"/>
<path fill-rule="evenodd" clip-rule="evenodd" d="M3 5C3 3.89543 3.89543 3 5 3H19C20.1046 3 21 3.89543 21 5V19C21 20.1046 20.1046 21 19 21H5C3.89543 21 3 20.1046 3 19V5ZM5 5H19V19H5L5 5Z" fill="#1C1C1C"/>
</g>
</g>
</svg>
