<svg width="24" height="24" viewBox="0 0 24 24" fill="none" xmlns="http://www.w3.org/2000/svg">
<g id="people-happy">
<path id="Icon (Stroke)" fill-rule="evenodd" clip-rule="evenodd" d="M12 4C10.3432 4 9.00003 5.34315 9.00003 7C9.00003 8.65685 10.3432 10 12 10C13.6569 10 15 8.65685 15 7C15 5.34315 13.6569 4 12 4ZM7.00003 7C7.00003 4.23858 9.2386 2 12 2C14.7614 2 17 4.23858 17 7C17 9.76142 14.7614 12 12 12C9.2386 12 7.00003 9.76142 7.00003 7ZM21.6401 7.23178C22.0644 7.58534 22.1217 8.21591 21.7682 8.64018L19.086 11.8588C17.7381 13.4763 17 15.5151 17 17.6205V21C17 21.5523 16.5522 22 16 22C15.4477 22 15 21.5523 15 21V17.6205C15 15.0472 15.9021 12.5553 17.5495 10.5785L20.2317 7.35982C20.5853 6.93554 21.2159 6.87821 21.6401 7.23178ZM2.35984 7.23179C2.78412 6.87822 3.41468 6.93555 3.76825 7.35983L6.45046 10.5785C8.09785 12.5553 9.00003 15.0472 9.00003 17.6205V21C9.00003 21.5523 8.55231 22 8.00003 22C7.44774 22 7.00003 21.5523 7.00003 21V17.6205C7.00003 15.5151 6.26188 13.4763 4.91402 11.8588L2.2318 8.64019C1.87824 8.21592 1.93556 7.58535 2.35984 7.23179Z" fill="#262625"/>
</g>
</svg>
