<svg width="24" height="24" viewBox="0 0 24 24" fill="none" xmlns="http://www.w3.org/2000/svg">
<rect width="24" height="24" fill="#424242"/>
<g id="INFO">
</g>
<g id="Materials">
<rect x="-627" y="-630" width="1280" height="1944" rx="16" fill="#F7F7F7"/>
<g id="Frame 65">
<g id="Frame 70">
<g id="Frame 70_2">
<g id="sort_ascending">
<path id="coolicon" d="M3 17.5C3 17.7761 3.22386 18 3.5 18H20.5C20.7761 18 21 17.7761 21 17.5V16.5C21 16.2239 20.7761 16 20.5 16H3.5C3.22386 16 3 16.2239 3 16.5V17.5ZM3 12.5C3 12.7761 3.22386 13 3.5 13H20.5C20.7761 13 21 12.7761 21 12.5V11.5C21 11.2239 20.7761 11 20.5 11H3.5C3.22386 11 3 11.2239 3 11.5V12.5ZM3 7.5C3 7.77614 3.22386 8 3.5 8H11.5C11.7761 8 12 7.77614 12 7.5V6.5C12 6.22386 11.7761 6 11.5 6H3.5C3.22386 6 3 6.22386 3 6.5V7.5Z" fill="#1C1C1C"/>
</g>
</g>
</g>
</g>
</g>
</svg>
