<svg width="24" height="24" viewBox="0 0 24 24" fill="none" xmlns="http://www.w3.org/2000/svg">
<g id="star_filled">
<path id="Star 1" d="M11.5227 2.34478C11.6726 1.88507 12.3274 1.88507 12.4773 2.34478L14.493 8.5288C14.56 8.73435 14.7528 8.87359 14.9703 8.87359H21.4974C21.9829 8.87359 22.1853 9.49028 21.7929 9.7744L16.5093 13.6009C16.3341 13.7278 16.2608 13.9521 16.3276 14.1569L18.345 20.346C18.4948 20.8054 17.965 21.1866 17.5722 20.9021L12.2956 17.0807C12.1195 16.9531 11.8805 16.9531 11.7044 17.0807L6.42784 20.9021C6.03503 21.1866 5.50524 20.8054 5.65497 20.346L7.67239 14.1569C7.73917 13.9521 7.66588 13.7278 7.49069 13.6009L2.20705 9.7744C1.81474 9.49028 2.0171 8.87359 2.50263 8.87359H9.02967C9.24721 8.87359 9.43995 8.73435 9.50695 8.5288L11.5227 2.34478Z" fill="#1C1C1C"/>
</g>
</svg>
