<svg width="24" height="24" viewBox="0 0 24 24" fill="none" xmlns="http://www.w3.org/2000/svg">
<g id="user">
<g id="coolicon">
<path d="M6.99081 8C6.99081 5.23858 9.2335 3 12 3C14.7665 3 17.0092 5.23858 17.0092 8C17.0092 10.7614 14.7665 13 12 13C9.2335 13 6.99081 10.7614 6.99081 8ZM12 11C13.6599 11 15.0055 9.65685 15.0055 8C15.0055 6.34315 13.6599 5 12 5C10.3401 5 8.99448 6.34315 8.99448 8C8.99448 9.65685 10.3401 11 12 11Z" fill="#1C1C1C"/>
<path d="M6.33274 16.3431C4.94813 17.7252 4.12246 19.5609 4.00093 21.5003C3.98366 21.7759 4.20956 22 4.48621 22H5.48805C5.7647 22 5.9868 21.7757 6.00982 21.5005C6.12763 20.0922 6.74082 18.7642 7.74956 17.7574C8.87685 16.6321 10.4058 16 12 16C13.5942 16 15.1232 16.6321 16.2504 17.7574C17.2592 18.7642 17.8724 20.0922 17.9902 21.5005C18.0132 21.7757 18.2353 22 18.512 22H19.5138C19.7904 22 20.0163 21.7759 19.9991 21.5003C19.8775 19.5609 19.0519 17.7252 17.6673 16.3431C16.1642 14.8429 14.1256 14 12 14C9.87437 14 7.83579 14.8429 6.33274 16.3431Z" fill="#1C1C1C"/>
</g>
</g>
</svg>
