<svg width="24" height="24" viewBox="0 0 24 24" fill="none" xmlns="http://www.w3.org/2000/svg">
<g id="wifi">
<g id="Vector">
<path d="M14.0001 18C14.0001 19.1046 13.1047 20 12.0001 20C10.8955 20 10.0001 19.1046 10.0001 18C10.0001 16.8954 10.8955 16 12.0001 16C13.1047 16 14.0001 16.8954 14.0001 18Z" fill="#1C1C1C"/>
<path d="M14.5859 12.5858C15.1994 12.8788 15.7593 13.2743 16.2413 13.756L16.2427 13.7574L14.8285 15.1716C14.1046 14.4477 13.1046 14 12.0001 14C10.8955 14 9.8955 14.4477 9.17165 15.1716L7.75745 13.7574C8.23975 13.2751 8.8002 12.8791 9.4143 12.5858C9.5096 12.5403 9.60619 12.4972 9.70399 12.4567C10.4319 12.1552 11.2122 12 12.0001 12C12.788 12 13.5682 12.1552 14.2962 12.4567C14.394 12.4972 14.4906 12.5403 14.5859 12.5858Z" fill="#1C1C1C"/>
<path d="M17.6569 12.3432C16.2092 10.8954 14.2092 10 12.0001 10C9.79093 10 7.79093 10.8954 6.34322 12.3431L4.92902 10.9289C5.40517 10.4528 5.92703 10.0271 6.48609 9.65759C7.01731 9.30647 7.58212 9.00606 8.17325 8.76121C9.38651 8.25866 10.6869 8 12.0001 8C13.3133 8 14.6137 8.25866 15.8269 8.7612C16.418 9.00606 16.9829 9.30647 17.5141 9.65758C18.0731 10.0271 18.595 10.4528 19.0712 10.9289L17.6569 12.3432Z" fill="#1C1C1C"/>
<path d="M20.4854 9.51473C18.3138 7.34315 15.3138 6 12.0001 6C8.68636 6 5.68636 7.34314 3.51479 9.51471L2.10059 8.10051C2.57487 7.62622 3.08155 7.18771 3.61633 6.78783C4.54739 6.09165 5.56364 5.51257 6.64251 5.06569C8.34107 4.36212 10.1616 4 12.0001 4C13.8386 4 15.6591 4.36212 17.3576 5.06569C18.4365 5.51257 19.4528 6.09164 20.3838 6.78783C20.9173 7.18674 21.4228 7.6241 21.8961 8.09707L21.8996 8.1005L20.4854 9.51473Z" fill="#1C1C1C"/>
</g>
</g>
</svg>
