<?xml version="1.0" encoding="utf-8"?><svg xmlns="http://www.w3.org/2000/svg" xmlns:xlink="http://www.w3.org/1999/xlink"><symbol viewBox="0 0 24 24" id="arrow_left" xmlns="http://www.w3.org/2000/svg"><path d="M11.915 19a.474.474 0 00.356-.785l-4.229-4.874h13.015a.945.945 0 00.943-.947v-.788a.945.945 0 00-.943-.947H8.042l4.229-4.874A.474.474 0 0011.915 5H9.302a.94.94 0 00-.704.318l-5.36 6.053a.95.95 0 000 1.258l5.36 6.053a.94.94 0 00.704.318h2.613z"/></symbol><symbol viewBox="0 0 24 24" id="arrow_right" xmlns="http://www.w3.org/2000/svg"><path d="M12.085 19a.474.474 0 01-.356-.785l4.229-4.874H2.943A.945.945 0 012 12.394v-.788c0-.523.422-.947.943-.947h13.015l-4.229-4.874A.474.474 0 0112.085 5h2.613a.94.94 0 01.704.318l5.36 6.053a.95.95 0 010 1.258l-5.36 6.053a.94.94 0 01-.704.318h-2.613z"/></symbol><symbol viewBox="0 0 24 24" id="banknote" xmlns="http://www.w3.org/2000/svg"><path d="M20 20H4a2 2 0 01-2-2V6a2 2 0 012-2h16a2 2 0 012 2v12a2 2 0 01-2 2zM4 12v6h16v-6H4zm0-6v2h16V6H4zm9 10H6v-2h7v2z"/></symbol><symbol viewBox="0 0 24 24" id="bath" xmlns="http://www.w3.org/2000/svg"><path d="M9 6a1 1 0 100-2 1 1 0 000 2zM7 8.5a1.5 1.5 0 11-3 0 1.5 1.5 0 013 0z"/><path fill-rule="evenodd" clip-rule="evenodd" d="M20 11a4 4 0 01-.153 1.098 2.002 2.002 0 011.275 2.534l-1.667 5A2 2 0 0117.558 21H6.44a2 2 0 01-1.898-1.367l-1.666-5A2 2 0 014.774 12h4.225a3 3 0 013.51-2.957A4 4 0 0120 11zM8.99 14H4.774l1.667 5h11.117l1.636-4.908L8.99 14z"/></symbol><symbol viewBox="0 0 24 24" id="chefhat" xmlns="http://www.w3.org/2000/svg"><path d="M5.238 14.902a3.001 3.001 0 01-.795-5.467c.328-.2.557-.551.557-.935a5.5 5.5 0 018.559-4.572c.371.25.855.275 1.287.158A2.503 2.503 0 0118 6.5c0 .338.197.667.51.795a4.001 4.001 0 01.294 7.276l-.694 5.553a1 1 0 01-.993.876H6.883a1 1 0 01-.992-.876l-.653-5.222zM7 8.5c0 1.19-.69 2.14-1.518 2.644A1 1 0 006 13h11a2 2 0 00.754-3.853C16.6 8.676 16 7.55 16 6.5a.5.5 0 00-.632-.483c-.81.22-1.935.235-2.923-.428A3.5 3.5 0 007 8.5zm.266 6.5l.5 4H9v-4H7.266zM13 19v-4h-2v4h2zm2 0h1.234l.5-4H15v4z"/></symbol><symbol viewBox="0 0 24 24" id="clock" xmlns="http://www.w3.org/2000/svg"><path fill-rule="evenodd" clip-rule="evenodd" d="M6.582 9H4a1 1 0 000 2h7a1 1 0 100-2H8.802a6 6 0 111.88 8h.818a1 1 0 100-2h-6a1 1 0 100 2h2.255a8 8 0 10-1.173-8zM2.5 6a1 1 0 011-1H6a1 1 0 010 2H3.5a1 1 0 01-1-1zM14 7.5a1 1 0 011 1v3.086l1.207 1.207a1 1 0 01-1.414 1.414L13.586 13A2 2 0 0113 11.586V8.5a1 1 0 011-1zM2 13a1 1 0 011-1h4a1 1 0 110 2H3a1 1 0 01-1-1z"/></symbol><symbol viewBox="0 0 24 24" id="close" xmlns="http://www.w3.org/2000/svg"><path d="M17.59 5L12 10.59 6.41 5 5 6.41 10.59 12 5 17.59 6.41 19 12 13.41 17.59 19 19 17.59 13.41 12 19 6.41 17.59 5z"/></symbol><symbol viewBox="0 0 24 24" id="diamond" xmlns="http://www.w3.org/2000/svg"><path fill-rule="evenodd" clip-rule="evenodd" d="M4.971 3.827A4.17 4.17 0 018.428 2h7.146a4.17 4.17 0 013.456 1.827l2.446 3.621a3.054 3.054 0 01-.1 3.563L13.638 21.19a2.064 2.064 0 01-2.107.756 2.045 2.045 0 01-1.17-.756L2.626 11.01a3.057 3.057 0 01-.1-3.563l2.446-3.62zM8.428 4a2.17 2.17 0 00-1.798.947L4.41 8.231h2.849L10.117 4h-1.69zM12 4.786L9.673 8.231h4.655L12 4.786zm2.817 5.445H9.183L12 18.568l2.817-8.337zm-5.722 5.987l-2.023-5.987H4.544l4.551 5.987zm5.81 0l4.551-5.987h-2.528l-2.023 5.987zm4.685-7.987h-2.849L13.883 4h1.69c.727 0 1.4.359 1.798.947l2.219 3.284z"/></symbol><symbol viewBox="0 0 24 24" id="electric" xmlns="http://www.w3.org/2000/svg"><path d="M12.75 11L15 2 4 13h6.25L8 22l12-11h-7.25z"/></symbol><symbol viewBox="0 0 24 24" id="error" xmlns="http://www.w3.org/2000/svg"><path d="M21.266 20.998H2.733a1 1 0 01-.866-1.5l9.266-16a1 1 0 011.731 0l9.266 16a1 1 0 01-.865 1.5h.001zm-10.266-5v2h1.998v-2H11zm0-7v5h2v-5h-2z"/></symbol><symbol viewBox="0 0 24 24" id="eye" xmlns="http://www.w3.org/2000/svg"><path d="M12 19c-1.64.02-3.263-.334-4.746-1.035a10.076 10.076 0 01-3.041-2.282A10.59 10.59 0 012.1 12.316L2 12l.105-.316a10.661 10.661 0 012.109-3.367 10.074 10.074 0 013.04-2.282A10.785 10.785 0 0112 5c1.64-.02 3.263.333 4.746 1.035 1.15.56 2.181 1.335 3.041 2.282.912.977 1.63 2.12 2.113 3.367L22 12l-.105.316A10.423 10.423 0 0112 19zm0-12a8.308 8.308 0 00-7.883 5A8.307 8.307 0 0012 17a8.31 8.31 0 007.883-5A8.3 8.3 0 0012 7zm0 8a3.02 3.02 0 112.115-.884A2.976 2.976 0 0112 15z"/></symbol><symbol viewBox="0 0 24 24" id="flag" xmlns="http://www.w3.org/2000/svg"><path d="M12.68 3.5a1 1 0 01.98.8l.24 1.2h4.6a1 1 0 011 1v8a1 1 0 01-1 1h-5.18a.988.988 0 01-.98-.8l-.24-1.2H6.5v7h-2v-17h8.18z"/></symbol><symbol viewBox="0 0 24 24" id="games" xmlns="http://www.w3.org/2000/svg"><path fill-rule="evenodd" clip-rule="evenodd" d="M19 5H5v14h14V5zM5 3a2 2 0 00-2 2v14a2 2 0 002 2h14a2 2 0 002-2V5a2 2 0 00-2-2H5z"/><path d="M17 8.5a1.5 1.5 0 11-3 0 1.5 1.5 0 013 0zm-7 7a1.5 1.5 0 11-3 0 1.5 1.5 0 013 0z"/></symbol><symbol viewBox="0 0 24 24" id="geo" xmlns="http://www.w3.org/2000/svg"><path d="M12 21a29.767 29.767 0 01-3.5-3.53C6.9 15.557 5 12.711 5 10a7 7 0 0111.952-4.95A6.955 6.955 0 0119 10c0 2.712-1.9 5.558-3.5 7.47A29.768 29.768 0 0112 21zm0-14a3 3 0 100 6 3 3 0 000-6z"/></symbol><symbol viewBox="0 0 24 24" id="glass" xmlns="http://www.w3.org/2000/svg"><path d="M5.132 8.08c-.55 3.844 2.148 7.315 5.868 7.85V20H8v2h8v-2h-3v-4.071c3.72-.534 6.418-4.005 5.869-7.849l-.83-5.815A.309.309 0 0017.732 2H6.268a.309.309 0 00-.306.265l-.83 5.815z"/></symbol><symbol viewBox="0 0 24 24" id="happy_face" xmlns="http://www.w3.org/2000/svg"><path d="M12 22C6.477 22 2 17.523 2 12S6.477 2 12 2s10 4.477 10 10c-.006 5.52-4.48 9.994-10 10zm0-18a8 8 0 108 8 8.009 8.009 0 00-8-8zm0 14a4.837 4.837 0 01-4-2 6.3 6.3 0 01-1-2h10v.008A6.422 6.422 0 0116 16a4.838 4.838 0 01-4 2zm-3.5-6a1.5 1.5 0 110-3 1.5 1.5 0 010 3zm6.993-.014a1.493 1.493 0 110-2.986 1.493 1.493 0 010 2.986z"/></symbol><symbol viewBox="0 0 24 24" id="hourglass" xmlns="http://www.w3.org/2000/svg"><path d="M12 22a9.121 9.121 0 01-9-9 9.121 9.121 0 019-9 9.121 9.121 0 019 9 9.121 9.121 0 01-9 9zm0-16a7.094 7.094 0 00-7 7 7.094 7.094 0 007 7 7.094 7.094 0 007-7 7.094 7.094 0 00-7-7zm5 8h-6V8h2v4h4v2zm3.292-7.292l-3.009-3 1.409-1.417 3.01 3-1.41 1.416v.001zm-16.585 0L2.292 5.291l2.991-3 1.415 1.417-2.989 3h-.002z"/></symbol><symbol viewBox="0 0 24 24" id="mail" xmlns="http://www.w3.org/2000/svg"><path d="M20 20H4a2 2 0 01-2-2V5.913A2 2 0 014 4h16a2 2 0 012 2v12a2 2 0 01-2 2zM4 7.868V18h16V7.868L12 13.2 4 7.868zM4.8 6l7.2 4.8L19.2 6H4.8z"/></symbol><symbol viewBox="0 0 24 24" id="map" xmlns="http://www.w3.org/2000/svg"><path fill-rule="evenodd" clip-rule="evenodd" d="M7 6a5 5 0 116 4.9V18a1 1 0 11-2 0v-7.1A5.002 5.002 0 017 6zm5-3a3 3 0 100 6 3 3 0 000-6zM8.985 14.16a1 1 0 01-.813 1.158c-1.692.296-3.063.772-3.982 1.322C3.226 17.218 3 17.72 3 18c0 .189.091.47.473.83.384.363.992.736 1.827 1.07 1.665.666 4.033 1.1 6.7 1.1s5.035-.434 6.7-1.1c.835-.334 1.444-.707 1.827-1.07.381-.36.473-.641.473-.83 0-.28-.226-.782-1.19-1.36-.919-.55-2.29-1.026-3.982-1.322a1 1 0 01.344-1.97c1.84.321 3.468.859 4.667 1.577C21.992 15.616 23 16.641 23 18c0 .916-.468 1.687-1.099 2.284-.628.594-1.484 1.083-2.459 1.473C17.488 22.539 14.856 23 12 23s-5.488-.461-7.442-1.243c-.975-.39-1.83-.88-2.46-1.474C1.469 19.688 1 18.916 1 18c0-1.36 1.008-2.384 2.161-3.075 1.199-.718 2.827-1.256 4.667-1.577a1 1 0 011.157.813z"/></symbol><symbol viewBox="0 0 24 24" id="menu" xmlns="http://www.w3.org/2000/svg"><path d="M21 18H3v-2h18v2zm0-5H3v-2h18v2zm0-5H3V6h18v2z"/></symbol><symbol viewBox="0 0 24 24" id="money" xmlns="http://www.w3.org/2000/svg"><path fill-rule="evenodd" clip-rule="evenodd" d="M15.707 3.293a1 1 0 10-1.414 1.414l.293.293H4a3 3 0 00-3 3v8a3 3 0 003 3 1 1 0 100-2 1 1 0 01-1-1V8a1 1 0 011-1h10.586l-.293.293a1 1 0 001.414 1.414l2-2a1 1 0 000-1.414l-2-2zM20 5a1 1 0 100 2 1 1 0 011 1v8a1 1 0 01-1 1H9.414l.293-.293a1 1 0 00-1.414-1.414l-2 2a1 1 0 000 1.414l2 2a1 1 0 001.414-1.414L9.414 19H20a3 3 0 003-3V8a3 3 0 00-3-3zM7.5 11a1 1 0 10-2 0v2a1 1 0 102 0v-2zm11 0a1 1 0 10-2 0v2a1 1 0 102 0v-2zM14 12a2 2 0 11-4 0 2 2 0 014 0z"/></symbol><symbol viewBox="0 0 24 24" id="parking" xmlns="http://www.w3.org/2000/svg"><g fill-rule="evenodd" clip-rule="evenodd"><path d="M12.527 7H9v10h2.207v-3.585h1.32c.628 0 1.163-.09 1.603-.266.44-.187.797-.43 1.069-.729.28-.299.482-.64.604-1.022a3.73 3.73 0 00.197-1.19 3.65 3.65 0 00-.197-1.191 2.648 2.648 0 00-.604-1.023 2.876 2.876 0 00-1.069-.714c-.44-.187-.975-.28-1.603-.28zm-.604 4.706h-.716V8.709h.716c.253 0 .496.018.73.056.235.037.441.112.62.224.178.102.318.252.421.448.113.196.169.453.169.77 0 .318-.056.574-.169.77-.103.197-.244.35-.422.463a1.793 1.793 0 01-.618.21 4.648 4.648 0 01-.731.056z"/><path d="M3 5a2 2 0 012-2h14a2 2 0 012 2v14a2 2 0 01-2 2H5a2 2 0 01-2-2V5zm2 0h14v14H5V5z"/></g></symbol><symbol viewBox="0 0 24 24" id="people" xmlns="http://www.w3.org/2000/svg"><path fill-rule="evenodd" clip-rule="evenodd" d="M12 4a3 3 0 100 6 3 3 0 000-6zM7 7a5 5 0 1110 0A5 5 0 017 7zm14.64.232a1 1 0 01.128 1.408l-2.682 3.219A9 9 0 0017 17.62V21a1 1 0 01-2 0v-3.38a11 11 0 012.55-7.042l2.682-3.218a1 1 0 011.408-.128zm-19.28 0a1 1 0 011.408.128l2.682 3.218A11 11 0 019 17.622V21a1 1 0 11-2 0v-3.38a9 9 0 00-2.086-5.761L2.232 8.64a1 1 0 01.128-1.408z"/></symbol><symbol viewBox="0 0 24 24" id="sort_asc" xmlns="http://www.w3.org/2000/svg"><path d="M0 0h24v24H0z"/><rect x="-627" y="-630" width="1280" height="1944" rx="16"/><path d="M3 17.5a.5.5 0 00.5.5h17a.5.5 0 00.5-.5v-1a.5.5 0 00-.5-.5h-17a.5.5 0 00-.5.5v1zm0-5a.5.5 0 00.5.5h17a.5.5 0 00.5-.5v-1a.5.5 0 00-.5-.5h-17a.5.5 0 00-.5.5v1zm0-5a.5.5 0 00.5.5h8a.5.5 0 00.5-.5v-1a.5.5 0 00-.5-.5h-8a.5.5 0 00-.5.5v1z"/></symbol><symbol viewBox="0 0 24 24" id="sort_dsc" xmlns="http://www.w3.org/2000/svg"><path d="M3 17.5a.5.5 0 00.5.5h8a.5.5 0 00.5-.5v-1a.5.5 0 00-.5-.5h-8a.5.5 0 00-.5.5v1zm0-5a.5.5 0 00.5.5h17a.5.5 0 00.5-.5v-1a.5.5 0 00-.5-.5h-17a.5.5 0 00-.5.5v1zm0-5a.5.5 0 00.5.5h17a.5.5 0 00.5-.5v-1a.5.5 0 00-.5-.5h-17a.5.5 0 00-.5.5v1z"/></symbol><symbol viewBox="0 0 24 24" id="star_filled" xmlns="http://www.w3.org/2000/svg"><path d="M11.523 2.345c.15-.46.804-.46.954 0l2.016 6.184c.067.205.26.345.477.345h6.527c.486 0 .688.616.296.9l-5.284 3.827a.496.496 0 00-.181.556l2.017 6.189c.15.46-.38.84-.773.556l-5.276-3.821a.504.504 0 00-.592 0l-5.276 3.821c-.393.285-.923-.097-.773-.556l2.017-6.19a.496.496 0 00-.181-.555L2.207 9.774c-.392-.284-.19-.9.296-.9H9.03c.217 0 .41-.14.477-.345l2.016-6.184z"/></symbol><symbol viewBox="0 0 24 24" id="tenis" xmlns="http://www.w3.org/2000/svg"><path d="M10.85 6.594c.107-.226.224-.45.353-.672l.027-.046.015-.026c.227-.384.478-.742.748-1.075 1.05-1.29 2.395-2.18 3.77-2.562a8.06 8.06 0 01.014-.005c1.304-.36 2.634-.265 3.77.371l.03.018c2.646 1.51 3.212 5.417 1.265 8.733-1.721 2.93-4.83 4.419-7.361 3.694L17 21.01l-1.744.99L12 16.462 8.748 22 7 21.008l4.326-7.364c-.894-1.04-1.324-2.486-1.246-4.04a8.05 8.05 0 01.77-3.01zm6.938-2.545v7.916a6.662 6.662 0 001.314-1.622c1.623-2.763.79-5.268-.548-6.027a2.388 2.388 0 00-.766-.267zm-1.009 8.625V4.036c-.647.087-1.347.35-2.018.825v8.34c.623.01 1.324-.153 2.018-.527zm-4.018-.477c.15.205.318.38.5.52a2.135 2.135 0 00.479.282l.012.005v-7.23a7.029 7.029 0 00-.783 1.089l-.015.026-.023.039c-.06.104-.117.209-.17.313-1.044 2.038-.775 3.895 0 4.956z"/><path d="M9.422 5.006c-.728-.567-1.502-.876-2.211-.97v8.607c.5.269 1.003.429 1.477.493a7.1 7.1 0 00.277.579l-.799 1.36c-1.9-.362-3.799-1.709-5.01-3.769C1.21 7.995 1.78 4.092 4.428 2.59c1.842-1.045 4.205-.654 6.128.795a10.51 10.51 0 00-1.134 1.62zM4.896 10.32a6.636 6.636 0 001.308 1.614V4.048c-.283.05-.54.14-.762.266-1.334.756-2.165 3.251-.546 6.006z"/></symbol><symbol viewBox="0 0 24 24" id="user" xmlns="http://www.w3.org/2000/svg"><path d="M6.99 8c0-2.761 2.243-5 5.01-5a5.005 5.005 0 015.01 5c0 2.761-2.244 5-5.01 5a5.005 5.005 0 01-5.01-5zM12 11a3.003 3.003 0 003.005-3c0-1.657-1.345-3-3.005-3a3.003 3.003 0 00-3.006 3c0 1.657 1.346 3 3.006 3zm-5.667 5.343A7.994 7.994 0 004 21.5c-.017.276.209.5.485.5h1.002a.535.535 0 00.522-.5 5.995 5.995 0 011.74-3.743 6.016 6.016 0 018.5 0 5.995 5.995 0 011.74 3.743c.023.276.245.5.522.5h1.002a.477.477 0 00.485-.5 7.994 7.994 0 00-2.332-5.157 8.023 8.023 0 00-11.334 0z"/></symbol><symbol viewBox="0 0 24 24" id="wifi" xmlns="http://www.w3.org/2000/svg"><path d="M14 18a2 2 0 11-4 0 2 2 0 014 0zm.586-5.414a6 6 0 011.655 1.17l.002.001-1.414 1.415A3.987 3.987 0 0012 14a3.987 3.987 0 00-2.828 1.172l-1.415-1.415a6 6 0 016.829-1.171z"/><path d="M17.657 12.343A7.975 7.975 0 0012 10c-2.21 0-4.21.895-5.657 2.343L4.93 10.93a10.002 10.002 0 0114.142 0l-1.414 1.414z"/><path d="M20.485 9.515A11.963 11.963 0 0012 6a11.962 11.962 0 00-8.485 3.515L2.1 8.1a14 14 0 0119.795-.004l.004.004-1.415 1.414z"/></symbol></svg>