<svg xmlns="http://www.w3.org/2000/svg" width="120" height="32" viewBox="0 0 120 32" fill="none">
    <path d="M31.7798 7.21762C31.7798 9.77461 32.986 14 40.9752 14H41.657C49.4888 14 50.7126 10.1917 50.7126 8.43264V8.14249H45.5729L45.5704 8.15365C45.4938 8.49395 45.0747 10.3549 41.2899 10.3549C37.7935 10.3549 36.9194 8.45078 36.9194 7V6.78238C36.9194 5.2772 37.6886 3.62694 41.2724 3.62694C44.9678 3.62694 45.4318 5.25954 45.5483 5.66924L45.5554 5.6943H50.7126V5.45855C50.7126 3.71762 49.5588 0 41.657 0H40.9752C32.8636 0 31.7798 4.11658 31.7798 6.69171V7.21762Z" fill="#F3EFE9"/>
    <path d="M15.7336 7.16321C15.7336 9.97409 14.7372 13.9456 8.30387 13.9456H7.23747C1.06639 13.9456 0 10.1917 0 7.87047V7.76166H4.87743C4.92987 8.28756 5.15714 10.0829 7.74445 10.0829H7.8843C9.98212 10.0829 10.7688 8.79534 10.7688 7.0544V0.253886H15.7336V7.16321Z" fill="#F3EFE9"/>
    <path fill-rule="evenodd" clip-rule="evenodd" d="M28.4742 13.7461L27.4603 11.5699H20.0305L19.034 13.7461H13.9993L20.4326 0.253886H27.1106L33.911 13.7461H28.4742ZM25.8694 8.19689L23.6842 3.5544L21.5514 8.19689H25.8694Z" fill="#F3EFE9"/>
    <path fill-rule="evenodd" clip-rule="evenodd" d="M62.1628 13.7461L55.8169 7.70725V13.7461H50.852V0.253886H55.8169V5.58549L62.2152 0.253886H78.926C83.5252 0.253886 84.9725 2.06295 85.0893 4.39498C85.8448 2.21253 88.0741 0 94.2246 0H95.0112C100.448 0 102.818 1.74354 103.812 3.66182V0.253886H120V3.93523H114.388V13.7461H109.424V3.93523H103.944C104.374 4.89314 104.486 5.87578 104.486 6.69171V7.23575C104.486 9.75648 103.42 14 95.0112 14H94.2246C85.7983 14 84.7319 9.75648 84.7319 7.23575V6.91248C84.0591 8.43834 82.3667 9.52072 78.926 9.52072H73.0522V13.7461H62.1628ZM60.8167 6.38342L68.0873 13.2338V0.495975L60.8167 6.38342ZM79.975 4.91451C79.975 5.65803 79.468 6.14767 78.3317 6.14767H73.0522V3.62694H78.3317C79.503 3.62694 79.975 4.08031 79.975 4.8601V4.91451ZM94.6092 10.3549C98.4552 10.3549 99.3467 8.52332 99.3467 7.07254V6.81865C99.3467 5.38601 98.4552 3.62694 94.6092 3.62694C90.6932 3.62694 89.8716 5.38601 89.8716 6.81865V7.03627C89.8716 8.45078 90.7632 10.3549 94.6092 10.3549Z" fill="#F3EFE9"/>
    <path fill-rule="evenodd" clip-rule="evenodd" d="M53.7122 21.6618C52.7118 19.7435 50.328 18 44.8574 18H44.0659C37.8775 18 35.6345 20.2125 34.8743 22.395C34.7568 20.063 33.3006 18.2539 28.6732 18.2539H17.7677V31.7461H22.7631V27.5207H28.6732C32.135 27.5207 33.8379 26.4383 34.5148 24.9125V25.2358C34.5148 27.7565 35.5877 32 44.0659 32H44.8574C53.3179 32 54.3909 27.7565 54.3909 25.2358V24.6917C54.3909 23.8758 54.2782 22.8931 53.8451 21.9352H59.3584V31.7461H64.3538V21.9352H70V18.2539H53.7122V21.6618ZM44.4528 21.6269C48.3225 21.6269 49.2196 23.386 49.2196 24.8187V25.0725C49.2196 26.5233 48.3225 28.3549 44.4528 28.3549C40.5831 28.3549 39.6861 26.4508 39.6861 25.0363V24.8187C39.6861 23.386 40.5128 21.6269 44.4528 21.6269ZM29.7285 22.8601C29.7285 22.0803 29.2536 21.6269 28.0751 21.6269H22.7631V24.1477H28.0751C29.2184 24.1477 29.7285 23.658 29.7285 22.9145V22.8601Z" fill="#F3EFE9"/>
    <path d="M17.695 27.4119C17.695 29.6788 16.4637 32 9.58626 32H7.98562C0.756348 32 0 28.9715 0 27.2124V27.0311H5.48791C5.54068 27.7565 5.91006 28.9352 8.75955 28.9352H8.91786C11.7146 28.9352 12.1191 28.3187 12.1191 27.6658V27.6477C12.1191 26.9585 11.7849 26.5233 9.04098 26.4326L6.61364 26.3601C1.54787 26.215 0.193484 24.3834 0.193484 22.2979V22.1347C0.193484 19.9404 1.61823 18.0181 7.72177 18.0181H9.28724C15.7602 18.0181 17.2377 20.1399 17.2377 22.2798V22.4249H11.8025C11.7498 21.9352 11.4683 20.9922 8.63643 20.9922H8.46053C5.8397 20.9922 5.57586 21.4637 5.57586 21.9896V22.0078C5.57586 22.5518 5.96283 22.987 8.42535 23.0415L10.7823 23.0959C15.7602 23.2409 17.695 24.4378 17.695 27.158V27.4119Z" fill="#F3EFE9"/>
    <path fill-rule="evenodd" clip-rule="evenodd" d="M74 22C74 19.7909 75.7909 18 78 18H116C118.209 18 120 19.7909 120 22V28C120 30.2091 118.209 32 116 32H78C75.7909 32 74 30.2091 74 28V22ZM105 20C105.138 20 105.272 20.0541 105.376 20.1522C105.672 20.431 105.958 20.6932 106.231 20.9432C107.847 22.4245 109 23.482 109 25.0536C109 26.5022 108.038 27.6923 106.714 27.6923C106.296 27.6923 105.911 27.5695 105.571 27.332V28.7692H106.143C106.458 28.7692 106.714 29.0448 106.714 29.3846C106.714 29.7245 106.458 30 106.143 30H103.857C103.542 30 103.286 29.7245 103.286 29.3846C103.286 29.0448 103.542 28.7692 103.857 28.7692H104.429V27.332C104.089 27.5695 103.704 27.6923 103.286 27.6923C101.962 27.6923 101 26.5023 101 25.0536C101 23.4822 102.154 22.4245 103.77 20.9428C104.042 20.6929 104.328 20.4308 104.624 20.1522C104.728 20.0541 104.862 20 105 20ZM114.056 20.2271C114.259 19.9272 114.616 19.9247 114.822 20.2175L117.865 24.5479C118.045 24.8038 118.045 25.1961 117.865 25.4519L114.822 29.7824C114.615 30.0765 114.258 30.0717 114.056 29.7728L111.128 25.4423C111.046 25.3201 111 25.1628 111 24.9999C111 24.8371 111.046 24.6798 111.128 24.5575L114.056 20.2271ZM81.7143 27.5C82.9746 27.5 84 26.3785 84 25C84 23.8367 83.2698 22.8565 82.2845 22.5788C82.3296 21.1901 81.3014 20 80 20C78.6987 20 77.6704 21.1901 77.7155 22.5788C76.7302 22.8565 76 23.8367 76 25C76 26.3785 77.0254 27.5 78.2857 27.5C78.6871 27.5004 79.0815 27.3844 79.4286 27.1638V28.75H78.8571C78.5416 28.75 78.2857 29.0298 78.2857 29.375C78.2857 29.7202 78.5416 30 78.8571 30H81.1429C81.4584 30 81.7143 29.7202 81.7143 29.375C81.7143 29.0298 81.4584 28.75 81.1429 28.75H80.5714V27.1638C80.9185 27.3844 81.3129 27.5004 81.7143 27.5ZM89.4286 20C87.4426 20 86 21.5471 86 23.4303C86 25.4734 87.7301 26.8481 90.1537 28.7737C90.5627 29.0987 90.9921 29.4399 91.4355 29.8021C91.5918 29.9297 91.7924 30 92 30C92.2076 30 92.4082 29.9297 92.5645 29.8021C93.0079 29.4399 93.4366 29.0992 93.8455 28.7743C96.2696 26.8481 98 25.4731 98 23.4304C98 21.547 96.5573 20 94.5714 20C93.5578 20 92.6733 20.4157 92 21.2053C91.3267 20.4157 90.4422 20 89.4286 20Z" fill="#FC623A"/>
</svg>