<svg width="160" height="160" viewBox="0 0 160 160" fill="none" xmlns="http://www.w3.org/2000/svg">
    <g clip-path="url(#clip0_5838_906)">
        <path fill-rule="evenodd" clip-rule="evenodd" d="M96.0708 86.8302C96.1288 87.254 95.8277 87.6333 95.4016 87.7002C94.9733 87.7672 94.5785 87.4549 94.5205 87.0311L91.9084 69.7436C91.8705 69.4759 91.9508 69.1859 92.1315 68.9628L103.195 54.8407L85.812 52.3378C85.3079 52.2597 84.8774 51.9408 84.6543 51.4812L77.4204 36.8505L68.8012 52.3066C68.5223 52.7996 68.0294 53.1319 67.4673 53.2032L51.275 55.1507L63.4923 68.5836C63.7867 68.9182 63.9294 69.342 63.8848 69.7658L61.8929 86.7187L77.2397 80.0267C77.5319 79.8929 77.871 79.893 78.1565 80.0492L94.3331 88.9718C94.7123 89.1725 94.8573 89.6632 94.6543 90.0424C94.4513 90.4216 93.9762 90.5556 93.597 90.3548L77.6457 82.1236L60.8825 89.9755C60.4609 90.1763 59.9701 90.1316 59.5976 89.8416C59.2228 89.5739 59.0221 89.1279 59.0712 88.6818L60.8267 70.145L46.5729 55.0102C46.1424 54.5462 46.0086 53.877 46.2249 53.2814C46.4435 52.6859 46.9744 52.2599 47.6057 52.1818L66.1333 49.7793L76.0195 32.3402C76.3318 31.7848 76.9275 31.4501 77.5632 31.468C78.1989 31.488 78.7721 31.8584 79.0487 32.4317L87.1059 49.4111L105.841 52.5587C106.307 52.6323 106.698 52.9468 106.867 53.3862C107.037 53.8257 106.961 54.3231 106.664 54.6889L94.0364 69.922L96.0708 86.8302Z" fill="#262625"/>
        <path fill-rule="evenodd" clip-rule="evenodd" d="M140.66 86.9196C140.717 87.3606 140.418 87.7408 139.991 87.8017C139.563 87.8623 139.168 87.5583 139.11 87.1325L137.247 75.3628C137.208 75.0891 137.288 74.8002 137.469 74.5722L144.501 65.4848L133.344 63.9399C132.841 63.8623 132.409 63.5415 132.187 63.0838L127.679 54.0558L122.318 63.7087C122.041 64.2014 121.545 64.5343 120.984 64.6043L110.966 65.7873L118.556 74.2071C118.851 74.5265 118.994 74.9522 118.948 75.378L117.614 86.2505L127.439 82.0231C127.733 81.8862 128.072 81.9017 128.356 82.0536L139.346 88.2121C139.726 88.4097 139.87 88.8813 139.667 89.2614C139.464 89.6415 138.99 89.7936 138.61 89.596L127.853 84.1215L116.594 89.4895C116.173 89.6719 115.683 89.6264 115.309 89.3527C114.934 89.079 114.733 88.638 114.782 88.1818L115.893 75.7734L106.275 65.6399C105.843 65.1746 105.709 64.507 105.927 63.9109C106.144 63.3148 106.678 62.8905 107.308 62.8115L119.652 61.1829L126.27 49.5516C126.582 48.9965 127.176 48.662 127.813 48.6817C128.449 48.7 129.021 49.0711 129.299 49.6444L134.644 61.0172L147.139 63.1886C147.604 63.26 147.995 63.5764 148.165 64.0159C148.334 64.4554 148.257 64.951 147.962 65.3175L139.372 75.5606L140.66 86.9196Z" fill="#262625"/>
        <path fill-rule="evenodd" clip-rule="evenodd" d="M37.6712 87.9596C37.729 88.4003 37.4295 88.7807 37.0021 88.8414C36.5749 88.9023 36.1795 88.5982 36.1218 88.1724L34.2589 76.4027C34.2194 76.129 34.3001 75.8399 34.481 75.6117L41.5123 66.5247L30.3555 64.9796C29.8522 64.902 29.4203 64.5812 29.1983 64.1235L24.6911 55.0955L19.3294 64.7484C19.0527 65.2411 18.5569 65.5742 17.9958 65.6442L7.9779 66.8273L15.5674 75.2468C15.8624 75.5663 16.0053 75.9921 15.9597 76.4177L14.6261 87.2904L24.4509 83.063C24.7443 82.9261 25.0835 82.9412 25.3678 83.0933L36.3575 89.252C36.7376 89.4496 36.8821 89.921 36.6783 90.3013C36.4761 90.6814 36.0016 90.8335 35.6215 90.6357L24.8645 85.1615L13.6058 90.5292C13.1845 90.7116 12.6949 90.6663 12.3208 90.3926C11.9452 90.1189 11.7445 89.6779 11.7931 89.2217L12.9047 76.8133L3.28674 66.6798C2.85489 66.2145 2.72109 65.5469 2.93853 64.9508C3.15597 64.3547 3.6897 63.9304 4.31923 63.8514L16.6637 62.2228L23.2815 50.5915C23.5932 50.0364 24.1878 49.7019 24.825 49.7217C25.4606 49.7399 26.0324 50.111 26.3106 50.6843L31.6557 62.0571L44.1507 64.2285C44.616 64.2999 45.0068 64.6161 45.1771 65.0556C45.3459 65.4951 45.2683 65.9909 44.9733 66.3574L36.3833 76.6003L37.6712 87.9596Z" fill="#262625"/>
        <path fill-rule="evenodd" clip-rule="evenodd" d="M65.8216 128.609C65.8795 129.032 65.5791 129.43 65.1521 129.49C64.7238 129.538 64.3304 129.237 64.2725 128.814L62.7392 119.489C62.7006 119.199 62.7802 118.91 62.9612 118.693L68.2115 111.831L59.8075 110.707C59.3045 110.629 58.8726 110.309 58.6506 109.851L55.3546 103.3L51.4302 110.387C51.154 110.88 50.6594 111.213 50.0972 111.283L42.8067 112.131L48.3526 118.318C48.6482 118.644 48.7906 119.067 48.7447 119.501L47.7072 127.668L55.0832 124.544C55.3776 124.411 55.7166 124.423 56.0013 124.568L64.6948 129.502C65.0749 129.707 65.2196 130.178 65.0157 130.564C64.813 130.938 64.3389 131.083 63.9577 130.878L55.5031 126.643L46.6781 130.902C46.2571 131.094 45.7673 131.046 45.3921 130.769C45.0181 130.503 44.8178 130.045 44.866 129.587L45.6925 119.899L38.1247 111.976C37.694 111.511 37.5601 110.842 37.7772 110.247C37.9944 109.65 38.5276 109.226 39.1573 109.148L48.7652 107.863L53.9372 98.8025C54.2496 98.2475 54.8431 97.9119 55.4801 97.9313C56.1159 97.9514 56.6877 98.322 56.9652 98.894L61.1117 107.789L70.8439 109.525C71.3084 109.597 71.7005 109.912 71.8694 110.351C72.0395 110.79 71.9622 111.287 71.6667 111.654L64.8624 119.682L65.8216 128.609Z" fill="#262625"/>
        <path fill-rule="evenodd" clip-rule="evenodd" d="M113.109 128.778C113.167 129.201 112.866 129.599 112.439 129.659C112.011 129.708 111.618 129.406 111.56 128.984L110.026 119.658C109.988 119.368 110.067 119.079 110.248 118.862L115.499 112.001L107.095 110.876C106.592 110.798 106.16 110.478 105.938 110.02L102.642 103.469L98.7174 110.557C98.4412 111.049 97.9465 111.382 97.3843 111.452L90.0939 112.3L95.6398 118.488C95.9354 118.813 96.0778 119.236 96.0319 119.67L94.9944 127.838L102.37 124.713C102.665 124.58 103.004 124.592 103.289 124.737L111.982 129.671C112.362 129.876 112.507 130.347 112.303 130.733C112.1 131.107 111.626 131.252 111.245 131.047L102.79 126.812L93.9653 131.07C93.5443 131.263 93.0544 131.215 92.6792 130.938C92.3052 130.672 92.105 130.214 92.1533 129.756L92.9796 120.068L85.4118 112.146C84.9811 111.68 84.8472 111.011 85.0643 110.415C85.2815 109.819 85.8148 109.395 86.4445 109.316L96.0524 108.032L101.224 98.9714C101.537 98.4164 102.13 98.0809 102.767 98.1003C103.403 98.1204 103.975 98.4912 104.252 99.0631L108.399 107.958L118.131 109.694C118.596 109.766 118.988 110.081 119.157 110.52C119.327 110.959 119.249 111.457 118.954 111.823L112.15 119.851L113.109 128.778Z" fill="#262625"/>
        <path fill-rule="evenodd" clip-rule="evenodd" d="M93.2023 68.8734C93.6105 69.0072 93.8269 69.4533 93.6842 69.8772C93.5414 70.2787 93.0953 70.4796 92.6871 70.3457C92.6871 70.3457 86.6041 68.695 78.8906 66.3528C77.1284 65.8397 75.2881 65.2374 73.4166 64.6351C72.2143 64.2559 70.9986 63.8546 69.7941 63.4196C66.7135 62.3177 63.6687 61.1331 60.8514 60.0244C53.3587 57.0733 47.5568 54.5996 47.5568 54.5996C47.1508 54.4569 46.9344 54.0108 47.0772 53.6048C47.22 53.1966 47.6661 52.9824 48.0721 53.1229C48.0721 53.1229 54.1528 54.7959 61.8574 57.147C64.7505 58.0304 67.8712 58.9984 70.9673 60.0512C72.1808 60.4639 73.3787 60.91 74.5631 61.3517C76.4079 62.0387 78.2102 62.7303 79.9212 63.4107C87.4072 66.3975 93.2023 68.8734 93.2023 68.8734Z" fill="#262625"/>
        <path fill-rule="evenodd" clip-rule="evenodd" d="M138.54 74.4806C138.948 74.6326 139.164 75.0738 139.021 75.4844C138.879 75.8949 138.432 76.1078 138.025 75.9708C138.025 75.9708 133.845 74.9673 128.539 73.4771C127.329 73.1425 126.07 72.7623 124.788 72.367C123.965 72.1084 123.133 71.8348 122.312 71.5459C120.215 70.7826 118.152 69.9415 116.245 69.1493C111.16 67.0371 107.261 65.2291 107.261 65.2291C106.852 65.0862 106.637 64.6407 106.779 64.2332C106.922 63.8256 107.367 63.6097 107.775 63.7526C107.775 63.7526 111.954 64.7608 117.25 66.2723C119.234 66.8395 121.372 67.4645 123.488 68.1747C124.315 68.453 125.13 68.7646 125.936 69.0733C127.189 69.5553 128.41 70.042 129.569 70.5302C134.648 72.6712 138.54 74.4806 138.54 74.4806Z" fill="#262625"/>
        <path fill-rule="evenodd" clip-rule="evenodd" d="M35.551 75.5207C35.9586 75.6728 36.1745 76.1138 36.0316 76.5245C35.8901 76.9349 35.4431 77.1478 35.0355 77.0109C35.0355 77.0109 30.8553 76.0074 25.5498 74.5171C24.3394 74.1826 23.0804 73.8024 21.7985 73.407C20.9758 73.1485 20.144 72.8749 19.3229 72.586C17.2259 71.8226 15.1624 70.9816 13.2555 70.1893C8.17053 68.0772 4.27163 66.2692 4.27163 66.2692C3.86257 66.1262 3.64819 65.6807 3.78961 65.2732C3.93255 64.8657 4.37807 64.6497 4.78561 64.7927C4.78561 64.7927 8.96433 65.8009 14.2607 67.3124C16.2451 67.8796 18.3831 68.5044 20.4983 69.2145C21.3256 69.4928 22.1406 69.8046 22.9466 70.1133C24.1996 70.5954 25.4206 71.0818 26.5793 71.57C31.6583 73.711 35.551 75.5207 35.551 75.5207Z" fill="#262625"/>
        <path fill-rule="evenodd" clip-rule="evenodd" d="M64.0333 118.608C64.4411 118.753 64.657 119.199 64.5146 119.597C64.3723 120.008 63.9259 120.225 63.5181 120.08C63.5181 120.08 60.1825 119.38 55.9395 118.27C54.9732 118.017 53.9717 117.728 52.9511 117.414C52.2972 117.209 51.635 117.004 50.9847 116.774C49.3198 116.159 47.6935 115.471 46.1879 114.821C42.1657 113.079 39.1099 111.565 39.1099 111.565C38.7033 111.423 38.4874 110.977 38.6298 110.57C38.7721 110.162 39.2185 109.946 39.6251 110.088C39.6251 110.088 42.9596 110.804 47.1929 111.944C48.7757 112.37 50.478 112.843 52.1597 113.402C52.8172 113.619 53.4614 113.873 54.0985 114.124C55.0913 114.514 56.0553 114.912 56.9686 115.314C60.9859 117.076 64.0333 118.608 64.0333 118.608Z" fill="#262625"/>
        <path fill-rule="evenodd" clip-rule="evenodd" d="M111.32 118.777C111.727 118.922 111.943 119.368 111.801 119.766C111.658 120.177 111.212 120.394 110.804 120.249C110.804 120.249 107.469 119.549 103.226 118.439C102.259 118.186 101.258 117.896 100.237 117.583C99.5834 117.378 98.9211 117.173 98.2708 116.943C96.606 116.328 94.9798 115.641 93.4742 114.99C89.452 113.248 86.3961 111.734 86.3961 111.734C85.9895 111.592 85.7735 111.145 85.9159 110.739C86.0583 110.331 86.5046 110.115 86.9112 110.257C86.9112 110.257 90.2458 110.973 94.4792 112.113C96.062 112.539 97.7642 113.012 99.4459 113.572C100.103 113.789 100.748 114.042 101.385 114.293C102.378 114.683 103.341 115.081 104.255 115.482C108.272 117.245 111.32 118.777 111.32 118.777Z" fill="#262625"/>
        <path fill-rule="evenodd" clip-rule="evenodd" d="M76.7295 33.1787C76.7273 32.7482 77.0775 32.3958 77.5081 32.3958C77.9408 32.3935 78.291 32.7416 78.2932 33.1743C78.2932 33.1743 78.7505 39.4624 79.1208 47.5106C79.2056 49.3486 79.2702 51.2781 79.3171 53.2455C79.3483 54.5081 79.3795 55.7884 79.3728 57.0688C79.3572 60.3389 79.2546 63.6091 79.1453 66.6205C78.8531 74.6731 78.4493 80.9635 78.4493 80.9635C78.4516 81.4096 78.1014 81.7442 77.6709 81.7442C77.2381 81.7442 76.8879 81.4096 76.8857 80.9635C76.8857 80.9635 76.4396 74.673 76.096 66.6427C75.9667 63.609 75.8417 60.3502 75.806 57.0801C75.7904 55.7997 75.8128 54.5214 75.8351 53.2566C75.8708 51.2892 75.922 49.3598 75.9956 47.5195C76.3124 39.4713 76.7295 33.1787 76.7295 33.1787Z" fill="#262625"/>
        <path fill-rule="evenodd" clip-rule="evenodd" d="M126.979 50.3924C126.976 49.9606 127.327 49.6093 127.759 49.6078C128.189 49.6056 128.54 49.956 128.542 50.3863C128.542 50.3863 128.993 54.661 129.355 60.1596C129.439 61.4126 129.5 62.7264 129.545 64.0676C129.576 64.9298 129.605 65.8026 129.597 66.674C129.579 68.9062 129.471 71.1355 129.358 73.1884C129.059 78.6932 128.65 82.966 128.65 82.966C128.652 83.407 128.302 83.7567 127.87 83.7567C127.438 83.7567 127.087 83.4068 127.085 82.9812C127.085 82.9812 126.649 78.6932 126.313 73.2036C126.186 71.1356 126.065 68.9169 126.031 66.6862C126.018 65.8149 126.042 64.942 126.065 64.0798C126.103 62.737 126.156 61.4232 126.23 60.1687C126.556 54.6686 126.979 50.3924 126.979 50.3924Z" fill="#262625"/>
        <path fill-rule="evenodd" clip-rule="evenodd" d="M23.9894 51.4324C23.9872 51.0005 24.3376 50.6492 24.7695 50.6477C25.1998 50.6455 25.551 50.9959 25.5526 51.4263C25.5526 51.4263 26.0043 55.7009 26.3662 61.1995C26.4498 62.4525 26.5106 63.7663 26.5563 65.1075C26.5867 65.9697 26.6155 66.8426 26.6079 67.7139C26.5896 69.9462 26.4817 72.1754 26.3691 74.2283C26.0696 79.7331 25.6606 84.0059 25.6606 84.0059C25.6629 84.4469 25.3123 84.7966 24.8804 84.7966C24.4486 84.7966 24.0973 84.4467 24.0958 84.0209C24.0958 84.0209 23.6594 79.7329 23.3234 74.2433C23.1971 72.1753 23.0755 69.9566 23.042 67.7259C23.0284 66.8546 23.0527 65.9819 23.0755 65.1197C23.1135 63.777 23.1667 62.4629 23.2412 61.2084C23.5667 55.7083 23.9894 51.4324 23.9894 51.4324Z" fill="#262625"/>
        <path fill-rule="evenodd" clip-rule="evenodd" d="M54.6459 99.6422C54.6437 99.2115 54.9946 98.8594 55.4252 98.858C55.8571 98.858 56.2081 99.2054 56.2093 99.6372C56.2093 99.6372 56.657 103.017 57.0165 107.39C57.0986 108.384 57.1589 109.425 57.2047 110.49C57.2325 111.174 57.2614 111.867 57.2542 112.558C57.2337 114.33 57.125 116.099 57.0104 117.728C56.7064 122.107 56.2951 125.485 56.2951 125.485C56.2973 125.919 55.9464 126.269 55.5158 126.269C55.0839 126.269 54.7327 125.919 54.7315 125.497C54.7315 125.497 54.2972 122.107 53.9642 117.74C53.8388 116.099 53.7194 114.342 53.6868 112.57C53.6748 111.878 53.6988 111.186 53.723 110.502C53.7616 109.436 53.8147 108.395 53.8907 107.4C54.2213 103.024 54.6459 99.6422 54.6459 99.6422Z" fill="#262625"/>
        <path fill-rule="evenodd" clip-rule="evenodd" d="M101.933 99.8111C101.931 99.3804 102.282 99.0282 102.712 99.0271C103.144 99.0271 103.495 99.3744 103.496 99.8063C103.496 99.8063 103.944 103.185 104.304 107.559C104.386 108.553 104.446 109.594 104.492 110.659C104.519 111.343 104.548 112.036 104.541 112.727C104.521 114.499 104.412 116.268 104.298 117.897C103.994 122.276 103.582 125.654 103.582 125.654C103.584 126.088 103.233 126.438 102.803 126.438C102.371 126.438 102.02 126.088 102.019 125.666C102.019 125.666 101.584 122.276 101.251 117.909C101.126 116.268 101.006 114.511 100.974 112.739C100.962 112.047 100.986 111.355 101.01 110.671C101.049 109.605 101.102 108.564 101.178 107.568C101.508 103.193 101.933 99.8111 101.933 99.8111Z" fill="#262625"/>
        <path fill-rule="evenodd" clip-rule="evenodd" d="M105.371 53.1275C105.777 52.9803 106.225 53.1877 106.375 53.5937C106.522 53.9997 106.312 54.448 105.906 54.5975C105.906 54.5975 100.365 57.0804 93.1981 60.056C91.5608 60.7342 89.8344 61.4256 88.0699 62.1126C86.9345 62.5543 85.7858 63.0005 84.6236 63.4109C81.6569 64.4571 78.6611 65.4384 75.8862 66.3084C68.4939 68.6729 62.6563 70.346 62.6563 70.346C62.2503 70.5021 61.802 70.2789 61.6548 69.8774C61.5075 69.4759 61.715 69.0298 62.1209 68.8736C62.1209 68.8736 67.6685 66.3977 74.8422 63.4532C77.5369 62.3468 80.4523 61.1623 83.4034 60.0604C84.5589 59.6299 85.7256 59.2329 86.8788 58.8403C88.6722 58.2313 90.4367 57.6492 92.1297 57.1183C99.531 54.7895 105.371 53.1275 105.371 53.1275Z" fill="#262625"/>
        <path fill-rule="evenodd" clip-rule="evenodd" d="M146.669 63.7557C147.075 63.6082 147.523 63.818 147.671 64.2225C147.818 64.6285 147.61 65.0771 147.204 65.2246C147.204 65.2246 143.486 67.0433 138.626 69.1798C137.517 69.6664 136.35 70.1529 135.148 70.635C134.379 70.9436 133.597 71.257 132.805 71.5307C130.776 72.2454 128.725 72.8689 126.82 73.4316C121.735 74.9522 117.72 75.9556 117.72 75.9556C117.314 76.1078 116.866 75.8947 116.718 75.4995C116.571 75.0888 116.78 74.6326 117.185 74.4959C117.185 74.4959 120.909 72.6863 125.777 70.5742C127.601 69.7835 129.574 68.9427 131.584 68.1823C132.37 67.8858 133.168 67.6227 133.958 67.3642C135.186 66.9612 136.395 66.5825 137.557 66.2419C142.653 64.7532 146.669 63.7557 146.669 63.7557Z" fill="#262625"/>
        <path fill-rule="evenodd" clip-rule="evenodd" d="M43.6792 64.7957C44.0852 64.6482 44.5338 64.8581 44.6813 65.2626C44.8288 65.6686 44.6205 66.1171 44.2145 66.2646C44.2145 66.2646 40.4965 68.0834 35.6365 70.2199C34.528 70.7065 33.3602 71.193 32.1589 71.675C31.3895 71.9837 30.6079 72.297 29.8156 72.5708C27.7871 73.2854 25.7357 73.9087 23.8304 74.4714C18.7454 75.9921 14.7309 76.9957 14.7309 76.9957C14.3249 77.1478 13.8763 76.9348 13.7289 76.5395C13.5813 76.1289 13.7912 75.6727 14.1957 75.5359C14.1957 75.5359 17.9197 73.7264 22.7872 71.6142C24.612 70.8235 26.5843 69.9825 28.5945 69.2222C29.3807 68.9257 30.179 68.6627 30.9682 68.4042C32.1969 68.0012 33.4057 67.6225 34.5675 67.2819C39.6632 65.7932 43.6792 64.7957 43.6792 64.7957Z" fill="#262625"/>
        <path fill-rule="evenodd" clip-rule="evenodd" d="M70.373 110.092C70.7784 109.945 71.2285 110.154 71.3756 110.559C71.5228 110.965 71.3141 111.414 70.9087 111.562C70.9087 111.562 68.0013 113.084 64.1588 114.851C63.2854 115.253 62.3625 115.65 61.4118 116.04C60.8026 116.292 60.186 116.545 59.5551 116.762C57.9433 117.317 56.3087 117.8 54.7886 118.222C50.7217 119.368 47.5174 120.08 47.5174 120.08C47.1121 120.225 46.6634 120.02 46.5149 119.61C46.3678 119.211 46.5764 118.753 46.9818 118.608C46.9818 118.608 49.8966 117.1 53.7462 115.358C55.1843 114.707 56.7405 114.018 58.3354 113.41C58.9579 113.172 59.5937 112.969 60.221 112.769C61.2006 112.457 62.1622 112.168 63.0887 111.914C67.1676 110.797 70.373 110.092 70.373 110.092Z" fill="#262625"/>
        <path fill-rule="evenodd" clip-rule="evenodd" d="M117.659 110.261C118.065 110.114 118.515 110.322 118.662 110.728C118.809 111.133 118.6 111.583 118.195 111.73C118.195 111.73 115.287 113.253 111.445 115.02C110.572 115.422 109.649 115.819 108.698 116.209C108.089 116.461 107.472 116.714 106.841 116.931C105.23 117.486 103.595 117.969 102.075 118.391C98.0079 119.537 94.8037 120.249 94.8037 120.249C94.3983 120.394 93.9495 120.188 93.8011 119.778C93.6539 119.38 93.8626 118.922 94.268 118.777C94.268 118.777 97.1827 117.269 101.032 115.527C102.47 114.876 104.027 114.187 105.622 113.579C106.244 113.341 106.88 113.138 107.507 112.938C108.487 112.625 109.448 112.337 110.375 112.082C114.454 110.965 117.659 110.261 117.659 110.261Z" fill="#262625"/>
        <path fill-rule="evenodd" clip-rule="evenodd" d="M94.6059 89.217C94.8535 89.5739 94.7666 90.0648 94.4119 90.3101C94.0595 90.5555 93.5709 90.4662 93.3233 90.1093C93.3233 90.1093 89.4487 85.3358 84.6684 79.09C83.5754 77.6624 82.4512 76.1455 81.3158 74.6063C80.5886 73.6025 79.8502 72.5988 79.1431 71.5727C77.3363 68.9406 75.6053 66.2638 74.0126 63.7655C69.7744 57.1561 66.607 51.8805 66.607 51.8805C66.3594 51.5281 66.4463 51.0396 66.7988 50.792C67.1534 50.5444 67.6398 50.6314 67.8874 50.9861C67.8874 50.9861 71.7531 55.7752 76.511 62.03C78.3 64.39 80.2183 66.9329 82.0675 69.5205C82.7902 70.5466 83.484 71.5951 84.171 72.6212C85.235 74.2049 86.2656 75.7887 87.2315 77.3055C91.4474 83.9305 94.6059 89.217 94.6059 89.217Z" fill="#262625"/>
        <path fill-rule="evenodd" clip-rule="evenodd" d="M139.619 88.4554C139.867 88.8051 139.78 89.2918 139.425 89.5352C139.071 89.7937 138.585 89.7024 138.337 89.3526C138.337 89.3526 135.591 86.1743 132.233 81.9774C131.467 81.0195 130.686 80.0007 129.902 78.9516C129.397 78.2824 128.888 77.598 128.409 76.8833C127.183 75.0889 126.033 73.2491 124.98 71.5308C122.166 66.9461 120.123 63.2829 120.123 63.2829C119.876 62.9286 119.963 62.4404 120.316 62.1941C120.67 61.9462 121.158 62.0328 121.405 62.3871C121.405 62.3871 124.143 65.5653 127.476 69.782C128.726 71.3635 130.065 73.0818 131.333 74.8458C131.828 75.5451 132.295 76.2446 132.755 76.9593C133.471 78.0541 134.158 79.134 134.795 80.183C137.587 84.7755 139.619 88.4554 139.619 88.4554Z" fill="#262625"/>
        <path fill-rule="evenodd" clip-rule="evenodd" d="M36.6295 89.4954C36.8773 89.8452 36.7907 90.3316 36.4363 90.575C36.082 90.8335 35.5955 90.7424 35.3476 90.3927C35.3476 90.3927 32.6013 87.2144 29.2437 83.0174C28.4773 82.0596 27.6973 81.0407 26.9126 79.9914C26.4078 79.3225 25.8984 78.638 25.4194 77.9233C24.1937 76.129 23.0441 74.2891 21.9903 72.5708C19.1771 67.9861 17.1334 64.3229 17.1334 64.3229C16.8871 63.9686 16.9738 63.4805 17.3265 63.2342C17.6809 62.9863 18.169 63.0729 18.4153 63.4272C18.4153 63.4272 21.1539 66.6053 24.4871 70.822C25.7371 72.4035 27.0753 74.1218 28.3435 75.8857C28.8392 76.5852 29.3061 77.2846 29.7653 77.9993C30.4815 79.0941 31.1689 80.1738 31.806 81.2231C34.5979 85.8155 36.6295 89.4954 36.6295 89.4954Z" fill="#262625"/>
        <path fill-rule="evenodd" clip-rule="evenodd" d="M64.9683 129.744C65.2157 130.093 65.1288 130.588 64.7753 130.829C64.4218 131.083 63.9332 130.998 63.6859 130.636C63.6859 130.636 61.4408 128.187 58.7107 124.882C58.0906 124.134 57.4608 123.337 56.831 122.505C56.4269 121.974 56.0192 121.431 55.6404 120.876C54.6716 119.441 53.7788 117.969 52.9633 116.594C50.7796 112.909 49.2366 109.961 49.2366 109.961C48.9893 109.607 49.0762 109.12 49.4296 108.872C49.7831 108.625 50.2705 108.712 50.5178 109.066C50.5178 109.066 52.7545 111.529 55.4605 114.844C56.4727 116.087 57.5525 117.426 58.5635 118.838C58.9592 119.38 59.3248 119.948 59.6855 120.514C60.2465 121.383 60.7808 122.252 61.2731 123.096C63.4362 126.788 64.9683 129.744 64.9683 129.744Z" fill="#262625"/>
        <path fill-rule="evenodd" clip-rule="evenodd" d="M112.254 129.913C112.502 130.262 112.415 130.757 112.061 130.999C111.708 131.252 111.219 131.167 110.972 130.805C110.972 130.805 108.727 128.356 105.997 125.051C105.377 124.303 104.747 123.506 104.117 122.674C103.713 122.143 103.305 121.6 102.926 121.045C101.958 119.61 101.065 118.138 100.249 116.762C98.0658 113.078 96.5228 110.13 96.5228 110.13C96.2754 109.776 96.3623 109.289 96.7158 109.041C97.0692 108.794 97.5566 108.881 97.804 109.234C97.804 109.234 100.041 111.698 102.747 115.013C103.759 116.256 104.839 117.595 105.85 119.006C106.245 119.549 106.611 120.116 106.971 120.684C107.532 121.552 108.067 122.421 108.559 123.265C110.722 126.957 112.254 129.913 112.254 129.913Z" fill="#262625"/>
        <path fill-rule="evenodd" clip-rule="evenodd" d="M85.4043 50.3679C85.6452 50.011 86.1315 49.9174 86.4884 50.1583C86.8475 50.3992 86.9412 50.8855 86.698 51.2447C86.698 51.2447 83.6799 56.4888 79.6358 63.0804C78.7123 64.5905 77.7219 66.152 76.698 67.7358C76.04 68.7619 75.3753 69.7879 74.6793 70.814C72.8993 73.4016 71.0479 75.9223 69.3236 78.2644C64.7329 84.4879 60.9989 89.2393 60.9989 89.2393C60.758 89.5962 60.2716 89.6854 59.9147 89.4623C59.5556 89.217 59.462 88.7261 59.7029 88.3692C59.7029 88.3692 62.7342 83.1272 66.7985 76.5468C68.3264 74.0931 69.9883 71.4163 71.7237 68.8064C72.4041 67.7803 73.1134 66.7765 73.8161 65.7951C74.9068 64.2559 75.9932 62.7503 77.046 61.3294C81.659 55.1238 85.4043 50.3679 85.4043 50.3679Z" fill="#262625"/>
        <path fill-rule="evenodd" clip-rule="evenodd" d="M132.936 61.9691C133.177 61.6118 133.664 61.5174 134.021 61.7592C134.379 62.0009 134.473 62.4877 134.231 62.8451C134.231 62.8451 132.295 66.4869 129.622 71.0549C129.012 72.0935 128.354 73.1731 127.667 74.268C127.226 74.9675 126.778 75.6671 126.301 76.3666C125.08 78.1152 123.789 79.8182 122.582 81.3997C119.361 85.5815 116.712 88.7443 116.712 88.7443C116.47 89.1092 115.984 89.2005 115.626 88.9571C115.269 88.714 115.175 88.2273 115.416 87.8775C115.416 87.8775 117.364 84.2433 120.057 79.6814C121.067 77.9783 122.168 76.1536 123.346 74.3592C123.807 73.6598 124.298 72.9754 124.783 72.3064C125.539 71.2723 126.293 70.2565 127.032 69.303C130.276 65.1228 132.936 61.9691 132.936 61.9691Z" fill="#262625"/>
        <path fill-rule="evenodd" clip-rule="evenodd" d="M29.9462 63.0092C30.188 62.6518 30.6747 62.5574 31.032 62.7992C31.3894 63.041 31.4836 63.5275 31.2418 63.8849C31.2418 63.8849 29.3061 67.5269 26.6328 72.0949C26.023 73.1335 25.3646 74.2132 24.6773 75.308C24.2363 76.0075 23.7892 76.7071 23.3117 77.4064C22.0906 79.1553 20.7996 80.8582 19.5922 82.4398C16.3715 86.6215 13.7226 89.7843 13.7226 89.7843C13.4809 90.1493 12.9942 90.2405 12.6369 89.9972C12.2795 89.754 12.1853 89.2673 12.4271 88.9176C12.4271 88.9176 14.3749 85.2834 17.0679 80.7215C18.0776 79.0184 19.1787 77.1936 20.3572 75.3993C20.8179 74.6998 21.309 74.0155 21.7941 73.3464C22.5499 72.3124 23.3041 71.2965 24.0432 70.3431C27.2867 66.1629 29.9462 63.0092 29.9462 63.0092Z" fill="#262625"/>
        <path fill-rule="evenodd" clip-rule="evenodd" d="M59.399 108.736C59.6403 108.379 60.1277 108.285 60.4848 108.526C60.8419 108.769 60.936 109.255 60.6947 109.612C60.6947 109.612 59.2386 112.543 57.172 116.22C56.7015 117.052 56.19 117.909 55.6507 118.777C55.3057 119.344 54.9546 119.899 54.5746 120.454C53.5998 121.842 52.5576 123.181 51.5791 124.411C48.9636 127.717 46.7957 130.166 46.7957 130.166C46.5532 130.528 46.067 130.612 45.7099 130.371C45.3528 130.129 45.2587 129.647 45.5 129.285C45.5 129.285 46.967 126.366 49.0553 122.71C49.8358 121.335 50.6888 119.875 51.6201 118.451C51.9833 117.897 52.3778 117.366 52.7674 116.835C53.3755 116.007 53.9822 115.212 54.5818 114.464C57.2215 111.178 59.399 108.736 59.399 108.736Z" fill="#262625"/>
        <path fill-rule="evenodd" clip-rule="evenodd" d="M106.685 108.905C106.927 108.548 107.414 108.454 107.771 108.695C108.128 108.938 108.222 109.424 107.981 109.781C107.981 109.781 106.525 112.711 104.458 116.389C103.988 117.221 103.476 118.078 102.937 118.946C102.592 119.513 102.241 120.068 101.861 120.623C100.886 122.01 99.8437 123.35 98.8652 124.58C96.2497 127.886 94.0818 130.335 94.0818 130.335C93.8393 130.697 93.3532 130.781 92.9961 130.54C92.639 130.299 92.5448 129.816 92.7861 129.454C92.7861 129.454 94.2531 126.535 96.3414 122.879C97.1219 121.504 97.975 120.044 98.9063 118.62C99.2695 118.066 99.6639 117.535 100.054 117.004C100.662 116.176 101.268 115.381 101.868 114.633C104.508 111.347 106.685 108.905 106.685 108.905Z" fill="#262625"/>
        <path fill-rule="evenodd" clip-rule="evenodd" d="M67.2465 51.4321L75.7564 63.6091L47.8154 53.8612L67.2465 51.4321ZM62.3882 69.6096L76.3854 64.5236L76.5862 64.7913L60.3516 88.8154L62.3882 69.6096ZM77.6659 80.9635L77.619 66.2859L93.9652 89.663L77.6659 80.9635ZM92.9457 69.6096L77.6123 64.2561V64.0775L105.638 53.8612L92.9457 69.6096ZM86.0508 50.8051L77.6101 63.288L77.5097 33.1765L86.0508 50.8051Z" fill="#262625"/>
        <path fill-rule="evenodd" clip-rule="evenodd" d="M120.764 62.8344L126.565 71.1355L107.518 64.4904L120.764 62.8344ZM117.452 75.226L126.994 71.7589L127.131 71.9415L116.064 88.3186L117.452 75.226ZM127.867 82.966L127.835 72.9603L138.978 88.8966L127.867 82.966ZM138.283 75.226L127.83 71.5764V71.4548L146.935 64.4904L138.283 75.226ZM133.583 62.407L127.829 70.9166L127.76 50.3894L133.583 62.407Z" fill="#262625"/>
        <path fill-rule="evenodd" clip-rule="evenodd" d="M17.7746 63.8741L23.5758 72.1754L4.52832 65.5301L17.7746 63.8741ZM14.4626 76.2659L24.0046 72.7989L24.1414 72.9812L13.0743 89.3586L14.4626 76.2659ZM24.8774 84.0059L24.8455 74L35.9887 89.9365L24.8774 84.0059ZM35.2938 76.2659L24.8409 72.6163V72.4948L43.9461 65.5301L35.2938 76.2659ZM30.5935 63.4469L24.8394 71.9563L24.771 51.4293L30.5935 63.4469Z" fill="#262625"/>
        <path fill-rule="evenodd" clip-rule="evenodd" d="M49.8764 109.513L54.4788 116.099L39.3672 110.827L49.8764 109.513ZM47.2487 119.344L54.8191 116.594L54.9276 116.738L46.1473 129.731L47.2487 119.344ZM55.5115 125.485L55.4862 117.547L64.3269 130.19L55.5115 125.485ZM63.7755 119.344L55.4826 116.449V116.352L70.64 110.827L63.7755 119.344ZM60.0464 109.174L55.4814 115.925L55.4271 99.6398L60.0464 109.174Z" fill="#262625"/>
        <path fill-rule="evenodd" clip-rule="evenodd" d="M97.1634 109.682L101.766 116.268L86.6543 110.996L97.1634 109.682ZM94.5358 119.513L102.106 116.762L102.215 116.907L93.4343 129.901L94.5358 119.513ZM102.799 125.654L102.773 117.716L111.614 130.359L102.799 125.654ZM111.063 119.513L102.77 116.618V116.521L117.927 110.996L111.063 119.513ZM107.334 109.343L102.768 116.094L102.714 99.8087L107.334 109.343Z" fill="#262625"/>
        <path fill-rule="evenodd" clip-rule="evenodd" d="M75.5073 0.794279C75.5006 0.363765 75.8441 0.00673977 76.2746 4.78373e-05C76.7073 -0.00887474 77.062 0.33474 77.0709 0.767485C77.0709 0.767485 77.5528 3.4509 77.961 6.9597C78.0546 7.75604 78.126 8.58587 78.184 9.4402C78.2197 9.98671 78.2554 10.5399 78.2554 11.0931C78.2554 12.5141 78.1662 13.9261 78.0703 15.2377C77.8116 18.7554 77.4367 21.4567 77.4367 21.4567C77.4457 21.8872 77.1022 22.2442 76.6694 22.2531C76.2389 22.2598 75.882 21.9163 75.8753 21.4835C75.8753 21.4835 75.4047 18.7979 75.0232 15.2913C74.8805 13.9841 74.7399 12.5765 74.6886 11.1578C74.6685 10.6024 74.6864 10.0492 74.702 9.50272C74.7288 8.64616 74.7712 7.81404 74.8359 7.01547C75.1214 3.49551 75.5073 0.794279 75.5073 0.794279Z" fill="#262625"/>
        <path fill-rule="evenodd" clip-rule="evenodd" d="M119.486 7.41952C119.74 7.07154 120.229 6.99554 120.579 7.24983C120.927 7.50635 121.003 7.99495 120.746 8.34293C120.746 8.34293 119.285 11.0777 117.211 14.4972C116.74 15.2735 116.227 16.072 115.689 16.8795C115.344 17.397 114.993 17.9214 114.612 18.4233C113.639 19.7082 112.6 20.9349 111.625 22.0636C109.015 25.0906 106.861 27.3191 106.861 27.3191C106.606 27.6671 106.118 27.7429 105.77 27.4886C105.42 27.2343 105.344 26.7434 105.6 26.3955C105.6 26.3955 107.072 23.6675 109.167 20.2658C109.948 18.9943 110.802 17.6336 111.734 16.3175C112.098 15.8022 112.491 15.3092 112.879 14.8229C113.486 14.0645 114.09 13.335 114.69 12.6502C117.322 9.63884 119.486 7.41952 119.486 7.41952Z" fill="#262625"/>
        <path fill-rule="evenodd" clip-rule="evenodd" d="M138.143 31.0732C138.491 30.8189 138.98 30.8969 139.234 31.2449C139.488 31.5951 139.41 32.0837 139.062 32.338C139.062 32.338 137.889 33.7254 136.174 35.4073C135.79 35.7843 135.375 36.1567 134.938 36.527C134.659 36.7634 134.376 37.0022 134.07 37.2119C133.285 37.7517 132.46 38.2089 131.683 38.6282C129.575 39.7636 127.898 40.4663 127.898 40.4663C127.548 40.7206 127.059 40.6427 126.805 40.2947C126.551 39.9467 126.629 39.4559 126.977 39.2016C126.977 39.2016 128.161 37.823 129.89 36.1634C130.526 35.5545 131.215 34.9099 131.971 34.3277C132.263 34.1024 132.578 33.906 132.888 33.7119C133.376 33.4085 133.856 33.1298 134.333 32.88C136.461 31.7647 138.143 31.0732 138.143 31.0732Z" fill="#262625"/>
        <path fill-rule="evenodd" clip-rule="evenodd" d="M32.0453 7.40379C31.8378 7.02458 31.9738 6.54934 32.3508 6.33966C32.73 6.13221 33.2051 6.26831 33.4148 6.64529C33.4148 6.64529 35.2261 9.02326 37.3876 12.2175C37.8806 12.9425 38.3713 13.7143 38.8598 14.5129C39.1744 15.0237 39.4911 15.5411 39.7744 16.0787C40.5061 17.4505 41.1529 18.858 41.7418 20.1697C43.3211 23.6852 44.3829 26.478 44.3829 26.478C44.5925 26.8572 44.4565 27.3324 44.0773 27.5421C43.7004 27.7496 43.2229 27.6135 43.0155 27.2365C43.0155 27.2365 41.2131 24.8519 39.0761 21.6442C38.2776 20.4486 37.4299 19.1526 36.6537 17.8053C36.3526 17.2788 36.0805 16.7346 35.815 16.197C35.3979 15.3583 35.0075 14.533 34.6529 13.7322C33.0959 10.201 32.0453 7.40379 32.0453 7.40379Z" fill="#262625"/>
        <path fill-rule="evenodd" clip-rule="evenodd" d="M6.51765 31.129C6.13398 30.9327 5.98234 30.4619 6.17864 30.076C6.37493 29.6923 6.84559 29.5407 7.22926 29.737C7.22926 29.737 9.17662 30.2455 11.6682 31.1266C12.2281 31.3251 12.8013 31.5527 13.3835 31.8025C13.756 31.9631 14.1308 32.126 14.4922 32.3201C15.4179 32.822 16.2901 33.3973 17.0976 33.9439C19.2792 35.4205 20.8428 36.6899 20.8428 36.6899C21.2287 36.8862 21.3804 37.3569 21.1841 37.7405C20.9878 38.1264 20.5171 38.2782 20.1312 38.0819C20.1312 38.0819 18.1861 37.5598 15.7101 36.6564C14.7956 36.324 13.8185 35.9537 12.8705 35.4964C12.5002 35.3202 12.1478 35.1107 11.7998 34.9032C11.2555 34.5775 10.7358 34.2474 10.2473 33.9105C8.07242 32.4071 6.51765 31.129 6.51765 31.129Z" fill="#262625"/>
        <path fill-rule="evenodd" clip-rule="evenodd" d="M15.1414 112.639C15.4939 112.393 15.9823 112.483 16.2299 112.84C16.4798 113.197 16.3928 113.687 16.0403 113.933C16.0403 113.933 14.5034 115.539 12.3464 117.479C11.8601 117.925 11.3381 118.349 10.7916 118.795C10.4414 119.063 10.0867 119.353 9.71201 119.598C8.74614 120.245 7.74234 120.803 6.79878 121.316C4.2603 122.721 2.23042 123.636 2.23042 123.636C1.87798 123.881 1.38949 123.792 1.14189 123.435C0.89429 123.078 0.979022 122.587 1.33146 122.342C1.33146 122.342 2.87734 120.736 5.04775 118.84C5.85301 118.126 6.72742 117.368 7.66206 116.676C8.02566 116.409 8.40934 116.163 8.79078 115.94C9.38636 115.561 9.973 115.226 10.5507 114.914C13.1093 113.553 15.1414 112.639 15.1414 112.639Z" fill="#262625"/>
        <path fill-rule="evenodd" clip-rule="evenodd" d="M17.1871 157.541C16.9194 157.898 16.4287 157.943 16.0896 157.675C15.7483 157.408 15.688 156.917 15.9535 156.582C15.9535 156.582 17.7246 153.616 20.1872 149.913C20.7471 149.065 21.3539 148.195 21.9874 147.325C22.3934 146.745 22.8038 146.188 23.2454 145.63C24.3741 144.247 25.5653 142.886 26.6829 141.659C29.6652 138.358 32.1145 135.927 32.1145 135.927C32.38 135.592 32.8729 135.525 33.212 135.793C33.5511 136.06 33.6113 136.551 33.3459 136.886C33.3459 136.886 31.5635 139.852 29.083 143.533C28.1551 144.916 27.1424 146.411 26.0561 147.838C25.63 148.396 25.1773 148.931 24.7289 149.467C24.0307 150.292 23.3325 151.095 22.6499 151.831C19.643 155.11 17.1871 157.541 17.1871 157.541Z" fill="#262625"/>
        <path fill-rule="evenodd" clip-rule="evenodd" d="M64.4922 143.243C64.6082 142.819 65.0409 142.596 65.4558 142.708C65.873 142.819 66.1161 143.243 66.0001 143.667C66.0001 143.667 65.8463 145.808 65.4292 148.597C65.3355 149.244 65.2128 149.891 65.0722 150.537C64.9808 150.961 64.8871 151.407 64.76 151.809C64.4321 152.902 64.0215 153.928 63.629 154.909C62.5649 157.497 61.5924 159.438 61.5924 159.438C61.4764 159.839 61.0437 160.085 60.6288 159.973C60.2117 159.861 59.9707 159.438 60.0867 159.014C60.0867 159.014 60.2518 156.85 60.6935 154.084C60.8586 153.058 61.0482 151.943 61.3248 150.85C61.4341 150.426 61.5769 150.024 61.7196 149.601C61.9405 148.976 62.1724 148.351 62.4178 147.771C63.5086 145.161 64.4922 143.243 64.4922 143.243Z" fill="#262625"/>
        <path fill-rule="evenodd" clip-rule="evenodd" d="M116.198 138.091C115.969 137.734 116.078 137.243 116.442 137.02C116.807 136.774 117.291 136.886 117.521 137.265C117.521 137.265 119.669 139.853 122.266 143.31C122.857 144.091 123.452 144.939 124.048 145.786C124.432 146.344 124.818 146.924 125.175 147.504C126.085 148.998 126.917 150.515 127.677 151.943C129.712 155.757 131.135 158.813 131.135 158.813C131.365 159.17 131.255 159.661 130.892 159.884C130.526 160.107 130.044 159.995 129.812 159.638C129.812 159.638 127.675 157.051 125.101 153.571C124.14 152.277 123.113 150.872 122.159 149.4C121.786 148.82 121.445 148.24 121.106 147.66C120.579 146.745 120.08 145.853 119.622 144.983C117.61 141.146 116.198 138.091 116.198 138.091Z" fill="#262625"/>
        <path fill-rule="evenodd" clip-rule="evenodd" d="M134.297 109.984C133.958 109.717 133.902 109.226 134.17 108.891C134.438 108.557 134.928 108.49 135.268 108.758C135.268 108.758 138.553 110.81 142.658 113.62C143.592 114.245 144.556 114.936 145.528 115.65C146.155 116.119 146.787 116.587 147.398 117.078C148.957 118.349 150.458 119.688 151.839 120.937C155.528 124.26 158.283 126.982 158.283 126.982C158.622 127.249 158.678 127.74 158.41 128.075C158.143 128.409 157.652 128.476 157.313 128.209C157.313 128.209 154.032 126.134 149.947 123.324C148.417 122.253 146.775 121.115 145.183 119.888C144.56 119.398 143.96 118.885 143.369 118.394C142.446 117.613 141.554 116.832 140.717 116.052C137.043 112.706 134.297 109.984 134.297 109.984Z" fill="#262625"/>
    </g>
    <defs>
        <clipPath id="clip0_5838_906">
            <rect width="157.58" height="160" fill="white" transform="translate(1)"/>
        </clipPath>
    </defs>
</svg>
