<svg width="160" height="160" viewBox="0 0 160 160" fill="none" xmlns="http://www.w3.org/2000/svg">
    <g clip-path="url(#clip0_5838_1050)">
        <path fill-rule="evenodd" clip-rule="evenodd" d="M67.6432 37.5251C69.4403 39.378 72.5255 42.5704 74.9901 45.1689C76.8832 47.1625 78.4124 48.819 78.7584 49.2855C79.0643 49.6985 79.1223 50.1919 78.8053 50.7456C78.629 51.0536 78.1758 51.4778 77.3966 51.8796C75.3339 52.9445 70.3578 54.342 63.6538 54.6546C57.2668 54.9492 49.3015 54.2549 40.8161 51.3952C30.1763 47.7585 27.6023 42.0993 29.5401 37.0161C31.2122 32.6271 36.7419 28.2448 44.4594 25.3784C48.6229 23.8693 53.5722 22.9808 58.7804 22.6995C65.9198 22.311 73.548 23.0321 80.2519 24.6306C86.6657 26.1598 92.2356 28.5083 95.8008 31.4305C98.1604 33.3638 99.674 35.5605 100.114 37.9336C100.203 38.418 100.114 39.2708 98.9686 39.5789C98.4552 39.7151 97.2675 39.7865 95.6155 39.7531C88.82 39.6102 73.3158 38.0966 67.6432 37.5251ZM97.6314 38.4225C97.6314 38.4247 97.6314 38.4247 97.6314 38.4247V38.4225ZM76.5104 49.9084C75.8853 49.1561 74.7959 47.9193 73.5368 46.5039C69.9582 42.4811 65.0156 37.0652 65.0156 37.0652C64.7924 36.8286 64.7388 36.4781 64.8817 36.1856C65.0245 35.8932 65.3326 35.719 65.6563 35.748C65.6563 35.748 87.284 37.3777 95.6333 37.3152C96.2026 37.3107 96.7764 37.2795 97.2452 37.246C96.6491 35.8977 95.553 34.672 94.1086 33.5446C90.7488 30.9215 85.5249 28.9347 79.5666 27.6399C73.1215 26.2401 65.817 25.6954 58.9903 26.1508C54.1504 26.4745 49.5516 27.2961 45.6895 28.7315C42.1087 30.0375 39.0346 31.6806 36.7106 33.5045C34.8019 35.0024 33.4044 36.5986 32.7481 38.2595C31.9154 40.3625 32.4489 42.4945 34.5898 44.4434C36.1882 45.899 38.577 47.2428 41.8586 48.4305C48.3349 50.7924 54.5232 51.7903 59.8765 52.027C67.603 52.3685 73.5792 51.1384 76.1175 50.0513C76.238 49.9999 76.3787 49.953 76.5104 49.9084ZM76.8743 49.7655C76.9814 49.7097 77.0328 49.6539 76.977 49.5914C76.91 49.5155 76.8877 49.6472 76.8743 49.7655Z" fill="#262625"/>
        <path fill-rule="evenodd" clip-rule="evenodd" d="M77.763 71.2906C77.7809 71.3709 77.8032 71.4513 77.8144 71.4982C77.7987 71.4357 77.7831 71.3665 77.7675 71.2861C77.859 71.2124 77.8858 71.1432 77.8054 71.083C77.7563 71.045 77.7407 71.0696 77.7385 71.1254C77.5576 70.0359 77.4036 67.6919 77.3121 64.9326C77.1067 58.6751 77.1044 50.203 77.1044 50.203C77.091 49.7721 77.4304 49.4105 77.8612 49.3971C78.2943 49.3837 78.6537 49.723 78.6671 50.1561C78.6671 50.1561 79.1784 58.5747 79.7342 64.783C79.9887 67.6316 80.2366 69.9913 80.4732 70.7392C80.7322 71.5674 80.4352 72.6479 79.194 73.6346C77.9796 74.599 75.5864 75.6527 72.3672 76.4229C69.0498 77.2154 64.8239 77.7401 60.1625 77.6061C57.5573 77.5302 54.8203 77.2311 52.0298 76.6908C44.9396 75.1951 39.9435 73.2305 36.7756 71.2236C33.4583 69.1184 32.0161 66.8592 31.9023 65.0688L29.8797 39.9874C29.8328 39.5565 30.1431 39.1703 30.5717 39.1235C31.0026 39.0766 31.3888 39.3869 31.4357 39.8155C31.4357 39.8155 32.8332 49.8927 33.8199 57.2954C34.3155 61.0214 34.6995 64.0687 34.7821 64.8277C34.8334 65.321 35.1482 65.8233 35.6304 66.3703C36.5524 67.4151 38.1017 68.4576 40.285 69.4867C43.2519 70.8865 47.3507 72.1969 52.7219 73.1948C57.5752 74.1927 62.27 74.3356 66.3017 74.0499C70.9095 73.7239 74.6443 72.8444 76.6982 71.8152C77.0486 71.6388 77.5576 71.4535 77.763 71.2906ZM77.763 71.2906C77.7496 71.2281 77.7385 71.1678 77.7385 71.1254C77.7496 71.1812 77.7586 71.237 77.7675 71.2861C77.7675 71.2883 77.7653 71.2883 77.763 71.2906Z" fill="#262625"/>
        <path fill-rule="evenodd" clip-rule="evenodd" d="M97.9781 38.2507C98.0161 37.8221 98.3956 37.5028 98.8242 37.5385C99.2551 37.5742 99.5743 37.9537 99.5386 38.3846C99.5386 38.3846 99.5565 42.0793 99.465 46.4973C99.4292 48.252 99.3779 50.1093 99.2953 51.8953C99.2194 53.5026 99.1301 55.0453 99.0162 56.3825C98.7885 59.0168 98.5206 60.8518 98.5206 60.8518C98.4537 61.6242 97.8643 62.2515 97.0963 62.3631C97.0963 62.3631 93.8705 62.6958 90.0195 62.7114C87.6777 62.7204 85.1283 62.6042 82.9271 62.2962C82.494 62.2671 82.1681 61.8944 82.1971 61.4635C82.2239 61.0327 82.5989 60.7067 83.0298 60.7358C84.7398 60.7224 86.6396 60.5303 88.4836 60.316C91.196 60.0013 93.7454 59.5793 95.2434 59.3114C95.2813 58.5189 95.3484 57.3982 95.4577 56.0811C95.5694 54.7439 95.7435 53.208 95.9399 51.6095C96.1587 49.837 96.4222 47.9975 96.6833 46.2606C97.3397 41.8895 97.9781 38.2507 97.9781 38.2507Z" fill="#262625"/>
        <path fill-rule="evenodd" clip-rule="evenodd" d="M31.4402 53.7727C31.2326 53.3954 31.371 52.9199 31.7505 52.7123C32.1278 52.5024 32.6055 52.6431 32.8131 53.0204C34.829 56.2574 37.0414 58.3358 39.5752 58.9921C41.9661 59.615 44.5959 58.7935 47.6298 56.4874C48.3442 55.9851 49.3197 56.0967 49.9024 56.7463C51.2195 58.1862 52.5166 59.3449 53.7444 60.2803C55.2245 61.4054 56.6086 62.1867 57.9793 62.526C60.9082 63.2494 63.6028 62.0104 66.1947 58.9274C66.3956 58.6662 66.6947 58.501 67.0229 58.472C67.3488 58.4407 67.6748 58.5479 67.9181 58.7667C67.9181 58.7667 68.9829 59.836 70.6841 60.5772C71.6105 60.9835 72.7111 61.3161 73.939 61.3138C74.3698 61.2893 74.7404 61.6197 74.7649 62.0506C74.7895 62.4814 74.4591 62.852 74.0283 62.8766C72.5437 63.044 71.164 62.8007 69.9898 62.4323C68.9249 62.0952 68.0364 61.6398 67.4046 61.258C64.4333 65.0174 61.002 66.4283 57.2895 65.7631C55.4745 65.4371 53.5591 64.5732 51.608 63.1243C50.5141 62.3139 49.4157 61.2982 48.295 60.1039C44.6584 62.1421 41.504 62.5462 38.7804 61.5617C35.8604 60.5057 33.3913 57.8536 31.4402 53.7727Z" fill="#262625"/>
        <path fill-rule="evenodd" clip-rule="evenodd" d="M101.258 57.3044C100.878 57.0968 100.74 56.6191 100.947 56.2418C101.155 55.8623 101.631 55.7239 102.01 55.9315C109.527 59.865 111.388 66.944 108.649 73.7931C105.7 81.1691 97.2036 88.3285 84.3649 90.869C76.6943 92.3313 69.0594 93.1461 61.7884 93.1662C53.6199 93.1885 45.9136 92.2465 39.156 90.3913C27.5139 87.1945 18.669 81.2294 14.7712 72.6211C12.8893 68.4219 13.8381 64.0039 16.3942 60.2579C19.9348 55.0675 26.5138 51.2076 31.9654 51.221C32.3962 51.2143 32.7512 51.5604 32.7579 51.9935C32.7646 52.4243 32.4208 52.7793 31.9877 52.786C27.8599 52.9222 23.1205 55.5654 19.8969 59.2333C16.7804 62.7784 15.0592 67.3303 17.1108 71.525C20.8948 79.3408 29.2686 84.3995 40.0155 87.1498C46.5387 88.8197 53.9369 89.6033 61.7861 89.6077C68.8607 89.6144 76.3036 89.0251 83.7912 87.7213C95.5918 85.7546 103.602 79.5506 106.524 72.9024C109.091 67.0691 107.62 60.9433 101.258 57.3044Z" fill="#262625"/>
        <path fill-rule="evenodd" clip-rule="evenodd" d="M24.183 112.358C26.2234 114.267 29.2685 115.857 32.9542 117.205C35.9747 118.31 39.4215 119.221 43.1273 119.978C49.6728 121.317 57.0242 122.114 64.3198 122.3C75.29 122.581 86.1172 121.518 93.8035 118.757C98.5295 117.06 102.063 114.783 103.566 111.725C103.747 111.334 104.211 111.162 104.604 111.345C104.995 111.526 105.167 111.99 104.986 112.383C103.472 115.852 99.7417 118.667 94.5692 120.764C86.7535 123.931 75.6114 125.523 64.2796 125.525C56.763 125.528 49.1639 124.833 42.4174 123.476C38.5152 122.69 34.8986 121.663 31.7375 120.449C27.5495 118.837 24.1562 116.864 21.8947 114.622C21.6045 114.334 21.2228 113.738 20.8991 112.809C20.1356 110.624 19.2203 106.012 18.3519 100.544C16.2445 87.2927 14.2732 68.951 14.2732 68.951C14.2174 68.5224 14.521 68.1318 14.9496 68.0759C15.3783 68.0201 15.7689 68.3238 15.8247 68.7524C15.8247 68.7524 18.5528 86.9311 21.1089 100.058C21.955 104.398 22.7721 108.177 23.4864 110.532C23.7253 111.325 24.1115 112.198 24.183 112.358Z" fill="#262625"/>
        <path fill-rule="evenodd" clip-rule="evenodd" d="M17.6799 92.675C17.5392 92.2665 17.7535 91.82 18.162 91.6794C18.5706 91.5365 19.0171 91.753 19.1577 92.1616C21.0843 97.2337 25.6452 100.832 30.7195 102.263C35.6665 103.659 41.1404 102.949 45.0494 99.2206C45.4557 98.85 46.0205 98.7093 46.5519 98.8411C47.0854 98.975 47.514 99.3679 47.6971 99.8858C48.4606 101.962 50.2845 103.536 52.5236 104.694C54.6556 105.793 57.1894 106.48 59.7477 106.755C62.8776 107.092 66.0521 106.822 68.5747 105.75C70.3384 105 71.7894 103.891 72.5529 102.279C72.7873 101.759 73.2874 101.406 73.8589 101.361C74.4282 101.317 74.9796 101.585 75.2944 102.06C77.98 106.322 83.0811 107.985 87.8495 107.391C92.7274 106.784 97.3083 103.848 98.8487 98.7049C98.9603 98.2874 99.3912 98.0396 99.8064 98.1534C100.224 98.2651 100.472 98.6959 100.358 99.1134C98.9045 105.139 93.799 108.816 88.209 109.793C83.186 110.673 77.8081 109.309 74.1849 105.621C72.7628 107.405 70.6732 108.699 68.2109 109.492C65.5521 110.347 62.4467 110.613 59.3771 110.3C56.3611 109.994 53.3808 109.126 50.8939 107.786C48.6035 106.554 46.7282 104.915 45.5361 102.953C40.8993 106.027 35.1441 106.422 29.9716 104.677C24.3838 102.79 19.5082 98.466 17.6799 92.675Z" fill="#262625"/>
        <path fill-rule="evenodd" clip-rule="evenodd" d="M108.009 67.6228C108.055 67.1942 108.444 66.8839 108.873 66.933C109.301 66.9821 109.611 67.3683 109.562 67.7992C109.562 67.7992 109.404 73.0878 108.986 79.8454C108.89 81.388 108.765 83.0021 108.623 84.6496C108.529 85.7055 108.435 86.7771 108.303 87.842C107.968 90.5678 107.546 93.2779 107.142 95.7849C106.066 102.467 105.053 107.661 105.053 107.661C105.004 108.09 104.615 108.4 104.187 108.351C103.758 108.302 103.45 107.914 103.497 107.485C103.497 107.485 103.669 102.196 104.113 95.4434C104.278 92.9073 104.475 90.1726 104.756 87.4401C104.868 86.373 105.015 85.3082 105.16 84.2567C105.388 82.6203 105.627 81.0196 105.879 79.4926C106.979 72.8132 108.009 67.6228 108.009 67.6228Z" fill="#262625"/>
        <path fill-rule="evenodd" clip-rule="evenodd" d="M109.712 95.6643C109.33 95.4634 109.182 94.9901 109.383 94.6061C109.584 94.2244 110.058 94.0771 110.439 94.278C124.171 101.263 129.426 110.548 127.988 119.377C127.06 125.079 123.316 130.673 117.056 135.442C110.7 140.284 101.715 144.271 90.5216 146.693C79.154 149.082 68.5187 149.95 58.8278 149.506C39.4615 148.62 23.8746 142.751 13.6613 134.935C4.97046 128.285 0.148395 120.156 0.00328675 112.287C-0.139589 104.411 4.36992 96.689 14.6569 90.9115C15.0297 90.695 15.5097 90.8222 15.7263 91.195C15.9428 91.5701 15.8133 92.0478 15.4405 92.2643C6.08441 97.8432 1.93211 104.956 2.24019 112.22C2.54827 119.442 7.26761 126.706 15.3669 132.662C25.319 139.983 40.3723 145.195 58.9818 145.957C68.4138 146.343 78.7611 145.649 89.8362 143.387C100.55 141.266 109.182 137.627 115.337 133.138C121.066 128.961 124.638 124.072 125.606 118.958C127.138 110.865 122.177 102.435 109.712 95.6643Z" fill="#262625"/>
        <path fill-rule="evenodd" clip-rule="evenodd" d="M126.524 85.3415C126.569 85.221 126.604 85.1027 126.627 85.0514C126.598 85.1183 126.562 85.2165 126.524 85.3415C126.274 85.4264 126.133 85.5112 126.209 85.6184C126.328 85.7836 126.439 85.5693 126.52 85.3527C126.198 86.393 125.575 89.2706 125.196 92.1237C124.95 93.961 124.792 95.7871 124.941 97.1043C124.972 97.3655 124.957 97.7606 125.01 97.9481C124.986 97.9414 124.966 97.9347 124.95 97.928C124.97 97.937 124.99 97.9459 125.01 97.9548C125.037 98.0419 125.08 98.0843 125.149 98.0419C125.167 98.0307 125.169 98.0195 125.16 98.0106C126.118 98.3455 128.549 98.7875 131.449 99.2787C138.291 100.44 147.607 101.734 147.607 101.734C148.036 101.779 148.348 102.163 148.304 102.594C148.259 103.022 147.875 103.335 147.444 103.29C147.444 103.29 138.017 102.627 131.087 101.873C127.562 101.489 124.667 101.033 123.796 100.698C123.229 100.48 122.745 100.02 122.383 99.3166C121.91 98.3968 121.686 96.8163 121.7 94.9634C121.736 90.6012 122.999 84.5982 123.37 83.6806C123.488 83.3949 123.803 82.9149 124.513 82.5108C125.254 82.0889 126.908 81.4594 129.049 80.7874C130.75 80.2561 132.773 79.6801 134.864 79.1242C141.356 77.3963 148.493 75.7934 148.493 75.7934C148.953 75.6773 149.442 75.7957 149.802 76.106C149.802 76.106 152.155 78.2201 153.331 81.4683C154.005 83.3257 154.322 85.538 153.628 87.9267C153.353 88.8666 153.13 90.4918 152.947 92.1974C152.601 95.4188 152.409 98.9125 152.409 98.9125C152.4 99.3456 152.043 99.6872 151.612 99.6783C151.179 99.6693 150.837 99.3121 150.846 98.879C150.846 98.879 150.806 95.3295 150.954 92.0455C151.038 90.177 151.197 88.3977 151.436 87.3574C151.86 85.4978 151.503 83.8191 150.907 82.4238C150.194 80.7517 149.105 79.4881 148.451 78.8251C146.54 79.3609 141.285 80.841 136.28 82.3144C133.009 83.2766 129.844 84.2253 127.826 84.9553C127.377 85.1183 126.857 85.2299 126.524 85.3415ZM125.01 97.9481C125.066 97.966 125.138 97.9883 125.16 98.0106C125.104 97.9905 125.055 97.9726 125.01 97.9548C125.01 97.9526 125.01 97.9504 125.01 97.9481ZM126.524 85.3415C126.524 85.346 126.522 85.3505 126.52 85.3527C126.522 85.3505 126.522 85.346 126.524 85.3415Z" fill="#262625"/>
        <path fill-rule="evenodd" clip-rule="evenodd" d="M124.78 85.4085C124.354 85.3393 124.064 84.9375 124.131 84.5133C124.2 84.0847 124.602 83.7945 125.026 83.8637C125.026 83.8637 128.062 83.9106 132.105 84.1472C133.005 84.1986 133.944 84.2745 134.916 84.3705C135.529 84.4285 136.152 84.4888 136.777 84.5848C138.329 84.8214 139.887 85.1385 141.385 85.4443C144.075 85.9935 146.497 86.5828 148.261 86.8596C148.692 86.882 149.024 87.2503 149.002 87.6811C148.98 88.1142 148.612 88.4447 148.181 88.4223C146.361 88.5206 143.816 88.5875 141.015 88.4714C139.474 88.4067 137.869 88.3107 136.295 88.121C135.663 88.0451 135.041 87.9312 134.429 87.8196C133.467 87.641 132.536 87.449 131.654 87.2414C127.694 86.3082 124.78 85.4085 124.78 85.4085Z" fill="#262625"/>
        <path fill-rule="evenodd" clip-rule="evenodd" d="M151.77 93.1841C151.346 93.0971 151.074 92.6818 151.163 92.2599C151.25 91.8357 151.663 91.5656 152.087 91.6527C156.4 92.2264 158.948 94.5012 159.745 97.073C160.193 98.5263 160.044 100.118 159.349 101.694C158.898 102.714 158.175 103.717 157.182 104.663C156.282 105.518 155.146 106.333 153.748 107.01C152.186 107.769 150.288 108.371 148.067 108.744C145.97 109.099 143.586 109.249 140.894 109.139C138.746 109.052 136.422 108.791 133.886 108.351C133.458 108.307 133.145 107.923 133.19 107.494C133.234 107.063 133.618 106.751 134.047 106.795C136.527 106.878 138.775 106.791 140.84 106.619C143.321 106.414 145.488 106.027 147.393 105.541C148.922 105.15 150.254 104.668 151.426 104.154C152.837 103.538 153.985 102.857 154.885 102.107C158.637 98.9773 157.233 94.6687 151.77 93.1841Z" fill="#262625"/>
        <path fill-rule="evenodd" clip-rule="evenodd" d="M59.8969 32.2253C59.6022 31.9105 59.6156 31.4148 59.9282 31.1179C60.2429 30.821 60.7385 30.8344 61.0354 31.1492C63.2612 33.116 62.9352 36.6276 61.0577 38.9426C59.3589 41.0366 56.3674 42.0323 52.8446 40.416C51.3824 39.6347 50.3555 38.5118 49.8063 37.2147C48.9468 35.1899 49.1165 32.7923 50.1814 30.9751C51.7418 28.3073 55.0213 26.5548 59.0419 29.3364C59.4147 29.5508 59.5442 30.0307 59.3298 30.4036C59.1133 30.7786 58.6356 30.9081 58.2605 30.6915C55.4767 29.3811 53.5635 30.4906 52.8201 32.2855C52.3736 33.366 52.4317 34.6608 52.9764 35.7525C53.2822 36.3664 53.7711 36.9089 54.4899 37.2795C56.296 38.3488 57.9301 38.0095 58.9994 37.0183C60.3702 35.7503 61.0488 33.6853 59.8969 32.2253Z" fill="#262625"/>
        <path fill-rule="evenodd" clip-rule="evenodd" d="M56.2608 11.102C56.0844 10.7091 56.2608 10.2448 56.6559 10.0684C57.0488 9.89204 57.5132 10.0684 57.6895 10.4635C58.971 12.6312 60.0246 14.7654 60.7301 16.9778C61.0359 17.9288 61.248 18.8887 61.4021 19.8509C61.5047 20.5095 61.5806 21.168 61.5918 21.8288C61.6208 23.4965 61.4065 25.1507 60.9578 26.7647C60.3283 29.0418 59.2522 31.2028 57.7208 33.3169C57.5065 33.692 57.0287 33.8215 56.6537 33.6072C56.2786 33.3929 56.1491 32.9151 56.3635 32.5401C56.9751 31.118 57.3569 29.7227 57.6493 28.323C57.9463 26.892 58.049 25.4856 58.0735 24.068C58.0869 23.2197 58.0512 22.3758 58.0088 21.5252C57.9663 20.6747 57.9217 19.8241 57.8302 18.9602C57.7208 17.9288 57.5891 16.8929 57.3926 15.837C57.1024 14.2743 56.7608 12.7116 56.2608 11.102Z" fill="#262625"/>
        <path fill-rule="evenodd" clip-rule="evenodd" d="M94.4125 11.4471C94.4013 11.0162 94.7406 10.6545 95.1715 10.6411C95.6046 10.63 95.964 10.9693 95.9774 11.4002C95.9774 11.4002 96.4105 12.2173 96.8213 13.5054C96.9083 13.7777 96.973 14.0501 97.0244 14.3515C97.0556 14.5368 97.0891 14.7265 97.0847 14.9163C97.0713 15.4186 96.9708 15.8918 96.8659 16.3428C96.5623 17.6465 96.185 18.4926 96.185 18.4926C96.1984 18.9235 95.8591 19.2851 95.426 19.2985C94.9951 19.3097 94.6335 18.9704 94.6223 18.5395C94.6223 18.5395 94.1959 17.7157 93.8164 16.4321C93.6847 15.9878 93.5574 15.5213 93.515 15.0212C93.4994 14.8314 93.5217 14.6417 93.5418 14.4542C93.5753 14.1505 93.6244 13.8737 93.6936 13.5969C94.0285 12.2864 94.4125 11.4471 94.4125 11.4471Z" fill="#262625"/>
        <path fill-rule="evenodd" clip-rule="evenodd" d="M124.014 59.6794C124.003 59.2485 124.342 58.8868 124.773 58.8734C125.206 58.8623 125.566 59.2016 125.579 59.6325C125.579 59.6325 126.012 60.4496 126.423 61.7377C126.51 62.01 126.575 62.2824 126.626 62.5838C126.657 62.7691 126.691 62.9588 126.686 63.1486C126.673 63.6509 126.572 64.1241 126.467 64.5751C126.164 65.8788 125.787 66.7249 125.787 66.7249C125.8 67.1558 125.461 67.5174 125.028 67.5308C124.597 67.542 124.235 67.2027 124.224 66.7718C124.224 66.7718 123.797 65.9481 123.418 64.6644C123.286 64.2202 123.159 63.7536 123.117 63.2535C123.101 63.0637 123.123 62.874 123.143 62.6865C123.177 62.3828 123.226 62.1061 123.295 61.8292C123.63 60.5188 124.014 59.6794 124.014 59.6794Z" fill="#262625"/>
        <path fill-rule="evenodd" clip-rule="evenodd" d="M10.641 35.9982C10.6298 35.5673 10.9691 35.2057 11.4 35.1923C11.8331 35.1811 12.1925 35.5204 12.2059 35.9513C12.2059 35.9513 12.639 36.7684 13.0498 38.0565C13.1368 38.3289 13.2016 38.6012 13.2529 38.9026C13.2842 39.0879 13.3176 39.2776 13.3132 39.4674C13.2998 39.9697 13.1993 40.443 13.0944 40.8939C12.7908 42.1977 12.4135 43.0437 12.4135 43.0437C12.4269 43.4746 12.0876 43.8363 11.6545 43.8497C11.2236 43.8608 10.862 43.5215 10.8508 43.0906C10.8508 43.0906 10.4244 42.2669 10.0449 40.9832C9.91319 40.539 9.78595 40.0724 9.74353 39.5723C9.72791 39.3825 9.75023 39.1928 9.77032 39.0053C9.80381 38.7017 9.85293 38.4248 9.92214 38.148C10.257 36.8376 10.641 35.9982 10.641 35.9982Z" fill="#262625"/>
        <path fill-rule="evenodd" clip-rule="evenodd" d="M100.005 20.179C99.652 20.4268 99.1631 20.342 98.9153 19.9892C98.6675 19.6343 98.7523 19.1454 99.1073 18.8976C99.1073 18.8976 99.2546 18.2904 99.8462 17.4242C100.027 17.1585 100.223 16.8817 100.511 16.6875C100.806 16.4888 101.134 16.424 101.454 16.3437C102.449 16.0959 103.07 16.1182 103.07 16.1182C103.423 15.8704 103.911 15.9552 104.159 16.308C104.407 16.6629 104.322 17.1496 103.97 17.3974C103.97 17.3974 103.778 17.989 103.206 18.8395C103.023 19.1141 102.849 19.3999 102.563 19.6097C102.282 19.8151 101.956 19.9044 101.643 19.9848C100.628 20.2482 100.005 20.179 100.005 20.179Z" fill="#262625"/>
        <path fill-rule="evenodd" clip-rule="evenodd" d="M129.606 68.4115C129.254 68.6593 128.765 68.5745 128.517 68.2218C128.269 67.8668 128.354 67.3779 128.709 67.1301C128.709 67.1301 128.856 66.5229 129.448 65.6567C129.629 65.391 129.825 65.1142 130.113 64.92C130.408 64.7213 130.736 64.6566 131.055 64.5762C132.051 64.3284 132.671 64.3507 132.671 64.3507C133.024 64.1029 133.513 64.1877 133.761 64.5405C134.009 64.8954 133.924 65.3821 133.571 65.6299C133.571 65.6299 133.379 66.2215 132.808 67.0721C132.625 67.3467 132.45 67.6324 132.165 67.8422C131.883 68.0476 131.557 68.137 131.245 68.2173C130.229 68.4808 129.606 68.4115 129.606 68.4115Z" fill="#262625"/>
        <path fill-rule="evenodd" clip-rule="evenodd" d="M16.2332 44.7304C15.8805 44.9782 15.3916 44.8934 15.1438 44.5406C14.896 44.1857 14.9808 43.6967 15.3358 43.4489C15.3358 43.4489 15.4831 42.8418 16.0747 41.9756C16.2556 41.7099 16.452 41.4331 16.74 41.2389C17.0347 41.0402 17.3628 40.9754 17.6821 40.8951C18.6777 40.6473 19.2983 40.6696 19.2983 40.6696C19.6511 40.4218 20.14 40.5066 20.3878 40.8594C20.6356 41.2143 20.5507 41.701 20.198 41.9488C20.198 41.9488 20.006 42.5403 19.4345 43.3909C19.2515 43.6655 19.0773 43.9513 18.7916 44.1611C18.5103 44.3665 18.1844 44.4558 17.8718 44.5362C16.8561 44.7996 16.2332 44.7304 16.2332 44.7304Z" fill="#262625"/>
        <path fill-rule="evenodd" clip-rule="evenodd" d="M85.8689 20.1272C85.4399 20.0787 85.1298 19.6919 85.1765 19.2633C85.2233 18.8347 85.6091 18.5249 86.0379 18.5711C86.0379 18.5711 86.7965 18.2492 88.0171 18.0017C88.2688 17.9512 88.5183 17.9208 88.7932 17.907C88.9604 17.9003 89.1309 17.8914 89.3003 17.9204C89.7484 17.9965 90.1492 18.156 90.5328 18.3169C91.6654 18.7924 92.3439 19.2633 92.3439 19.2633C92.7727 19.3095 93.0829 19.6962 93.0361 20.1249C92.9894 20.5558 92.6036 20.8656 92.1746 20.8171C92.1746 20.8171 91.4121 21.1321 90.2001 21.3485C89.7892 21.4219 89.3642 21.4925 88.9123 21.4678C88.7408 21.4609 88.574 21.4162 88.4141 21.3718C88.1477 21.2984 87.9087 21.2149 87.6753 21.1115C86.5373 20.6044 85.8689 20.1272 85.8689 20.1272Z" fill="#262625"/>
        <path fill-rule="evenodd" clip-rule="evenodd" d="M115.47 68.3595C115.042 68.311 114.731 67.9242 114.778 67.4956C114.825 67.067 115.211 66.7572 115.639 66.8034C115.639 66.8034 116.398 66.4815 117.619 66.2341C117.87 66.1835 118.12 66.1531 118.395 66.1393C118.562 66.1326 118.732 66.1237 118.902 66.1527C119.35 66.2288 119.751 66.3882 120.134 66.5492C121.267 67.0247 121.945 67.4956 121.945 67.4956C122.374 67.5418 122.684 67.9286 122.638 68.3572C122.591 68.7881 122.205 69.0978 121.776 69.0494C121.776 69.0494 121.014 69.3644 119.802 69.5809C119.391 69.6542 118.966 69.7248 118.514 69.7001C118.342 69.6932 118.176 69.6486 118.016 69.6041C117.749 69.5307 117.51 69.4472 117.277 69.3438C116.139 68.8367 115.47 68.3595 115.47 68.3595Z" fill="#262625"/>
        <path fill-rule="evenodd" clip-rule="evenodd" d="M2.09738 44.6784C1.66846 44.63 1.35827 44.2432 1.40506 43.8146C1.45185 43.3859 1.83767 43.0762 2.26645 43.1224C2.26645 43.1224 3.02505 42.8005 4.24561 42.553C4.49734 42.5025 4.74684 42.472 5.02178 42.4583C5.18895 42.4516 5.35945 42.4427 5.52882 42.4717C5.97692 42.5478 6.37778 42.7072 6.76129 42.8682C7.89392 43.3437 8.57239 43.8146 8.57239 43.8146C9.00118 43.8608 9.31137 44.2476 9.26458 44.6762C9.21792 45.1071 8.83211 45.4168 8.40319 45.3684C8.40319 45.3684 7.64067 45.6834 6.42866 45.8999C6.01776 45.9732 5.59271 46.0437 5.14082 46.0191C4.96932 46.0124 4.80248 45.9675 4.64263 45.923C4.37626 45.8496 4.13718 45.7662 3.90385 45.6628C2.76578 45.1557 2.09738 44.6784 2.09738 44.6784Z" fill="#262625"/>
        <path fill-rule="evenodd" clip-rule="evenodd" d="M93.9887 22.4594C94.2427 22.1109 94.7341 22.0348 95.0825 22.2868C95.4305 22.5439 95.5086 23.0327 95.2546 23.3812C95.2546 23.3812 95.2441 24.1201 94.8839 25.2163C94.7672 25.5697 94.6373 25.9394 94.3927 26.2619C94.1478 26.5869 93.8222 26.8037 93.5154 27.0237C92.5948 27.6838 91.9148 27.9588 91.9148 27.9588C91.6608 28.3073 91.1692 28.3859 90.821 28.1314C90.4728 27.8768 90.3949 27.3855 90.6513 27.0367C90.6513 27.0367 90.7038 26.3066 91.0531 25.2265C91.1678 24.8683 91.2747 24.4906 91.5109 24.1563C91.7416 23.8301 92.0548 23.5918 92.3569 23.3722C93.2886 22.6935 93.9887 22.4594 93.9887 22.4594Z" fill="#262625"/>
        <path fill-rule="evenodd" clip-rule="evenodd" d="M123.59 70.6917C123.844 70.3432 124.336 70.2671 124.684 70.5191C125.032 70.7762 125.11 71.265 124.856 71.6136C124.856 71.6136 124.846 72.3523 124.485 73.4486C124.369 73.802 124.239 74.1717 123.994 74.4942C123.749 74.8193 123.424 75.036 123.117 75.256C122.196 75.9161 121.516 76.1911 121.516 76.1911C121.262 76.5397 120.771 76.6183 120.423 76.3637C120.074 76.1091 119.996 75.6179 120.253 75.2691C120.253 75.2691 120.305 74.5389 120.655 73.4588C120.769 73.1006 120.876 72.7229 121.112 72.3886C121.343 72.0624 121.656 71.8242 121.958 71.6046C122.89 70.9258 123.59 70.6917 123.59 70.6917Z" fill="#262625"/>
        <path fill-rule="evenodd" clip-rule="evenodd" d="M10.2172 47.0106C10.4712 46.662 10.9626 46.5859 11.311 46.838C11.659 47.0951 11.7371 47.5838 11.4831 47.9324C11.4831 47.9324 11.4726 48.6712 11.1124 49.7675C10.9958 50.1208 10.8658 50.4905 10.6212 50.813C10.3763 51.1381 10.0508 51.3548 9.74393 51.5749C8.82334 52.2349 8.14337 52.5099 8.14337 52.5099C7.88934 52.8585 7.39774 52.9371 7.04953 52.6825C6.70131 52.4279 6.62342 51.9367 6.87986 51.5879C6.87986 51.5879 6.93228 50.8577 7.28163 49.7776C7.39635 49.4194 7.50327 49.0417 7.7394 48.7075C7.9701 48.3812 8.28332 48.143 8.58539 47.9234C9.5171 47.2446 10.2172 47.0106 10.2172 47.0106Z" fill="#262625"/>
        <path fill-rule="evenodd" clip-rule="evenodd" d="M97.1008 23.3803C96.8485 23.0298 96.9244 22.5409 97.2749 22.2864C97.6232 22.0342 98.1143 22.1123 98.3666 22.4605C98.3666 22.4605 98.9961 22.6168 99.8824 23.2151C100.157 23.4004 100.443 23.5991 100.648 23.8938C100.856 24.1929 100.934 24.53 101.023 24.856C101.304 25.8628 101.304 26.5057 101.304 26.5057C101.559 26.854 101.481 27.3451 101.13 27.5974C100.782 27.8519 100.293 27.7738 100.039 27.4255C100.039 27.4255 99.427 27.2245 98.5563 26.6463C98.275 26.461 97.9781 26.2825 97.7593 25.9922C97.5428 25.7043 97.4424 25.3716 97.3508 25.0524C97.0562 24.0255 97.1008 23.3803 97.1008 23.3803Z" fill="#262625"/>
        <path fill-rule="evenodd" clip-rule="evenodd" d="M126.702 71.6128C126.45 71.2623 126.526 70.7733 126.876 70.5188C127.225 70.2666 127.716 70.3447 127.968 70.693C127.968 70.693 128.598 70.8493 129.484 71.4476C129.759 71.6329 130.044 71.8315 130.25 72.1262C130.457 72.4253 130.535 72.7624 130.625 73.0884C130.906 74.0952 130.906 74.7382 130.906 74.7382C131.16 75.0864 131.082 75.5775 130.732 75.8298C130.384 76.0843 129.895 76.0062 129.64 75.6579C129.64 75.6579 129.029 75.457 128.158 74.8788C127.877 74.6935 127.58 74.5149 127.361 74.2247C127.144 73.9367 127.044 73.6041 126.952 73.2849C126.658 72.2579 126.702 71.6128 126.702 71.6128Z" fill="#262625"/>
        <path fill-rule="evenodd" clip-rule="evenodd" d="M13.3283 47.9316C13.0761 47.5811 13.1519 47.0922 13.5024 46.8377C13.8507 46.5854 14.3418 46.6636 14.5941 47.0118C14.5941 47.0118 15.2237 47.1681 16.1099 47.7664C16.3845 47.9517 16.6703 48.1504 16.8756 48.445C17.0833 48.7442 17.1614 49.0813 17.2507 49.4072C17.532 50.4141 17.532 51.057 17.532 51.057C17.7865 51.4052 17.7083 51.8963 17.3578 52.1486C17.0096 52.4031 16.5207 52.325 16.2662 51.9768C16.2662 51.9768 15.6545 51.7758 14.7839 51.1976C14.5026 51.0124 14.2057 50.8337 13.9869 50.5435C13.7703 50.2555 13.6699 49.9229 13.5784 49.6037C13.2837 48.5767 13.3283 47.9316 13.3283 47.9316Z" fill="#262625"/>
    </g>
    <defs>
        <clipPath id="clip0_5838_1050">
            <rect width="160" height="139.618" fill="white" transform="translate(0 10)"/>
        </clipPath>
    </defs>
</svg>
