<svg width="160" height="160" viewBox="0 0 160 160" fill="none" xmlns="http://www.w3.org/2000/svg">
    <g clip-path="url(#clip0_5838_1096)">
        <path fill-rule="evenodd" clip-rule="evenodd" d="M87.1598 36.7225C86.9984 37.2017 86.4939 37.4285 86.0349 37.2771C85.5733 37.1006 85.3312 36.5962 85.4926 36.1422C86.3224 33.5947 86.6251 30.9462 86.3224 28.1214C86.0576 25.6244 85.311 23.0265 84.0499 20.3026C83.7901 19.6972 84.0297 19.0165 84.5972 18.7139C85.1647 18.4112 85.8709 18.5876 86.219 19.1425C93.1802 29.5339 101.211 35.0072 109.673 32.9894C112.906 32.2328 116.16 30.3411 119.441 27.3145C123.043 23.96 126.647 19.2689 130.191 13.0138C130.71 12.1058 131.838 11.7525 132.786 12.1813C133.732 12.6101 134.189 13.7198 133.835 14.7035C131.2 21.8918 129.722 27.6172 129.5 31.9554C129.359 34.7298 129.699 36.8735 130.776 38.3111C131.898 39.8497 133.78 40.5056 136.38 40.556C140.507 40.6064 146.192 39.1438 153.551 36.218C154.139 35.9658 154.82 36.1422 155.219 36.6466C155.62 37.151 155.645 37.8574 155.282 38.3619C152.487 42.2461 151.138 45.5249 151.218 48.1985C151.319 51.5278 153.708 53.7975 157.857 55.0586C158.182 55.1595 158.439 55.4115 158.54 55.7394C158.644 56.0673 158.576 56.4207 158.361 56.6729C157.668 57.5053 157.153 58.287 156.866 59.0941C156.555 59.9769 156.5 60.8343 156.762 61.6666C156.916 62.1458 156.666 62.625 156.205 62.8016C155.741 62.9529 155.241 62.701 155.085 62.2218C154.737 61.2381 154.681 60.2544 154.883 59.2203C155.05 58.3627 155.41 57.4798 155.952 56.5971C151.463 55.0333 149.027 52.1835 148.769 48.3246C148.621 46.105 149.236 43.4816 150.722 40.4801C144.792 42.7753 140.027 43.9356 136.378 43.9861C132.413 44.0365 129.628 42.8009 127.863 40.5309C126.324 38.5383 125.553 35.6375 125.686 31.7786C125.752 29.9121 126.034 27.7938 126.526 25.3977C125.023 27.2137 123.515 28.7771 122.009 30.1391C118.122 33.5945 114.233 35.6375 110.44 36.4446C105.925 37.3778 101.519 36.5961 97.3444 34.2756C94.1765 32.4849 91.1297 29.8114 88.2721 26.3056C88.3452 26.8605 88.4007 27.3902 88.436 27.9199C88.6403 31.0474 88.1914 33.9733 87.1598 36.7225Z" fill="#262625"/>
        <path fill-rule="evenodd" clip-rule="evenodd" d="M150.792 63.8104C150.409 63.5077 150.343 62.9532 150.648 62.5749C150.951 62.1713 151.506 62.1205 151.889 62.4231C156.174 65.6011 158.593 71.226 159.539 76.8253C160.268 81.113 160.094 85.3753 159.292 88.4776C158.651 90.9494 157.504 92.7148 156.232 93.5471C151.924 96.2711 144.817 96.8259 138.176 95.59C134.375 94.8838 130.743 93.5723 127.908 91.9328C125.222 90.3439 123.237 88.4271 122.296 86.3589C121.6 84.8203 121.345 82.5253 121.749 79.877C122.342 75.9676 124.253 71.2512 127.621 67.4932C131.558 63.1298 137.419 60.0022 145.336 61.0616C145.821 61.112 146.174 61.5656 146.123 62.0448C146.07 62.524 145.634 62.8775 145.15 62.8271C138.095 62.2974 133.061 65.2985 129.79 69.3592C127.477 72.2093 126.064 75.6143 125.449 78.6662C124.937 81.1884 124.957 83.4334 125.633 84.7702C126.352 86.2331 127.906 87.4433 129.845 88.5279C132.375 89.9403 135.588 90.9998 138.933 91.6304C142.181 92.2609 145.553 92.5129 148.567 92.1851C150.774 91.9581 152.787 91.4286 154.361 90.4954C155.115 90.0666 155.632 88.9569 156.071 87.5697C156.918 84.8458 157.239 81.0626 156.812 77.2036C156.253 72.134 154.464 66.9127 150.792 63.8104Z" fill="#262625"/>
        <path fill-rule="evenodd" clip-rule="evenodd" d="M132.115 80.6339C131.689 80.4069 131.54 79.8518 131.779 79.4482C132.019 79.0194 132.559 78.8685 132.985 79.0955C132.985 79.0955 135.099 79.9025 138.37 80.76C139.467 81.0627 140.685 81.3403 141.999 81.6177C142.958 81.8195 143.967 81.9956 145.006 82.2226C145.977 82.3992 146.973 82.6013 147.995 82.7778C149.631 83.0552 151.304 83.282 153.031 83.3325C154.724 83.3829 156.416 83.3579 158.139 83.03C158.605 82.9039 159.1 83.1562 159.238 83.6355C159.38 84.0894 159.115 84.5936 158.646 84.7197C155.955 85.8547 153.175 86.4349 150.408 86.5862C148.471 86.6871 146.567 86.586 144.769 86.2581C144.014 86.132 143.286 85.9555 142.579 85.7537C141.452 85.4258 140.39 85.0731 139.412 84.6443C134.937 82.7779 132.115 80.6339 132.115 80.6339Z" fill="#262625"/>
        <path fill-rule="evenodd" clip-rule="evenodd" d="M81.2551 63.6592C81.5275 63.7601 82.0092 63.9366 82.4354 64.0375C84.6726 64.542 88.3626 64.9203 92.0904 65.1725C97.5913 65.5761 103.17 65.7525 104.479 65.8282C105.234 65.8534 105.698 65.45 106.008 64.9203C106.742 63.634 106.86 61.7676 107.077 60.7335C107.145 60.4309 107.312 60.103 107.637 59.8508C108.008 59.5229 108.679 59.2204 109.514 59.0439C111.103 58.6655 113.33 58.5391 114.495 58.7409C115.582 58.9427 116.427 59.4471 117.012 60.1281C117.623 60.8596 117.968 61.7675 117.988 62.8016C118.003 63.2808 117.62 63.7099 117.133 63.7099C116.646 63.7352 116.238 63.3567 116.22 62.8523C116.195 62.2722 115.996 61.7425 115.635 61.339C115.294 60.9606 114.805 60.7083 114.192 60.6074C112.919 60.4309 110.119 60.7084 109.07 61.339C108.865 62.5496 108.689 64.5675 107.922 65.9799C107.236 67.2662 106.139 68.1234 104.394 68.0982C102.436 68.0225 91.0109 67.9722 84.4053 67.1903C82.042 66.9128 80.2437 66.4591 79.482 65.9799C78.9346 65.6268 78.6698 65.1976 78.5538 64.8193C78.1628 63.533 78.6421 61.5405 78.5992 60.0271C78.5916 59.8254 78.579 59.6237 78.5059 59.4976C78.4756 59.4219 78.3848 59.4725 78.2814 59.4725C76.4805 59.3211 74.8184 59.3465 73.5649 59.5483C73.2219 59.5988 72.7679 59.6491 72.4702 59.6995C72.6064 61.1876 73.3606 66.1561 72.8738 72.512C72.5636 76.5727 71.7514 81.1379 70.0111 85.7535C66.6768 94.556 63.8166 100.458 61.4458 104.494C58.1846 110.043 55.8061 112.187 54.3887 113.448C54.0103 113.776 53.2814 114.078 53.5311 114.255C53.569 114.28 53.5765 114.179 53.579 114.129C53.5437 115.768 53.4328 120.812 53.4504 125.252C53.4605 127.547 53.4983 129.665 53.6169 131.027C53.6194 131.053 53.6219 131.078 53.6245 131.128C54.2676 131.229 55.2235 131.381 56.1567 131.507C63.693 132.39 80.3168 133.424 93.3288 134.004C100.368 134.307 106.346 134.483 109.241 134.432C109.935 134.407 110.399 134.407 110.576 134.357C112.076 133.852 112.956 134.054 115.736 130.347C117.746 127.648 120.634 123.133 125.141 115.415C125.295 115.138 125.656 114.759 126.183 114.28C127.537 113.069 130.251 110.749 131.073 106.285C131.757 102.577 131.157 97.4567 127.633 90.3694C127.411 89.9154 127.585 89.3859 128.019 89.1841C128.453 88.9571 128.985 89.1337 129.207 89.5624C133.197 97.1038 133.883 102.653 133.242 106.663C132.549 111.001 130.307 113.675 128.685 115.264C128.009 115.945 127.439 116.348 127.288 116.626C122.881 124.596 120.044 129.262 118.059 132.036C114.626 136.854 113.453 136.551 111.557 137.232C110.908 137.459 107.572 137.585 102.739 137.56C94.1132 137.484 80.4505 137.03 69.431 136.425C62.21 136.021 56.1164 135.542 53.2688 135.113C52.2019 134.937 51.4831 134.735 51.1553 134.559C50.5121 134.256 50.2296 133.827 50.0884 133.525C49.7882 132.869 49.5133 130.321 49.4553 127.143C49.3645 122.326 49.5158 115.945 49.5562 114.028C49.5789 113.019 49.8992 112.287 50.5701 111.531C51.5689 110.396 54.081 109.11 58.061 102.476C60.394 98.5917 63.234 92.9168 66.5683 84.4422C68.2456 80.1797 69.0527 75.9676 69.4058 72.2095C70.059 65.2987 69.1914 60.0272 69.2267 59.2454C69.2646 58.3374 69.9052 57.3036 71.4715 56.7739C72.9722 56.2947 75.6255 56.1179 78.5815 56.4458C80.4101 56.6476 81.1844 57.6061 81.4669 58.9429C81.6536 59.8004 81.5426 60.91 81.3963 62.0198C81.3206 62.5999 81.2147 63.18 81.2551 63.6592ZM72.4021 59.7247C72.2105 59.7751 72.1096 59.8509 72.1878 59.9518C72.2836 60.0779 72.3568 59.9264 72.4021 59.7247Z" fill="#262625"/>
        <path fill-rule="evenodd" clip-rule="evenodd" d="M120.548 64.492C120.51 64.6181 120.437 64.82 120.387 64.9713C120.14 65.8037 119.86 67.1149 119.534 68.83C119.045 71.4027 118.5 74.8331 117.905 78.8434C117.446 81.9205 116.979 85.3255 116.472 88.9322C116.016 92.1606 115.542 95.5656 115.057 99.021C114.346 104.065 113.62 109.185 113.03 114.154C112.038 122.452 111.342 130.17 111.471 135.82C111.499 136.299 111.125 136.728 110.639 136.753C110.152 136.778 109.733 136.4 109.705 135.921C109.183 130.196 109.251 122.326 109.778 113.852C110.074 109.06 110.495 104.116 111.05 99.2225C111.4 96.1454 111.809 93.0935 112.258 90.1426C112.74 86.9646 113.274 83.9383 113.806 81.1134C114.964 74.9845 116.134 69.9149 117.007 66.7369C117.64 64.4417 118.243 63.0544 118.566 62.7265C119.01 62.2725 119.582 61.9952 120.296 61.9447C121.075 61.8943 122.074 62.0956 123.134 62.5496C126.168 63.8612 129.938 66.9384 129.938 66.9384C130.327 67.241 130.405 67.796 130.11 68.1743C129.815 68.5779 129.26 68.6534 128.871 68.3507C128.871 68.3507 126.591 66.7621 124.198 65.6019C123.209 65.1227 122.205 64.7188 121.353 64.5423C121.128 64.4918 120.916 64.4669 120.725 64.4669C120.672 64.4669 120.604 64.492 120.548 64.492ZM120.488 64.5172C120.465 64.5172 120.452 64.5423 120.452 64.5423C120.452 64.5423 120.473 64.5172 120.488 64.5172Z" fill="#262625"/>
        <path fill-rule="evenodd" clip-rule="evenodd" d="M122.473 64.1386C122.357 63.6846 122.647 63.2056 123.119 63.0795C123.593 62.9534 124.072 63.2559 124.191 63.7351C124.191 63.7351 124.94 64.8446 125.752 66.711C125.921 67.1146 126.062 67.5181 126.196 67.9721C126.276 68.2496 126.357 68.5271 126.395 68.8298C126.488 69.5612 126.486 70.2928 126.438 71.0495C126.36 72.2602 126.148 73.3448 125.908 74.4293C125.926 74.9086 125.545 75.3372 125.058 75.3372C124.569 75.3625 124.16 74.9839 124.14 74.5047C123.84 73.5211 123.391 72.5878 123.023 71.5032C122.793 70.8222 122.541 70.1921 122.42 69.5111C122.286 68.7796 122.289 68.0732 122.286 67.4174C122.279 65.4501 122.473 64.1386 122.473 64.1386Z" fill="#262625"/>
        <path fill-rule="evenodd" clip-rule="evenodd" d="M123.333 63.9365C123.333 63.9365 124.856 70.091 125.023 74.4544C123.179 78.8682 122.871 83.282 123.966 85.5772C124.743 87.2166 126.332 88.7048 128.42 89.9659C138.123 108.883 127.081 114.482 126.213 116.02C114.816 136.097 113.857 134.836 111.065 135.794C110.969 135.82 110.808 135.845 110.588 135.87C109.398 115.037 117.666 65.6518 119.535 63.6341C120.213 62.8774 121.709 63.2051 123.333 63.9365Z" fill="#262625"/>
        <path fill-rule="evenodd" clip-rule="evenodd" d="M51.5386 115.138C51.0493 115.113 50.666 114.709 50.6811 114.23C50.6937 113.726 51.1023 113.347 51.5891 113.372C51.5891 113.372 59.4608 113.095 69.5143 112.994C71.8145 112.969 74.2232 112.994 76.6798 113.019C78.2612 113.019 79.8578 113.045 81.4543 113.095C85.5352 113.246 89.6086 113.499 93.3792 113.751C103.412 114.381 111.257 115.088 111.257 115.088C111.743 115.113 112.127 115.516 112.114 115.996C112.099 116.5 111.693 116.878 111.204 116.853C111.204 116.853 103.332 117.105 93.2809 117.181C89.5027 117.206 85.4217 117.231 81.3383 117.131C79.7418 117.105 78.1452 117.029 76.5663 116.954C74.1122 116.828 71.7061 116.702 69.4134 116.525C59.3801 115.844 51.5386 115.138 51.5386 115.138Z" fill="#262625"/>
        <path fill-rule="evenodd" clip-rule="evenodd" d="M55.1374 54.3526C54.6607 54.2517 54.3631 53.7726 54.4715 53.3186C54.58 52.8394 55.0541 52.5369 55.5308 52.6378C55.5308 52.6378 56.8701 52.7387 58.9232 53.2684C59.8993 53.5206 60.999 53.8482 62.1894 54.3526C63.0041 54.7057 63.8339 55.1349 64.6687 55.6393C65.1908 55.942 65.7154 56.2949 66.2098 56.6984C67.3751 57.6569 68.4621 58.8173 69.3928 60.1793C70.6489 61.9952 71.6073 64.0884 72.1672 66.5601C72.3337 67.0141 72.0991 67.5186 71.6401 67.6951C71.1835 67.8464 70.6741 67.6195 70.5076 67.1656C69.8291 65.8792 69.0044 64.8201 68.1468 63.8365C67.2464 62.7771 66.2552 61.8943 65.269 61.0872C64.6435 60.5575 64.0104 60.0781 63.4001 59.6241C62.7418 59.1196 62.1163 58.6155 61.4933 58.1615C60.6282 57.5562 59.8287 56.9761 59.067 56.5221C56.7894 55.0844 55.1374 54.3526 55.1374 54.3526Z" fill="#262625"/>
        <path fill-rule="evenodd" clip-rule="evenodd" d="M70.5002 73.6978C70.9315 73.4456 71.4662 73.6223 71.6982 74.051C71.9277 74.4798 71.7663 75.0093 71.335 75.2363C71.335 75.2363 63.6726 79.9023 56.3128 83.1812C54.0429 84.1901 51.7956 85.0474 49.8157 85.6275C47.8332 86.2076 46.0803 86.4602 44.7713 86.4098C42.809 86.2837 41.0788 85.2744 39.7421 83.4837C37.974 81.0876 36.8617 77.2037 36.6271 72.9412C36.4254 69.2335 36.8466 65.2482 37.8908 61.7928C39.2124 57.4041 41.5076 53.8984 44.678 52.6877C45.1244 52.486 45.6465 52.7132 45.8407 53.1419C46.0349 53.5959 45.8306 54.1255 45.3842 54.302C43.6313 55.1848 42.4004 57.0007 41.5152 59.2454C40.3903 62.1208 39.9438 65.7026 39.9918 69.2589C40.0422 72.8404 40.6627 76.3714 41.8027 78.9944C42.2239 79.9781 42.7132 80.8102 43.2933 81.4408C43.7977 81.9957 44.3551 82.3992 45.0361 82.4497C46.0173 82.5253 47.3313 82.2983 48.8396 81.9452C50.7237 81.5164 52.8701 80.8102 55.0694 80.0536C62.5351 77.4053 70.5002 73.6978 70.5002 73.6978Z" fill="#262625"/>
        <path fill-rule="evenodd" clip-rule="evenodd" d="M63.8543 66.0556C64.2882 65.8538 64.8204 66.0303 65.0423 66.459C65.2618 66.8878 65.0877 67.4178 64.6539 67.6448C64.6539 67.6448 61.7332 69.6626 57.6548 72.0335C56.7418 72.5631 55.7682 73.0926 54.7543 73.5971C54.1086 73.9249 53.4529 74.253 52.7719 74.5557C51.0669 75.2871 49.3013 75.8924 47.5938 76.4473C44.4234 77.4814 41.4926 78.137 39.4169 78.3892C38.9427 78.4901 38.4685 78.1875 38.3601 77.7336C38.2516 77.2543 38.5518 76.7748 39.0259 76.6739C40.9151 76.0182 43.4498 74.6814 46.2898 73.269C47.8561 72.4619 49.4829 71.6295 51.1274 70.8729C51.7857 70.5702 52.4566 70.2932 53.1174 70.0157C54.1591 69.587 55.173 69.1831 56.1491 68.83C60.5251 67.2158 63.8543 66.0556 63.8543 66.0556Z" fill="#262625"/>
        <path fill-rule="evenodd" clip-rule="evenodd" d="M49.5507 52.6121C49.0766 52.7383 48.5998 52.4352 48.4863 51.956C48.3703 51.4768 48.6629 50.9977 49.1371 50.8969C49.1371 50.8969 55.8259 48.9547 72.3009 48.652C76.7248 48.5763 81.8524 48.6017 87.7468 48.8791C91.3106 49.0556 95.157 49.3077 99.2883 49.686C102.895 50.0391 106.719 50.4932 110.772 51.0481C116.084 51.7543 121.779 52.6371 127.89 53.6964C133.242 54.6296 138.897 55.7395 144.889 56.9501C145.371 57.0258 145.694 57.4798 145.613 57.959C145.53 58.4634 145.074 58.7662 144.592 58.6905C135.921 57.4799 127.95 56.5468 120.629 55.7649C114.901 55.1343 109.579 54.6296 104.638 54.2008C100.865 53.8477 97.3134 53.5704 93.9791 53.2929C87.9712 52.7885 82.6645 52.4102 77.9909 52.1579C57.7403 51.0734 49.5507 52.6121 49.5507 52.6121Z" fill="#262625"/>
        <path fill-rule="evenodd" clip-rule="evenodd" d="M80.0093 61.5913C79.5225 61.5661 79.1492 61.1371 79.1795 60.6578C79.2072 60.1786 79.6259 59.8006 80.1127 59.8258C80.1127 59.8258 83.7749 59.5485 88.5065 59.4224C89.581 59.3971 90.7059 59.3971 91.8535 59.4224C92.5925 59.4476 93.3365 59.4473 94.0805 59.4977C95.9848 59.6491 97.8739 59.8761 99.6243 60.1283C104.311 60.7588 107.917 61.4401 107.917 61.4401C108.407 61.4653 108.777 61.8939 108.75 62.3731C108.722 62.8776 108.303 63.2309 107.816 63.2057C107.816 63.2057 104.152 63.4827 99.4251 63.5584C97.657 63.5836 95.7553 63.6089 93.846 63.5332C93.102 63.508 92.3579 63.4326 91.6239 63.3569C90.4814 63.2308 89.3641 63.1048 88.2997 62.9534C83.6135 62.2977 80.0093 61.5913 80.0093 61.5913Z" fill="#262625"/>
        <path fill-rule="evenodd" clip-rule="evenodd" d="M107.866 62.3227C107.544 64.3657 106.948 67.0388 104.436 66.9631C101.712 66.837 80.541 66.5345 79.9332 64.4158C79.6431 63.4069 79.9634 61.9695 80.0618 60.7084L107.866 62.3227Z" fill="#262625"/>
        <path fill-rule="evenodd" clip-rule="evenodd" d="M102.058 78.2378C102.416 78.5657 102.439 79.1207 102.108 79.4738C101.775 79.8269 101.218 79.8519 100.857 79.524C96.6377 75.8668 90.8039 75.4126 85.6258 76.926C80.3595 78.4393 75.7187 82.0712 74.4248 86.7625C72.8055 92.3618 74.0238 97.3308 77.1765 100.685C80.2511 103.964 85.1239 105.704 91.0486 104.922C96.3906 104.267 100.333 100.937 102.353 96.5991C104.416 92.1852 104.555 86.7374 102.194 81.8191C101.97 81.3903 102.141 80.8609 102.572 80.6339C103.006 80.4069 103.541 80.5834 103.765 81.0122C106.762 86.3845 106.923 92.5638 104.87 97.6838C102.699 103.107 98.0224 107.319 91.5656 108.429C84.2336 109.614 78.0845 107.496 74.2482 103.46C70.2153 99.1972 68.6818 92.7655 70.8836 85.7034C72.7374 80.0537 78.3998 75.6649 84.9045 74.1515C90.8997 72.7643 97.5155 73.7735 102.058 78.2378Z" fill="#262625"/>
        <path fill-rule="evenodd" clip-rule="evenodd" d="M92.5284 85.7242C92.6441 85.8052 92.7418 85.9109 92.8108 86.0478C93.8294 87.5412 93.9159 89.3271 93.4393 90.8765C92.8967 92.6438 91.4139 93.9314 89.4041 94.4356C87.0714 94.9146 85.0747 94.2178 83.8346 92.9297C82.503 91.5422 81.984 89.4015 82.7737 87.1119C83.0145 86.4957 83.325 85.8987 83.8059 85.4198C84.7001 84.5173 85.9271 83.8142 87.2948 83.6212C89.1042 83.366 91.0344 83.7266 92.2496 85.1764C92.412 85.3257 92.5053 85.5252 92.5284 85.7242ZM91.1476 86.5518C91.114 86.5341 91.0817 86.5019 91.0512 86.4769C90.1502 85.836 89.0121 85.9982 88.0159 86.3838C87.1647 86.7137 86.4722 87.3797 86.316 88.1759C86.1063 88.9851 86.313 89.6818 86.7628 90.1671C87.2388 90.6834 87.96 91.0132 88.8883 90.9262C89.7862 90.8889 90.5279 90.4842 90.9243 89.7873C91.4102 88.9411 91.6236 87.8835 91.241 86.8567C91.1899 86.7634 91.1595 86.6575 91.1476 86.5518Z" fill="#262625"/>
        <path fill-rule="evenodd" clip-rule="evenodd" d="M97.2178 78.7672C97.5305 78.3888 98.088 78.3384 98.4638 78.6411C98.8371 78.9437 98.8875 79.4987 98.5773 79.877C98.5773 79.877 98.5193 80.7093 98.0375 81.9199C97.8837 82.2982 97.7122 82.7018 97.4196 83.0549C97.1194 83.3828 96.7411 83.6097 96.3805 83.8367C95.301 84.4925 94.5191 84.7702 94.5191 84.7702C94.2063 85.1233 93.6489 85.1734 93.2756 84.8707C92.8998 84.568 92.8494 84.0135 93.1621 83.6352C93.1621 83.6352 93.2706 82.8029 93.7347 81.6174C93.8885 81.2391 94.0323 80.81 94.3198 80.4568C94.5998 80.1037 94.968 79.8769 95.3211 79.6499C96.4183 78.9689 97.2178 78.7672 97.2178 78.7672Z" fill="#262625"/>
        <path fill-rule="evenodd" clip-rule="evenodd" d="M101.369 85.8547C101.853 85.8042 102.285 86.1576 102.33 86.6621C102.373 87.1413 102.017 87.5698 101.531 87.6202C101.531 87.6202 100.94 88.1498 99.7827 88.6542C99.4144 88.8308 99.0235 88.9822 98.5871 89.0074C98.1483 89.0579 97.7396 88.9319 97.3436 88.8311C96.1355 88.5284 95.4394 88.1754 95.4394 88.1754C94.9552 88.2258 94.5239 87.8472 94.4785 87.368C94.4331 86.8888 94.7937 86.4603 95.278 86.4098C95.278 86.4098 95.8959 85.9054 97.0284 85.401C97.4017 85.2496 97.78 85.0475 98.2214 84.997C98.6527 84.9466 99.0689 85.0479 99.4598 85.1488C100.693 85.4262 101.369 85.8547 101.369 85.8547Z" fill="#262625"/>
        <path fill-rule="evenodd" clip-rule="evenodd" d="M101.138 91.8829C101.622 91.9334 101.975 92.3623 101.922 92.8415C101.872 93.346 101.438 93.6989 100.951 93.6484C100.951 93.6484 100.333 94.0518 99.1529 94.3292C98.7847 94.4301 98.3963 94.5058 97.9902 94.4554C97.5765 94.4049 97.231 94.2285 96.8855 94.0519C95.8161 93.5222 95.2662 93.043 95.2662 93.043C94.7819 92.9926 94.4289 92.5637 94.4818 92.0593C94.5323 91.58 94.966 91.227 95.4528 91.2775C95.4528 91.2775 96.091 90.9245 97.2461 90.6218C97.6194 90.5209 97.9977 90.4202 98.4139 90.4455C98.8225 90.4959 99.1832 90.6472 99.5237 90.8238C100.618 91.3534 101.138 91.8829 101.138 91.8829Z" fill="#262625"/>
        <path fill-rule="evenodd" clip-rule="evenodd" d="M97.6267 98.6168C97.9293 98.9951 97.8637 99.5501 97.4804 99.8528C97.0995 100.155 96.5421 100.105 96.2395 99.7016C96.2395 99.7016 95.6039 99.651 94.6202 99.0961C94.3277 98.9196 94.0249 98.743 93.8055 98.4656C93.581 98.1629 93.5079 97.8353 93.4171 97.5074C93.1246 96.4481 93.1473 95.8173 93.1473 95.8173C92.8446 95.4137 92.9102 94.8588 93.2936 94.5562C93.6744 94.2535 94.2318 94.3291 94.5345 94.7074C94.5345 94.7074 95.1549 94.8339 96.1184 95.3636C96.4186 95.5149 96.7313 95.6658 96.9684 95.9685C97.1979 96.246 97.2988 96.5741 97.3921 96.902C97.7024 97.9866 97.6267 98.6168 97.6267 98.6168Z" fill="#262625"/>
        <path fill-rule="evenodd" clip-rule="evenodd" d="M88.5721 97.0536C88.3628 96.6248 88.5494 96.0953 88.9908 95.8935C89.4297 95.6665 89.9593 95.8682 90.1687 96.2969C90.1687 96.2969 90.885 96.6751 91.7728 97.6083C92.0578 97.9109 92.3504 98.2136 92.5345 98.6172C92.7237 99.0459 92.7589 99.4747 92.8094 99.8783C92.9582 101.139 92.8574 101.922 92.8574 101.922C93.0692 102.376 92.8826 102.905 92.4412 103.107C92.0024 103.309 91.4727 103.132 91.2633 102.703C91.2633 102.703 90.5773 102.274 89.6996 101.366C89.4095 101.064 89.0968 100.761 88.895 100.358C88.6983 99.9792 88.6352 99.5252 88.5822 99.1216C88.4208 97.8605 88.5721 97.0536 88.5721 97.0536Z" fill="#262625"/>
        <path fill-rule="evenodd" clip-rule="evenodd" d="M84.6427 96.5239C84.7285 96.0447 85.19 95.7166 85.6693 95.8175C86.1485 95.8931 86.4688 96.3471 86.383 96.8263C86.383 96.8263 86.7361 97.6335 86.9001 98.9702C86.9531 99.399 86.9985 99.8783 86.9077 100.332C86.8169 100.812 86.5898 101.215 86.383 101.593C85.7701 102.779 85.2027 103.435 85.2027 103.435C85.1169 103.914 84.6578 104.242 84.1786 104.141C83.6969 104.065 83.3766 103.611 83.4623 103.132C83.4623 103.132 83.1597 102.3 82.9907 100.988C82.9352 100.559 82.862 100.105 82.9377 99.6259C83.0134 99.1467 83.2202 98.7432 83.4194 98.3397C84.0349 97.1542 84.6427 96.5239 84.6427 96.5239Z" fill="#262625"/>
        <path fill-rule="evenodd" clip-rule="evenodd" d="M81.5623 94.6068C81.9204 94.2789 82.4803 94.3039 82.8107 94.657C83.1436 95.0101 83.121 95.5651 82.7653 95.893C82.7653 95.893 82.6644 96.6493 82.102 97.7339C81.9255 98.0618 81.7338 98.4151 81.4286 98.6925C81.1158 98.97 80.7425 99.0959 80.3869 99.2472C79.2847 99.7264 78.5507 99.8024 78.5507 99.8024C78.1951 100.155 77.6352 100.13 77.3023 99.7773C76.9719 99.3989 76.992 98.8441 77.3502 98.5162C77.3502 98.5162 77.499 97.7843 78.0438 96.725C78.2178 96.3719 78.3843 96.0192 78.6844 95.7417C78.982 95.4391 79.3478 95.2877 79.6984 95.1363C80.8182 94.6571 81.5623 94.6068 81.5623 94.6068Z" fill="#262625"/>
        <path fill-rule="evenodd" clip-rule="evenodd" d="M80.7856 90.7731C81.2648 90.6974 81.7264 91.0254 81.8146 91.5046C81.9029 91.9839 81.5851 92.4379 81.1034 92.5135C81.1034 92.5135 80.5636 93.119 79.4514 93.7244C79.0982 93.9262 78.7199 94.1276 78.2886 94.1781C77.8523 94.2537 77.4336 94.1783 77.0275 94.1278C75.7967 93.9261 75.0652 93.6234 75.0652 93.6234C74.586 93.7243 74.1245 93.3962 74.0362 92.917C73.9479 92.4378 74.2657 91.9839 74.7475 91.883C74.7475 91.883 75.32 91.3534 76.407 90.7229C76.7652 90.5211 77.1259 90.3193 77.5622 90.2184C77.991 90.1428 78.4147 90.1931 78.8158 90.2435C80.0718 90.4201 80.7856 90.7731 80.7856 90.7731Z" fill="#262625"/>
        <path fill-rule="evenodd" clip-rule="evenodd" d="M81.366 87.1663C81.7948 87.3933 81.9562 87.9479 81.7217 88.3766C81.4896 88.8054 80.9524 88.9568 80.5236 88.7298C80.5236 88.7298 79.825 88.8813 78.6421 88.7047C78.2789 88.6543 77.8955 88.6035 77.5499 88.4018C77.1968 88.2 76.9598 87.8974 76.7151 87.62C75.9509 86.7372 75.6532 86.0815 75.6532 86.0815C75.2219 85.8545 75.0631 85.3251 75.2951 84.8963C75.5271 84.4675 76.0644 84.2909 76.4931 84.5431C76.4931 84.5431 77.1968 84.442 78.3545 84.5933C78.7278 84.6438 79.1086 84.669 79.4693 84.8456C79.8224 85.0473 80.0822 85.3248 80.3244 85.6022C81.1113 86.5102 81.366 87.1663 81.366 87.1663Z" fill="#262625"/>
        <path fill-rule="evenodd" clip-rule="evenodd" d="M83.9437 83.8622C84.2666 84.2405 84.2313 84.7955 83.8655 85.0982C83.4998 85.4261 82.9399 85.4011 82.6171 85.0228C82.6171 85.0228 81.9941 84.9976 80.9877 84.5184C80.6926 84.367 80.385 84.2154 80.1554 83.9632C79.9209 83.6857 79.8376 83.358 79.7317 83.0302C79.3937 81.9961 79.3937 81.3656 79.3937 81.3656C79.0709 81.0125 79.1062 80.4575 79.4719 80.1296C79.8376 79.8018 80.3976 79.8519 80.7204 80.205C80.7204 80.205 81.3333 80.281 82.3169 80.7602C82.6196 80.8863 82.9349 81.0123 83.182 81.2898C83.4216 81.542 83.5326 81.8699 83.6385 82.1725C83.9967 83.2318 83.9437 83.8622 83.9437 83.8622Z" fill="#262625"/>
        <path fill-rule="evenodd" clip-rule="evenodd" d="M86.3902 82.9796C86.4507 83.4588 86.1052 83.8876 85.6209 83.9633C85.1367 84.0138 84.6953 83.6607 84.6348 83.1815C84.6348 83.1815 84.1354 82.803 83.583 81.8446C83.4191 81.5671 83.2526 81.2647 83.2173 80.9116C83.1795 80.5584 83.2955 80.2306 83.3913 79.9027C83.6965 78.8686 84.0446 78.3642 84.0446 78.3642C83.9865 77.885 84.3321 77.4309 84.8164 77.3805C85.3006 77.33 85.742 77.6579 85.8 78.1371C85.8 78.1371 86.2616 78.566 86.8114 79.4992C86.9804 79.7767 87.1671 80.0539 87.22 80.4322C87.2705 80.7601 87.1797 81.0881 87.0889 81.416C86.7862 82.5005 86.3902 82.9796 86.3902 82.9796Z" fill="#262625"/>
        <path fill-rule="evenodd" clip-rule="evenodd" d="M90.5673 82.8787C90.4185 83.3579 89.9191 83.6098 89.455 83.4585C88.9909 83.3071 88.7362 82.8026 88.885 82.3486C88.885 82.3486 88.6126 81.6425 88.5773 80.4318C88.5647 80.0283 88.5596 79.6249 88.6933 79.2466C88.832 78.843 89.0893 78.5405 89.3289 78.2126C90.0654 77.2794 90.6606 76.8254 90.6606 76.8254C90.8094 76.3462 91.3088 76.0937 91.7729 76.2451C92.237 76.3964 92.4942 76.9009 92.3454 77.3549C92.3454 77.3549 92.5649 78.0611 92.6103 79.2717C92.6254 79.6753 92.6557 80.0538 92.5346 80.4826C92.4135 80.8609 92.1739 81.1888 91.9419 81.4914C91.1978 82.4751 90.5673 82.8787 90.5673 82.8787Z" fill="#262625"/>
        <path fill-rule="evenodd" clip-rule="evenodd" d="M51.5231 132.969C51.4979 132.465 51.8712 132.062 52.3579 132.036C52.8447 132.011 53.2634 132.39 53.2886 132.869C53.4601 133.777 53.2508 135.089 54.5245 135.896C54.9659 136.173 55.5939 136.299 56.4514 136.425C57.3897 136.602 58.5701 136.703 60.0809 136.677C60.8401 136.728 61.5387 136.728 62.1819 136.778C62.9486 136.804 63.6296 136.854 64.2475 136.879C66.061 136.929 67.206 136.879 67.9526 136.576C68.2603 136.45 68.51 136.4 68.6362 136.223C69.0246 135.668 68.9615 135.013 69.0523 134.508C69.075 134.029 69.4912 133.651 69.9779 133.676C70.4647 133.701 70.8406 134.13 70.8179 134.609C70.8582 135.088 70.9919 135.643 70.9767 136.223C70.949 137.156 70.5253 138.09 69.244 138.973C68.2477 139.679 66.5301 140.309 63.5388 140.612C62.4971 140.713 61.289 140.713 59.8942 140.688C58.792 140.587 57.8361 140.486 57.0189 140.284C54.7817 139.754 53.4399 138.998 52.6429 138.191C51.7476 137.258 51.344 136.324 51.3011 135.366C51.2608 134.483 51.4651 133.676 51.5231 132.969Z" fill="#262625"/>
        <path fill-rule="evenodd" clip-rule="evenodd" d="M52.4063 132.919C54.3383 133.424 61.3702 134.029 69.9355 134.559C69.8523 136.223 71.1588 139.2 59.988 138.67C51.3091 138.292 52.5172 134.912 52.4063 132.919Z" fill="#262625"/>
        <path fill-rule="evenodd" clip-rule="evenodd" d="M93.5304 135.744C93.5279 135.24 93.9238 134.861 94.4106 134.861C94.8999 134.836 95.2959 135.24 95.2984 135.719C95.364 136.249 95.3892 136.753 95.6465 137.232C95.7902 137.485 96.1106 137.585 96.5696 137.737C97.3944 138.039 98.6327 138.09 100.552 138.115C101.753 138.14 103.188 138.141 104.926 138.04C106.563 138.09 107.925 138.065 109.062 138.04C110.8 138.014 111.945 137.964 112.709 137.661C113.019 137.535 113.279 137.484 113.403 137.257C113.584 136.955 113.678 136.602 113.708 136.198C113.756 135.517 113.738 134.761 113.791 133.903C113.766 133.424 114.139 132.995 114.628 132.97C115.115 132.944 115.531 133.323 115.557 133.827C115.743 134.937 116.006 135.921 116.056 136.779C116.142 138.216 115.64 139.351 114.074 140.335C113.145 140.915 111.678 141.419 109.372 141.747C108.159 141.924 106.694 142 104.931 142.075C103.064 141.974 101.521 141.873 100.247 141.671C97.8458 141.293 96.3527 140.738 95.4094 140.158C93.1646 138.771 93.3513 137.308 93.5304 135.744Z" fill="#262625"/>
        <path fill-rule="evenodd" clip-rule="evenodd" d="M94.416 135.744C103.211 136.021 110.127 136.097 111.065 135.794C112.278 135.366 113.146 135.365 114.674 133.852C114.878 137.761 116.455 140.032 104.928 140.057C93.8031 140.057 94.421 137.812 94.416 135.744Z" fill="#262625"/>
        <path fill-rule="evenodd" clip-rule="evenodd" d="M3.45298 116.172C2.28015 115.113 1.54115 113.7 1.65465 112.035C1.79589 109.992 3.21086 108.076 5.01171 106.663C4.14407 105.705 3.66737 104.469 3.9322 103.082C4.29287 101.19 5.68008 99.6767 7.39769 98.6426C6.98658 97.7094 6.90333 96.6249 7.32202 95.4899C7.82141 94.1531 8.69157 93.0684 9.68784 92.2613C8.37125 90.748 7.18079 88.68 6.64861 86.2839C5.41273 80.7603 7.11016 74.9085 11.1759 69.8389C15.7613 64.1135 23.3682 59.3969 32.9677 57.3791C33.4444 57.2782 33.916 57.5812 34.0219 58.0604C34.1253 58.5396 33.8227 59.0186 33.346 59.1195C25.9913 60.7842 19.8977 64.1138 15.5898 68.2502C10.2326 73.3955 7.65245 79.7763 9.08506 85.7287C9.45078 87.242 10.1419 88.5791 10.9439 89.6888C11.2844 90.1681 11.6451 90.5716 12.0133 90.9499C12.3134 90.8238 12.6111 90.7478 12.8961 90.6721C14.0966 90.3947 15.1307 90.521 15.726 90.8741C16.4902 91.3028 16.8862 91.9837 16.75 92.917C16.6062 93.9006 16.1169 94.5058 15.4964 94.8337C14.6591 95.2625 13.2593 95.1617 11.7913 94.1781C11.0398 94.7077 10.3638 95.4643 10.0157 96.4732C9.88458 96.8263 9.92243 97.1794 10.0611 97.482C10.104 97.4568 10.1469 97.457 10.1898 97.4318C12.1116 96.9021 13.9528 96.9022 14.8961 97.2806C16.0917 97.7345 16.5457 98.617 16.3666 99.6259C16.1724 100.761 15.5116 101.492 14.5683 101.871C13.3753 102.35 11.5315 102.174 9.97285 101.316C9.81143 101.215 9.65253 101.114 9.49867 101.013C8.34098 101.593 7.28418 102.426 7.0698 103.661C6.96639 104.242 7.38508 104.645 7.89708 104.948C9.38518 104.318 10.785 104.065 11.6274 104.191C12.9389 104.393 13.6123 105.175 13.6956 106.285C13.7637 107.193 13.403 107.899 12.6716 108.404C11.8695 108.959 10.162 109.16 8.42421 108.681C8.35612 108.656 8.28803 108.63 8.21993 108.63C7.87944 108.807 7.5566 108.984 7.28168 109.186C6.18957 110.018 5.19077 111.052 5.12267 112.237C5.07475 113.12 5.72548 113.675 6.48214 114.079C6.89073 113.877 7.29932 113.675 7.70035 113.498C9.57938 112.717 11.2844 112.565 12.1747 112.868C13.3072 113.221 13.9049 114.003 13.9302 115.138C13.9579 116.349 13.3627 117.307 12.205 117.887C11.1886 118.417 9.53653 118.593 7.82144 118.266C7.54652 118.215 7.26907 118.139 6.99667 118.064C6.84282 118.19 6.68895 118.291 6.54014 118.417C5.21599 119.4 4.01542 120.687 3.79094 122.175C3.73545 122.528 3.89436 122.78 4.14658 122.957C4.29287 122.831 4.43915 122.679 4.58544 122.553C6.0584 121.242 7.60453 120.611 8.67142 120.636C9.99809 120.662 11.0246 121.292 11.4862 122.755C11.9679 124.268 11.4761 125.479 10.3234 126.362C9.29942 127.118 7.4456 127.547 5.58674 127.345C4.48959 128.96 3.70772 131.028 4.0911 133.045C4.15668 133.399 4.45934 133.55 4.78218 133.626C5.18825 133.752 5.64982 133.777 6.11643 133.726C6.86048 131.86 8.25775 130.599 9.31203 130.246C10.5933 129.817 11.7131 130.17 12.4774 131.204C13.5039 132.591 13.345 134.054 12.157 135.366C11.6072 135.971 10.7194 136.526 9.66767 136.98C9.80639 138.065 10.4395 139.326 11.8771 140.461C12.8532 141.243 13.9655 141.621 15.0601 141.722C15.6679 141.772 16.2733 141.747 16.8483 141.671C16.8004 140.183 17.2746 138.771 17.9707 137.914C18.9519 136.728 20.2937 136.324 21.7161 136.93C23.3077 137.611 23.9584 138.67 24.1425 139.653C24.3014 140.511 24.1047 141.445 23.4766 142.352C23.2042 142.756 22.8335 143.16 22.3795 143.513C23.1614 143.74 24.203 143.74 25.5499 143.487C27.1414 143.16 27.9762 142.151 28.2991 140.965C28.3747 140.688 28.4277 140.41 28.4605 140.108C28.3621 140.082 28.2638 140.057 28.1679 140.007C26.9144 139.527 25.8929 138.821 25.2699 138.065C24.7327 137.434 24.4578 136.728 24.4099 136.022C24.3443 135.063 24.6923 134.029 25.8273 133.121C26.5083 132.592 27.2171 132.39 27.9006 132.415C28.1982 132.44 28.5034 132.491 28.806 132.617C27.9687 131.81 27.6105 130.7 27.946 129.514C28.3445 128.102 29.3559 127.471 30.7254 127.522C31.8175 127.547 33.3712 128.228 34.7811 129.388C34.945 129.54 35.1065 129.666 35.2654 129.817C35.8858 129.413 36.4079 128.808 36.6854 127.976C36.9376 127.219 36.8544 126.513 36.5794 125.857C35.0636 126.311 33.52 126.286 32.3119 125.882C30.1832 125.201 29.0053 123.537 29.5425 121.418C29.8427 120.258 30.7179 119.577 31.9991 119.476C33.1265 119.375 34.7433 119.854 36.2339 120.838C36.7409 121.191 37.2302 121.595 37.6766 122.024C39.0386 120.939 39.5329 119.678 39.4371 118.467C39.4295 118.366 39.4169 118.266 39.3993 118.139C39.0436 118.165 38.6981 118.14 38.3651 118.114C34.7256 117.812 32.5969 115.264 33.6158 112.818C34.0951 111.683 35.0283 111.203 36.1784 111.279C37.7447 111.38 40.0424 113.019 41.2985 115.365C42.7058 114.936 44.1561 114.079 45.4096 112.591C45.6921 112.263 45.9191 111.935 46.0982 111.657C45.74 111.481 45.3667 111.203 44.9733 110.875C42.726 108.958 43.5003 107.521 44.3301 107.042C45.1498 106.588 46.9431 106.764 48.0176 107.95C48.353 108.303 48.6405 108.782 48.7894 109.337C49.5889 108.404 50.1488 106.89 50.6255 105.73C51.019 104.771 51.3973 104.015 51.7252 103.687C52.7416 102.678 53.8312 102.224 54.9611 102.073C56.5451 101.896 58.2223 102.375 59.8567 102.981C60.3158 103.132 60.5604 103.636 60.399 104.09C60.2376 104.57 59.7332 104.796 59.2716 104.645C58.124 104.242 56.9587 103.889 55.8338 103.889C54.8603 103.889 53.927 104.191 53.0821 105.049C52.6786 105.452 52.3229 106.865 51.7428 108.202C51.0921 109.715 50.2119 111.128 49.1046 111.733C48.9155 111.834 48.7162 111.91 48.5094 111.96C48.242 112.616 47.8208 113.322 47.2029 114.079C45.6719 115.945 43.8761 117.08 42.1156 117.66C42.5293 119.854 41.9391 122.276 39.3589 124.344C40.0399 125.731 40.2744 127.345 39.7498 128.985C39.2782 130.448 38.4005 131.583 37.3386 132.365C37.7649 133.096 38.0751 133.827 38.2163 134.534C38.4686 135.795 38.2567 137.005 37.5026 138.014C36.2289 139.754 34.2439 140.536 32.216 140.637C31.8907 143.639 30.1958 146.464 26.304 147.246C22.1374 148.103 19.6707 147.043 18.3011 145.454C15.5116 146.085 12.1167 145.808 9.36502 143.614C7.00172 141.722 5.95753 139.654 5.67 137.737C2.99647 137.686 0.658411 136.425 0.171627 133.777C-0.325246 131.053 0.499503 128.253 1.83876 125.958C0.532292 124.975 -0.23698 123.486 0.0656835 121.595C0.391047 119.552 1.74797 117.685 3.45298 116.172ZM34.1102 133.777C33.7041 133.853 33.3006 133.903 32.9071 133.928C31.8579 133.979 30.9096 133.802 30.1252 133.474C30.448 133.777 30.7507 134.155 31.018 134.609C31.419 135.29 31.757 136.123 31.9789 137.056C32.9979 137.056 34.0093 136.753 34.6525 135.896C34.8013 135.694 34.7988 135.467 34.7534 135.214C34.6676 134.76 34.4431 134.306 34.1506 133.852C34.1379 133.827 34.1228 133.802 34.1102 133.777ZM38.2668 115.592C37.78 114.962 37.2024 114.457 36.645 114.154C36.476 114.053 36.3096 113.977 36.1507 113.927C36.1002 113.902 36.0296 113.902 35.9791 113.902C35.8429 114.28 36.0876 114.633 36.4457 114.886C36.9073 115.239 37.5378 115.491 38.2668 115.592ZM34.2615 123.259C33.8706 123.007 33.4696 122.805 33.0912 122.679C32.9071 122.604 32.6675 122.578 32.4809 122.553C32.5338 122.679 32.6372 122.78 32.7633 122.856C33.1543 123.108 33.6814 123.234 34.2615 123.259ZM20.1524 140.335C20.3189 140.209 20.3895 140.082 20.2533 140.032C20.1499 139.981 20.1272 140.158 20.1524 140.335ZM10.5731 105.73C10.7623 105.755 10.9035 105.73 10.8556 105.629C10.7749 105.478 10.6665 105.553 10.5731 105.73ZM13.4459 99.0963C13.4484 99.0963 13.4484 99.0963 13.4484 99.0963H13.4459Z" fill="#262625"/>
        <path fill-rule="evenodd" clip-rule="evenodd" d="M35.0811 58.8166C35.0937 58.7914 35.1013 58.7409 35.1063 58.7156C35.0988 58.7661 35.066 58.7913 35.0407 58.8418C34.955 58.867 34.907 58.9174 34.9575 58.9679C34.9701 58.9931 34.9903 58.968 35.0029 58.9427C35.0054 58.9427 35.0054 58.9679 35.0079 58.9679C35.1795 59.2705 35.4569 59.5734 35.9058 59.8004C36.8163 60.2796 37.9438 60.7334 39.3512 61.1117C39.8379 61.1369 40.1986 61.5659 40.1583 62.0704C40.1179 62.5496 39.6891 62.9026 39.2024 62.8521C37.5478 63.0035 36.153 62.978 34.9827 62.8014C34.1378 62.6501 33.4669 62.3224 32.8969 61.9945C31.6055 61.1874 31.0986 59.9265 31.1187 58.2871C31.3684 56.5467 32.5362 55.2857 34.5792 55.0082C35.4518 54.9073 36.4733 54.9324 37.5478 55.1594C38.8518 55.4117 40.1558 55.8907 41.3462 56.3447C41.8254 56.4456 42.1382 56.8995 42.0449 57.3787C41.949 57.8579 41.485 58.186 41.0057 58.0851C39.5202 58.0599 37.8757 58.1861 36.4481 58.4383C36.095 58.514 35.7772 58.6149 35.4771 58.6905C35.3661 58.741 35.1996 58.7662 35.0811 58.8166ZM35.0811 58.8166C35.0634 58.8671 35.0407 58.8923 35.013 58.9427C35.0105 58.9427 35.0079 58.9427 35.0029 58.9427C34.9903 58.9175 35.013 58.867 35.0407 58.8418C35.0533 58.8165 35.0659 58.8166 35.0811 58.8166Z" fill="#262625"/>
        <path fill-rule="evenodd" clip-rule="evenodd" d="M41.1773 57.2274C40.3727 58.5894 39.7396 60.2289 39.278 61.9944C35.4166 61.6666 32.8717 60.8089 33.1113 58.4885C33.3585 56.1428 37.8908 56.5716 41.1773 57.2274Z" fill="#262625"/>
    </g>
    <defs>
        <clipPath id="clip0_5838_1096">
            <rect width="160" height="135.551" fill="white" transform="translate(0 12)"/>
        </clipPath>
    </defs>
</svg>
