<svg width="160" height="160" viewBox="0 0 160 160" fill="none" xmlns="http://www.w3.org/2000/svg">
    <g clip-path="url(#clip0_5838_905)">
        <path fill-rule="evenodd" clip-rule="evenodd" d="M54.5632 77.8448C56.4621 78.7238 58.5749 78.2519 60.5737 77.3515C65.0352 75.3362 68.9689 71.0483 69.6601 70.3837C70.2353 69.8477 72.1929 68.7758 74.5058 67.7467C77.0686 66.6319 80.0667 65.517 81.814 65.1311C83.0206 64.8524 84.4639 64.9597 85.8662 65.2599C88.5131 65.8387 91.0011 67.0822 91.0011 67.0822C91.0832 67.1251 91.1617 67.168 91.2361 67.2323C91.2361 67.2323 102.81 75.6578 111.345 81.7465C115.579 84.7909 119.046 87.2351 119.935 87.7282C123.341 89.6363 127.281 89.4433 129.217 90.1508C129.87 90.3866 130.372 90.7082 130.72 91.1155C131.323 91.7802 131.696 92.8523 131.703 94.1386C131.713 95.8109 131.17 97.9118 130.14 99.8414C128.733 102.478 126.444 104.751 123.656 105.223C119.453 105.951 115.387 105.051 111.308 103.164C103.871 99.7127 96.3639 92.9808 87.6688 87.9426C87.3073 87.7496 87.1789 87.2994 87.3822 86.9349C87.5856 86.5704 88.0442 86.4419 88.4057 86.6349C97.1512 91.4158 104.755 97.9118 112.21 101.149C115.872 102.736 119.489 103.529 123.206 102.8C125.249 102.393 126.801 100.592 127.794 98.6193C128.442 97.3544 128.84 95.9823 128.933 94.8031C128.995 94.0313 128.983 93.3453 128.642 92.9808C128.399 92.7021 127.904 92.6807 127.316 92.5949C125.858 92.3377 123.911 92.1876 121.897 91.6731C120.759 91.3729 119.604 90.9655 118.492 90.3652C117.37 89.7649 112.258 86.2704 106.61 82.3041C99.0398 77.0086 90.4855 70.8769 89.3653 70.0837C88.902 69.8479 87.0743 69.0116 85.1482 68.6043C84.2477 68.4113 83.3235 68.3042 82.5493 68.4757C81.2004 68.7759 79.038 69.5477 76.9856 70.4053C74.6901 71.3486 72.5143 72.3347 71.9607 72.8492C71.196 73.5567 66.7971 78.1663 61.8868 80.3103C58.8204 81.6609 55.5702 82.0468 52.7291 80.4388C52.3035 80.203 51.8831 79.7742 51.6672 79.0453C51.3602 77.9947 51.4927 75.7222 52.5074 72.8279C53.7056 69.3762 56.0753 64.874 60.0263 60.4532C60.9662 59.4027 67.9175 54.7588 74.637 51.2921C78.8746 49.1053 83.0214 47.4008 85.5037 47.2379C88.4087 47.0492 96.8791 47.3388 104.431 47.8662C109.961 48.2521 114.999 48.7665 117.019 49.2832C117.422 49.3818 117.67 49.7892 117.572 50.1923C117.473 50.5953 117.067 50.8419 116.664 50.7454C114.298 50.1987 107.759 49.7827 101.204 49.5426C94.6764 49.3046 88.1347 49.2469 85.6732 49.4635C83.3947 49.6607 79.6495 51.393 75.796 53.4833C69.5293 56.8814 63.0023 61.2936 62.1355 62.3013C59.7676 65.0455 58.0344 67.8111 56.8261 70.2981C55.403 73.2138 54.7178 75.7223 54.6228 77.3088C54.6127 77.4803 54.5758 77.6947 54.5632 77.8448ZM54.5613 77.8875C54.5514 78.0375 54.5686 78.1663 54.6637 78.1234C54.8022 78.0805 54.7019 77.9732 54.5613 77.8875Z" fill="#262625"/>
        <path fill-rule="evenodd" clip-rule="evenodd" d="M118.52 49.757C119.303 50.9919 120.885 53.1402 122.678 57.0765C123.492 58.8624 124.332 61.0148 125.154 63.609C126.233 66.9964 127.278 71.1342 128.179 76.1939C128.844 79.9243 129.403 84.1478 129.866 88.9502C129.922 89.3576 129.634 89.7434 129.223 89.7862C128.812 89.8506 128.433 89.5718 128.377 89.1431C127.223 82.6041 125.898 77.1799 124.623 72.6348C123.085 67.1678 121.524 63.0301 120.159 59.855C118.42 55.8137 116.974 53.3739 116.093 51.9032C115.55 50.9984 115.219 50.3616 115.103 49.9242C114.916 49.2232 115.011 48.6872 115.27 48.2627C115.454 47.9604 115.711 47.6689 116.134 47.4631C116.832 47.1265 119.23 46.2667 122.164 45.3148C128.026 43.4131 136.029 41.0462 136.029 41.0462C136.421 40.9111 136.85 41.1191 136.985 41.5114C137.121 41.9038 136.913 42.3304 136.521 42.4676C136.521 42.4676 126.849 46.3009 121.185 48.64C120.112 49.0816 119.189 49.4654 118.52 49.757Z" fill="#262625"/>
        <path fill-rule="evenodd" clip-rule="evenodd" d="M149.448 86.2918C149.836 86.1417 150.27 86.3348 150.416 86.7421C150.562 87.128 150.366 87.5568 149.978 87.7069C149.978 87.7069 147.63 89.036 144.444 90.5153C143.723 90.8584 142.961 91.1799 142.17 91.5015C141.664 91.6944 141.15 91.9088 140.623 92.0804C139.281 92.5091 137.911 92.8523 136.618 93.131C133.789 93.7527 131.375 94.0529 130.267 93.9885C129.852 93.9885 129.499 93.6883 129.478 93.2595C129.458 92.8522 129.777 92.4877 130.192 92.4662C131.075 92.3161 132.741 91.6087 134.803 90.7297C135.55 90.4081 136.33 90.0866 137.148 89.7436C137.923 89.4435 138.714 89.1217 139.519 88.8215C140.034 88.65 140.556 88.5 141.072 88.3285C141.882 88.0927 142.673 87.8783 143.437 87.6853C146.826 86.8277 149.448 86.2918 149.448 86.2918Z" fill="#262625"/>
        <path fill-rule="evenodd" clip-rule="evenodd" d="M117.591 104.408C117.44 104.022 117.631 103.572 118.017 103.422C118.404 103.272 118.84 103.465 118.991 103.851C119.498 104.965 120.015 107.174 120.158 109.275C120.263 110.818 120.114 112.276 119.72 113.262C119.369 114.12 118.233 116.007 116.851 117.336C115.712 118.451 114.357 119.094 113.146 119.051C111.246 118.944 108.787 118.429 106.083 117.55C104.03 116.864 101.829 115.985 99.6127 114.977C96.4579 113.541 93.2776 111.847 90.402 110.261C86.6426 108.16 83.4449 106.166 81.5564 104.923C81.1981 104.708 81.077 104.258 81.286 103.893C81.4951 103.55 81.9556 103.422 82.3138 103.636C84.2924 104.665 87.6573 106.252 91.5372 107.988C94.4879 109.318 97.7381 110.69 100.899 111.955C103.075 112.834 105.206 113.648 107.173 114.313C109.567 115.149 111.694 115.814 113.378 115.985C113.65 116.007 113.933 115.878 114.22 115.728C114.635 115.471 115.049 115.149 115.431 114.785C116.393 113.884 117.213 112.791 117.504 112.233C117.957 111.376 118.093 109.918 118.081 108.481C118.067 106.873 117.879 105.265 117.591 104.408Z" fill="#262625"/>
        <path fill-rule="evenodd" clip-rule="evenodd" d="M108.225 116.671C108.228 116.242 108.566 115.921 108.981 115.921C109.396 115.921 109.731 116.264 109.728 116.671C109.796 117.872 109.661 119.651 108.79 121.109C108.048 122.374 106.764 123.36 104.655 123.725C102.988 123.982 101.629 124.218 98.5921 123.639C97.1758 123.36 95.3758 122.91 92.9879 122.138C91.5506 121.667 89.8951 121.088 87.987 120.337C86.5182 119.758 84.9062 119.072 83.1147 118.279C81.3644 117.507 79.4548 116.628 77.3531 115.642C74.7896 114.442 71.9687 113.07 68.8066 111.504C68.4245 111.354 68.2455 110.904 68.4072 110.518C68.5686 110.154 69.0098 109.961 69.3919 110.132C72.5231 111.247 75.3451 112.233 77.8972 113.134C81.1466 114.313 83.9478 115.299 86.3754 116.157C88.5272 116.928 90.383 117.615 91.9897 118.193C94.2987 119.051 96.0897 119.716 97.5459 120.187C101.335 121.409 102.662 121.367 104.391 121.259C105.709 121.195 106.577 120.702 107.123 119.994C107.925 118.944 108.163 117.593 108.225 116.671Z" fill="#262625"/>
        <path fill-rule="evenodd" clip-rule="evenodd" d="M43.7908 53.644C40.466 52.422 29.2235 47.4545 21.6286 44.4873C19.2585 43.5611 17.255 42.8279 15.9717 42.487C15.5682 42.3927 15.3186 41.9873 15.4147 41.5821C15.5107 41.1791 15.9164 40.9304 16.3196 41.0269C18.1518 41.4128 21.4239 42.4698 25.1417 43.7776C32.9618 46.5304 42.7765 50.3852 45.0902 51.037C45.7169 51.2171 46.4662 51.9224 46.5397 53.4596C46.6302 55.3484 45.8438 59.4625 44.5002 64.6809C43.761 67.5537 42.8631 70.7695 41.8544 74.1355C40.9428 77.1799 39.9493 80.3315 38.9181 83.4616C34.6112 96.561 29.9106 109.253 29.44 111.097C28.5711 114.42 26.3748 116.5 22.1374 116.157C19.3185 115.942 15.4702 114.527 10.379 111.483C10.0189 111.268 9.89322 110.818 10.0988 110.454C10.3044 110.089 10.7637 109.961 11.1238 110.175C15.9993 112.812 19.623 113.991 22.2587 114.098C25.1187 114.184 26.5824 112.791 27.0684 110.54C27.4451 108.846 30.9249 97.9118 34.6311 85.9487C35.6347 82.7113 36.661 79.3881 37.6519 76.1722C38.3384 73.9426 39.0137 71.7344 39.6464 69.6548C41.3907 63.8877 42.8063 58.8537 43.3592 55.6935C43.4857 54.971 43.7584 54.12 43.7908 53.644ZM43.7938 53.5454C43.7916 53.3568 43.735 53.2516 43.5895 53.273C43.4403 53.2988 43.6774 53.4575 43.7938 53.5454Z" fill="#262625"/>
        <path fill-rule="evenodd" clip-rule="evenodd" d="M45.2812 54.4051C44.8824 54.5188 44.4663 54.2872 44.3523 53.8884C44.2384 53.4896 44.4697 53.0737 44.8685 52.9601C46.5326 52.3619 50.6264 51.1655 55.7875 50.0593C57.1922 49.757 58.6743 49.4784 60.2072 49.2233C61.1786 49.0603 62.1689 48.9015 63.174 48.7836C65.6423 48.4942 68.1779 48.3206 70.6612 48.2263C74.7567 48.0719 78.6823 48.1983 81.9635 48.5328C82.378 48.5499 82.7017 48.8995 82.6858 49.3133C82.67 49.7271 82.3207 50.0508 81.9063 50.0358C79.6916 50.1023 77.2081 50.353 74.5717 50.6681C72.6694 50.8954 70.7081 51.1828 68.7218 51.4572C66.7665 51.7295 64.8029 52.0338 62.8734 52.2761C60.4147 52.5848 58.0234 52.8293 55.8207 53.0738C50.885 53.6205 46.9265 54.0535 45.2812 54.4051Z" fill="#262625"/>
        <path fill-rule="evenodd" clip-rule="evenodd" d="M31.3123 100.506C30.9879 100.249 30.9345 99.7771 31.1931 99.4555C31.4514 99.1124 31.9246 99.0694 32.249 99.3267C33.703 100.399 38.9114 102.843 45.2823 105.737C48.2443 107.066 51.4525 108.503 54.6559 109.918C56.7677 110.861 58.8767 111.783 60.9059 112.705C63.1017 113.691 65.206 114.634 67.134 115.513C71.4493 117.464 74.8584 118.965 76.3925 119.372C80.4739 120.509 84.3765 121.023 87.5873 121.131C91.1507 121.259 93.8295 120.981 94.8588 120.466C95.2224 120.252 95.6795 120.402 95.8793 120.745C96.0791 121.109 95.9462 121.581 95.5826 121.774C94.4836 122.438 91.5507 123.081 87.5838 123.232C84.208 123.339 80.0788 123.06 75.7187 122.16C73.8807 121.774 69.4102 120.123 63.9867 117.807C62.5432 117.207 61.0345 116.521 59.492 115.814C57.3174 114.806 55.0747 113.734 52.846 112.619C49.8364 111.118 46.8583 109.575 44.1108 108.095C37.7927 104.708 32.7131 101.706 31.3123 100.506Z" fill="#262625"/>
        <path fill-rule="evenodd" clip-rule="evenodd" d="M65.9006 116.007C66.3048 116.093 66.5571 116.5 66.4638 116.907C66.3706 117.293 65.9669 117.55 65.5627 117.465C63.4499 117.122 61.0421 118.451 59.5518 120.337C58.3011 121.924 57.7895 124.025 59.2052 125.933C59.4886 126.34 59.9234 126.598 60.4212 126.791C60.9705 127.027 61.6081 127.155 62.3051 127.241C64.249 127.455 66.6083 127.198 68.9958 126.555C72.9286 125.526 76.9288 123.639 79.1496 121.066C79.402 120.723 79.8741 120.68 80.2032 120.916C80.5323 121.174 80.5944 121.645 80.3419 121.967C78.7935 124.282 76.1696 126.362 73.1966 127.906C71.3218 128.892 69.3122 129.663 67.3613 130.135C64.9852 130.714 62.6875 130.843 60.8262 130.478C58.8743 130.092 57.3655 129.149 56.4777 127.777C54.451 124.432 55.3092 121.002 57.6371 118.665C59.8383 116.435 63.2321 115.192 65.9006 116.007Z" fill="#262625"/>
        <path fill-rule="evenodd" clip-rule="evenodd" d="M57.0614 121.431C57.476 121.431 57.8167 121.752 57.8218 122.181C57.8267 122.588 57.4942 122.931 57.0796 122.931C54.6257 123.21 52.4487 123.124 50.5638 122.717C48.8628 122.353 47.4347 121.709 46.3004 120.938C45.4863 120.38 44.8316 119.758 44.3425 119.094C43.6985 118.215 43.3156 117.271 43.211 116.328C43.0583 114.977 43.3636 113.627 44.3588 112.447C44.8532 111.869 45.4801 111.311 46.3205 110.861C47.5606 110.196 49.1919 109.682 51.3146 109.468C51.7204 109.382 52.119 109.639 52.2039 110.046C52.289 110.454 52.0283 110.84 51.6224 110.925C49.8556 111.504 48.5749 112.233 47.641 113.005C46.5821 113.863 46.2097 114.849 46.4219 115.792C46.5495 116.371 46.9292 116.907 47.4304 117.443C47.9231 117.979 48.5337 118.493 49.2905 118.965C50.1125 119.458 51.0509 119.93 52.1466 120.316C53.5831 120.83 55.1987 121.259 57.0614 121.431Z" fill="#262625"/>
        <path fill-rule="evenodd" clip-rule="evenodd" d="M44.6599 114.399C45.0692 114.334 45.4564 114.613 45.5239 115.02C45.5916 115.428 45.3144 115.814 44.9052 115.878C43.1609 116.414 41.628 116.586 40.2616 116.543C39.4836 116.5 38.7808 116.371 38.1312 116.2C36.8148 115.835 35.7828 115.149 35.003 114.377C34.5884 113.97 34.255 113.498 34.0087 113.027C33.3432 111.697 33.1955 110.218 33.653 108.825C33.933 107.988 34.3832 107.152 35.1064 106.445C36.257 105.308 37.9395 104.365 40.2779 104.065C40.6797 103.958 41.0892 104.215 41.1919 104.601C41.2944 105.008 41.0515 105.416 40.6497 105.523C38.932 106.187 37.8257 107.174 37.1566 108.224C36.8772 108.674 36.7531 109.125 36.6725 109.596C36.5593 110.239 36.7321 110.84 37.0417 111.419C37.297 111.89 37.6505 112.362 38.161 112.726C38.6631 113.112 39.2458 113.455 39.9698 113.713C41.2343 114.163 42.7591 114.485 44.6599 114.399Z" fill="#262625"/>
        <path fill-rule="evenodd" clip-rule="evenodd" d="M34.9173 108.053C35.2614 107.817 35.7287 107.903 35.9603 108.246C36.1918 108.589 36.1005 109.06 35.7564 109.296C35.7564 109.296 35.4089 109.746 34.6814 110.368C34.4325 110.582 34.1564 110.733 33.8177 110.925C33.5162 111.097 33.1824 111.183 32.8175 111.268C32.5858 111.333 32.3409 111.376 32.092 111.354C31.6356 111.333 31.1708 111.247 30.7259 111.054C30.4264 110.904 30.1395 110.797 29.8709 110.561C29.3414 110.111 28.8643 109.703 28.4774 108.953C28.1733 108.674 28.1558 108.181 28.4379 107.881C28.72 107.581 29.196 107.559 29.4998 107.838C29.926 108.031 30.2819 108.01 30.6697 108.053C30.9598 108.095 31.2027 108.01 31.4686 108.01C31.7211 108.01 31.9522 107.924 32.1861 107.924C32.5343 107.924 32.845 108.01 33.1505 108.01C34.2104 108.031 34.9173 108.053 34.9173 108.053Z" fill="#262625"/>
        <path fill-rule="evenodd" clip-rule="evenodd" d="M31.4846 132.6C31.6637 132.215 32.1126 132.064 32.4867 132.236C32.8608 132.407 33.0193 132.858 32.8405 133.244C32.8405 133.244 32.0065 135.945 30.7313 139.397C30.4416 140.169 30.1179 140.962 29.7706 141.798C29.548 142.313 29.3223 142.848 29.0648 143.363C28.4051 144.692 27.6727 145.957 26.982 147.136C25.1307 150.288 23.5523 152.646 23.5523 152.646C23.3733 153.032 22.9244 153.182 22.5503 153.011C22.1761 152.818 22.0177 152.389 22.1967 152.003C22.1967 152.003 23.0425 149.302 24.3398 145.871C24.8239 144.585 25.3577 143.234 25.9722 141.884C26.2121 141.348 26.4837 140.855 26.7523 140.34C27.1717 139.568 27.5953 138.797 28.0209 138.089C29.8964 134.937 31.4846 132.6 31.4846 132.6Z" fill="#262625"/>
        <path fill-rule="evenodd" clip-rule="evenodd" d="M67.5644 138.025C67.6626 137.639 68.0695 137.381 68.4724 137.489C68.8754 137.574 69.1226 137.982 69.0244 138.389C69.0244 138.389 69.0928 139.847 68.9681 141.777C68.9404 142.227 68.8896 142.656 68.8197 143.106C68.7753 143.406 68.7299 143.706 68.6501 143.985C68.4445 144.714 68.1604 145.421 67.8839 146.064C67.1247 147.865 66.4054 149.13 66.4054 149.13C66.3072 149.538 65.9003 149.774 65.4973 149.666C65.0944 149.581 64.847 149.173 64.9454 148.766C64.9454 148.766 64.8888 147.308 65.0385 145.379C65.0929 144.671 65.1628 143.92 65.3195 143.17C65.3804 142.891 65.4752 142.591 65.5691 142.313C65.7174 141.884 65.875 141.476 66.0493 141.069C66.8357 139.29 67.5644 138.025 67.5644 138.025Z" fill="#262625"/>
        <path fill-rule="evenodd" clip-rule="evenodd" d="M81.2507 138.239C81.2363 137.832 81.5609 137.467 81.9756 137.467C82.39 137.446 82.7381 137.767 82.7527 138.175C82.7527 138.175 83.2662 140.919 83.7237 144.456C83.8275 145.271 83.9122 146.129 83.9825 146.986C84.0275 147.544 84.0725 148.101 84.0826 148.659C84.1079 150.116 84.0481 151.553 83.9801 152.882C83.7979 156.462 83.4881 159.207 83.4881 159.207C83.5027 159.636 83.1779 159.978 82.7634 160C82.349 160 82.0006 159.678 81.9863 159.271C81.9863 159.271 81.4846 156.548 81.053 152.989C80.892 151.66 80.7319 150.224 80.6564 148.787C80.6268 148.23 80.6326 147.651 80.6388 147.094C80.6482 146.236 80.674 145.378 80.7211 144.564C80.9289 140.983 81.2507 138.239 81.2507 138.239Z" fill="#262625"/>
        <path fill-rule="evenodd" clip-rule="evenodd" d="M105.874 133.222C105.71 132.836 105.886 132.386 106.267 132.215C106.647 132.065 107.09 132.236 107.254 132.622C107.254 132.622 108.532 134.53 110.017 137.124C110.353 137.725 110.681 138.346 111.004 138.989C111.21 139.397 111.418 139.826 111.595 140.254C112.046 141.369 112.416 142.506 112.748 143.556C113.642 146.407 114.167 148.659 114.167 148.659C114.331 149.023 114.155 149.473 113.774 149.645C113.394 149.795 112.951 149.623 112.787 149.237C112.787 149.237 111.518 147.329 110.058 144.714C109.516 143.749 108.945 142.698 108.446 141.605C108.252 141.176 108.091 140.747 107.931 140.319C107.682 139.633 107.455 138.968 107.259 138.325C106.387 135.452 105.874 133.222 105.874 133.222Z" fill="#262625"/>
        <path fill-rule="evenodd" clip-rule="evenodd" d="M124.739 127.562C124.533 127.198 124.658 126.726 125.017 126.533C125.377 126.319 125.837 126.447 126.043 126.812C126.043 126.812 128.296 129.899 131.018 133.973C131.639 134.916 132.268 135.902 132.896 136.91C133.3 137.553 133.708 138.218 134.085 138.904C135.051 140.64 135.939 142.398 136.751 144.049C138.92 148.444 140.457 151.96 140.457 151.96C140.663 152.325 140.539 152.775 140.179 152.989C139.819 153.182 139.359 153.054 139.153 152.711C139.153 152.711 136.909 149.602 134.21 145.507C133.199 143.985 132.12 142.312 131.111 140.597C130.716 139.933 130.353 139.247 129.993 138.582C129.434 137.51 128.901 136.481 128.412 135.473C126.265 131.057 124.739 127.562 124.739 127.562Z" fill="#262625"/>
        <path fill-rule="evenodd" clip-rule="evenodd" d="M121.545 19.223C121.787 18.8864 122.257 18.8093 122.594 19.0516C122.93 19.2938 123.007 19.7635 122.765 20.1001C122.765 20.1001 121.985 21.8945 120.771 24.1564C120.498 24.6666 120.195 25.1811 119.868 25.7042C119.659 26.0387 119.448 26.3753 119.207 26.6926C118.589 27.5073 117.911 28.264 117.269 28.9586C115.533 30.841 114.087 32.1618 114.087 32.1618C113.845 32.4984 113.375 32.5734 113.038 32.3311C112.701 32.091 112.625 31.6192 112.867 31.2826C112.867 31.2826 113.658 29.4926 114.892 27.2479C115.347 26.4182 115.848 25.5348 116.424 24.69C116.649 24.362 116.902 24.0534 117.152 23.7489C117.544 23.273 117.937 22.8227 118.332 22.4025C120.091 20.533 121.545 19.223 121.545 19.223Z" fill="#262625"/>
        <path fill-rule="evenodd" clip-rule="evenodd" d="M102.403 0.453163C102.568 0.073688 103.01 -0.102131 103.391 0.0608077C103.772 0.22589 103.948 0.669759 103.783 1.04923C103.783 1.04923 102.608 4.83112 100.903 9.61636C100.514 10.7076 100.085 11.8397 99.6318 12.991C99.3407 13.7306 99.0455 14.4787 98.7179 15.2119C97.88 17.09 96.9667 18.9274 96.1089 20.6254C93.8199 25.1555 91.8848 28.6115 91.8848 28.6115C91.7205 28.991 91.2778 29.1689 90.8971 29.0038C90.5163 28.8388 90.3407 28.3972 90.5049 28.0156C90.5049 28.0156 91.6925 24.2381 93.42 19.4657C94.0673 17.6755 94.7786 15.7501 95.5704 13.8527C95.88 13.1109 96.2217 12.3841 96.56 11.6638C97.0868 10.5446 97.6172 9.45566 98.1446 8.42443C100.458 3.90289 102.403 0.453163 102.403 0.453163Z" fill="#262625"/>
        <path fill-rule="evenodd" clip-rule="evenodd" d="M63.2735 14.0822C63.1895 13.677 63.451 13.2783 63.8571 13.1946C64.2634 13.111 64.6613 13.3725 64.7453 13.7777C64.7453 13.7777 65.5341 15.5443 66.373 17.9412C66.5617 18.4794 66.7349 19.0453 66.8974 19.6327C67.0012 20.0079 67.1056 20.3874 67.1759 20.7754C67.356 21.7702 67.4503 22.7694 67.5264 23.702C67.7322 26.2254 67.7209 28.1613 67.7209 28.1613C67.8049 28.5665 67.5434 28.9652 67.1373 29.0488C66.7312 29.1324 66.3331 28.8709 66.2491 28.4657C66.2491 28.4657 65.4708 26.6948 64.6583 24.2958C64.3581 23.4082 64.0481 22.4542 63.8187 21.468C63.7293 21.0864 63.6747 20.6961 63.6211 20.3102C63.537 19.7056 63.4718 19.1182 63.4311 18.5501C63.2499 16.016 63.2735 14.0822 63.2735 14.0822Z" fill="#262625"/>
        <path fill-rule="evenodd" clip-rule="evenodd" d="M33.1483 13.0015C32.9538 12.6349 33.0936 12.1803 33.4598 11.9852C33.8262 11.7923 34.2815 11.9316 34.4758 12.2982C34.4758 12.2982 36.3824 14.9974 38.6633 18.5885C39.1823 19.4053 39.7042 20.2716 40.2238 21.1656C40.5572 21.738 40.8943 22.319 41.2002 22.9172C41.9829 24.4458 42.6872 26.0066 43.3291 27.4623C45.0451 31.3493 46.2236 34.4387 46.2236 34.4387C46.4179 34.8031 46.2783 35.2597 45.9119 35.4527C45.5457 35.6478 45.0903 35.5084 44.8959 35.1418C44.8959 35.1418 42.9992 32.434 40.7418 28.8343C39.8975 27.4879 38.999 26.0281 38.1717 24.523C37.8486 23.9356 37.5564 23.3309 37.2684 22.7327C36.8193 21.8023 36.395 20.8826 36.0095 19.995C34.315 16.0931 33.1483 13.0015 33.1483 13.0015Z" fill="#262625"/>
        <path fill-rule="evenodd" clip-rule="evenodd" d="M121.973 89.722C122.096 90.1079 121.875 90.5368 121.479 90.6654C121.083 90.7726 120.661 90.5582 120.538 90.1723C119.561 87.5996 117.798 84.8125 115.939 82.3041C114.779 80.739 113.572 79.3026 112.461 78.1234C111.53 77.1586 110.683 76.3867 109.982 75.9579C108.858 75.2075 107.566 74.5644 106.212 73.8998C104.264 72.9779 102.175 72.099 100.111 71.37C95.7488 69.8264 91.5798 68.8402 89.4388 68.9474C89.0268 68.9903 88.6546 68.69 88.6083 68.2827C88.562 67.8754 88.8589 67.5109 89.2712 67.468C91.5326 67.0607 96.1159 67.468 100.921 68.6686C103.182 69.226 105.485 69.955 107.598 70.8554C109.14 71.4986 110.565 72.2918 111.829 73.1065C112.692 73.6854 113.768 74.6716 114.862 76.0008C115.97 77.3301 117.135 79.0024 118.195 80.8033C119.869 83.6762 121.289 86.892 121.973 89.722Z" fill="#262625"/>
        <path fill-rule="evenodd" clip-rule="evenodd" d="M121.255 89.9363C120.568 89.7004 119.881 89.4218 119.214 89.0573C116.505 87.5566 90.2391 68.6042 90.2391 68.6042C90.2391 68.6042 89.9042 68.4328 89.3545 68.197C93.333 67.7682 104.504 70.3838 110.905 74.5216C113.9 76.4725 119.414 84.019 121.255 89.9363Z" fill="#262625"/>
    </g>
    <defs>
        <clipPath id="clip0_5838_905">
            <rect width="140.464" height="160" fill="white" transform="translate(10)"/>
        </clipPath>
    </defs>
</svg>
