<svg width="160" height="160" viewBox="0 0 160 160" fill="none" xmlns="http://www.w3.org/2000/svg">
    <g clip-path="url(#clip0_5838_1073)">
        <path fill-rule="evenodd" clip-rule="evenodd" d="M0.794871 137.57C0.360339 137.574 0.00454575 137.223 4.28186e-05 136.789C-0.00446011 136.352 0.346764 135.996 0.783548 135.992C0.783548 135.992 21.6794 135.375 48.3029 134.805C54.3998 134.674 60.7962 134.562 67.3119 134.465C71.5041 134.404 75.7437 134.341 79.9854 134.316C90.8172 134.251 101.649 134.276 111.672 134.312C138.3 134.409 159.205 134.661 159.205 134.661C159.64 134.659 159.998 135.01 160 135.444C160.005 135.881 159.653 136.237 159.219 136.239C159.219 136.239 138.323 136.845 111.697 137.387C101.678 137.592 90.8464 137.8 80.0146 137.917C75.7752 137.962 71.5335 137.971 67.3413 137.98C60.8255 137.991 54.4268 137.989 48.3299 137.959C21.6996 137.836 0.794871 137.57 0.794871 137.57Z" fill="#262625"/>
        <path fill-rule="evenodd" clip-rule="evenodd" d="M35.5354 109.418C39.2886 109.282 42.7285 110.713 45.2744 113.091C47.8859 115.528 49.5062 118.985 49.6301 122.83C49.72 126.754 48.1944 130.342 45.6631 132.958C43.1051 135.604 39.5024 137.214 35.5354 137.253C31.5732 137.202 27.9803 135.584 25.4295 132.936C22.9103 130.322 21.3872 126.744 21.4796 122.83C21.5986 118.992 23.2165 115.545 25.8158 113.108C28.3544 110.73 31.787 109.292 35.5354 109.418ZM35.5354 110.997C32.3166 111.109 29.4549 112.525 27.4119 114.704C25.4247 116.825 24.2514 119.699 24.3485 122.83C24.4214 125.886 25.755 128.605 27.7956 130.57C29.8022 132.506 32.5328 133.692 35.5354 133.653C38.5355 133.682 41.2564 132.484 43.2557 130.551C45.2865 128.585 46.6154 125.877 46.6883 122.83C46.7879 119.709 45.6218 116.842 43.6444 114.724C41.6062 112.54 38.7542 111.116 35.5354 110.997Z" fill="#262625"/>
        <path fill-rule="evenodd" clip-rule="evenodd" d="M132.997 120.505C132.913 120.078 133.19 119.663 133.617 119.576C134.044 119.492 134.459 119.769 134.546 120.196C134.999 122.053 135.046 123.995 134.689 125.898C134.339 127.763 133.573 129.574 132.411 131.227C130.171 134.385 126.839 136.311 123.295 136.89C119.68 137.479 115.857 136.605 112.669 134.279C109.522 131.864 107.606 128.406 107.164 124.751C106.726 121.127 107.705 117.337 110.165 114.267C112.603 111.281 115.995 109.514 119.554 109.164C123.025 108.822 126.629 109.773 129.529 112.164C129.876 112.429 129.941 112.925 129.678 113.271C129.413 113.618 128.919 113.685 128.571 113.42C125.94 111.57 122.81 110.98 119.867 111.486C117.018 111.974 114.363 113.548 112.557 116.09C110.774 118.55 110.204 121.497 110.62 124.285C111.029 127.034 112.43 129.648 114.819 131.458C117.186 133.342 120.086 134.083 122.876 133.785C125.736 133.479 128.497 132.141 130.462 129.741C131.539 128.436 132.288 126.976 132.707 125.441C133.149 123.823 133.254 122.143 132.997 120.505Z" fill="#262625"/>
        <path fill-rule="evenodd" clip-rule="evenodd" d="M38.9445 122.824C38.9422 122.389 39.2949 122.034 39.7302 122.032C40.1658 122.03 40.5207 122.382 40.5228 122.818C40.5835 123.251 40.5579 123.683 40.5043 124.127C40.4511 124.569 40.3098 124.99 40.1378 125.422C39.5492 126.829 38.3824 127.773 37.0636 128.286C35.6741 128.825 34.0898 128.671 32.6317 127.996C31.1914 127.209 30.1602 125.916 29.7934 124.439C29.4313 122.981 29.6506 121.372 30.5433 120.02C31.4388 118.758 32.6716 117.872 34.0884 117.644C35.4149 117.43 36.8183 117.631 37.9836 118.49C38.3634 118.704 38.4981 119.186 38.2846 119.565C38.0708 119.945 37.5892 120.079 37.2094 119.865C36.3768 119.523 35.5059 119.63 34.7314 119.944C34.0502 120.221 33.5406 120.802 33.2254 121.53C32.9233 122.169 33.013 122.858 33.2081 123.484C33.3941 124.082 33.7476 124.64 34.3306 124.979C34.9313 125.383 35.6119 125.574 36.2726 125.457C37.0229 125.325 37.7668 125.022 38.2498 124.359C38.4233 124.129 38.5875 123.909 38.6925 123.655C38.8054 123.38 38.9064 123.112 38.9445 122.824Z" fill="#262625"/>
        <path fill-rule="evenodd" clip-rule="evenodd" d="M124.804 122.824C124.802 122.389 125.154 122.034 125.59 122.032C126.025 122.03 126.38 122.382 126.382 122.818C126.443 123.251 126.417 123.683 126.364 124.127C126.311 124.569 126.169 124.99 125.997 125.422C125.409 126.829 124.242 127.773 122.923 128.286C121.533 128.825 119.949 128.671 118.491 127.996C117.051 127.209 116.02 125.916 115.653 124.439C115.291 122.981 115.51 121.372 116.403 120.02C117.298 118.758 118.531 117.872 119.948 117.644C121.274 117.43 122.678 117.631 123.843 118.49C124.223 118.704 124.357 119.186 124.144 119.565C123.93 119.945 123.449 120.079 123.069 119.865C122.236 119.523 121.365 119.63 120.591 119.944C119.91 120.221 119.4 120.802 119.085 121.53C118.783 122.169 118.872 122.858 119.068 123.484C119.254 124.082 119.607 124.64 120.19 124.979C120.791 125.383 121.471 125.574 122.132 125.457C122.882 125.325 123.626 125.022 124.109 124.359C124.283 124.129 124.447 123.909 124.552 123.655C124.665 123.38 124.766 123.112 124.804 122.824Z" fill="#262625"/>
        <path fill-rule="evenodd" clip-rule="evenodd" d="M134.007 123.618C133.573 123.613 133.221 123.255 133.226 122.821C133.23 122.386 133.588 122.035 134.025 122.039C137.438 122.035 143.116 121.686 147.664 120.326C150.864 119.369 153.545 118.002 154.047 115.656C154.768 112.302 154.824 106.076 153.685 100.869C152.908 97.3227 151.665 94.2112 149.448 93.1688C146.214 91.6446 141.518 90.5098 137.65 88.5015C135.824 87.5536 134.178 86.4099 132.893 84.9937C128.869 80.5493 123.506 75.4655 117.819 71.6583C113.933 69.0556 109.903 67.0473 106.039 66.3426C100.512 65.3137 89.0117 65.1291 78.7788 65.8428C71.2995 66.3651 64.4978 67.313 61.3728 68.9813C55.7509 71.96 46.5717 81.8102 39.5314 87.0246C36.8589 89.0036 34.4386 90.332 32.5812 90.6111C26.3491 91.541 20.3962 92.7118 15.7357 94.8214C12.0635 96.4852 9.20425 98.7164 7.78132 101.97C6.10848 105.797 4.65181 110.732 4.37037 114.76C4.23529 116.699 4.35235 118.414 4.91972 119.639C5.31372 120.495 5.9419 121.076 6.90327 121.2C8.73821 121.436 11.0301 121.672 13.3041 121.884C18.1785 122.339 22.9607 122.681 22.9607 122.681C23.3952 122.708 23.7284 123.082 23.7014 123.516C23.6744 123.951 23.3007 124.284 22.8661 124.257C22.8661 124.257 18.0592 124.023 13.1578 123.676C10.8545 123.514 8.53327 123.325 6.67582 123.127C3.93355 122.832 2.53091 120.486 2.26523 117.046C1.91175 112.491 3.54181 105.919 5.56361 101.026C7.14639 97.1922 10.3682 94.4454 14.6189 92.4213C19.4438 90.1248 25.6309 88.7672 32.1174 87.6797C33.6281 87.4276 35.526 86.2095 37.6829 84.5637C44.7795 79.1489 54.0443 69.0466 59.7337 65.9351C63.1042 64.1047 70.4281 62.8371 78.5243 62.2607C89.0927 61.5087 100.976 61.8442 106.681 62.9316C110.95 63.7579 115.419 65.9734 119.686 68.9093C125.542 72.9417 131.031 78.3091 135.14 82.9877C136.177 84.1719 137.531 85.1153 139.019 85.9236C142.81 87.9814 147.437 89.1927 150.609 90.7642C153.372 92.1331 155.209 95.8886 156.092 100.369C157.188 105.941 156.97 112.57 156.128 116.127C155.563 118.491 153.446 120.247 150.51 121.4C145.512 123.363 138.152 123.71 134.007 123.618Z" fill="#262625"/>
        <path fill-rule="evenodd" clip-rule="evenodd" d="M48.1428 124.259C47.706 124.259 47.3525 123.906 47.3525 123.469C47.3525 123.034 47.706 122.681 48.1428 122.681C48.1428 122.681 56.1309 122.24 66.3367 121.893C68.6715 121.812 71.1189 121.753 73.6135 121.713C75.2188 121.686 76.8421 121.659 78.4676 121.67C82.6148 121.695 86.7598 121.812 90.5963 121.931C100.8 122.251 108.793 122.681 108.793 122.681C109.227 122.681 109.581 123.034 109.581 123.469C109.581 123.906 109.227 124.259 108.793 124.259C108.793 124.259 100.8 124.687 90.5963 125.007C86.7598 125.128 82.6148 125.243 78.4676 125.27C76.8421 125.279 75.2188 125.252 73.6135 125.225C71.1189 125.185 68.6715 125.126 66.3367 125.047C56.1309 124.701 48.1428 124.259 48.1428 124.259Z" fill="#262625"/>
        <path fill-rule="evenodd" clip-rule="evenodd" d="M14.6415 93.9456C14.4254 93.5696 14.556 93.0855 14.9343 92.8694C15.3103 92.651 15.7943 92.7816 16.0104 93.1598C16.4315 93.6934 16.893 95.1299 17.0844 96.9468C17.1677 97.7461 17.1654 98.5971 17.0799 99.4752C16.9966 100.346 16.7872 101.216 16.4788 102.042C16.2581 102.629 15.9745 103.19 15.6142 103.694C14.896 104.694 13.9436 105.518 12.7503 105.993C12.0118 106.286 11.2013 106.495 10.2782 106.488C8.85754 106.477 7.22079 106.124 5.29806 105.124C4.88605 104.978 4.67438 104.525 4.82073 104.115C4.96707 103.706 5.41961 103.492 5.82938 103.638C6.88982 103.857 7.79934 103.888 8.62788 103.866C10.0553 103.827 11.0438 103.339 11.8093 102.663C12.0592 102.443 12.2573 102.179 12.4577 101.918C12.6716 101.639 12.8629 101.342 13.0408 101.033C13.4303 100.346 13.7545 99.6148 13.9864 98.8583C14.3827 97.5704 14.6393 96.3164 14.6776 95.3145C14.7001 94.6908 14.7428 94.2113 14.6415 93.9456Z" fill="#262625"/>
        <path fill-rule="evenodd" clip-rule="evenodd" d="M52.0563 85.7164C52.0698 85.7389 52.1059 85.7772 52.1216 85.757C52.2725 85.5543 51.6285 85.5318 51.284 85.5025C50.3204 85.4237 49.1182 85.5656 47.8844 85.8763C45.7816 86.4009 43.6021 87.2812 42.3142 88.3394C42.0035 88.6433 41.5038 88.6366 41.1998 88.3236C40.8959 88.0107 40.9026 87.5108 41.2156 87.2091C42.9942 85.1806 46.7947 83.1092 49.8049 82.4833C51.221 82.1884 52.4886 82.2897 53.4027 82.6364C54.1975 82.9381 54.7559 83.4875 55.1364 84.1764C55.6227 85.086 55.904 86.2973 55.8905 87.5919C55.877 88.6546 55.67 89.7781 55.249 90.8047C54.3371 93.0224 52.5539 94.8236 49.9827 95.06C47.997 95.1973 46.1283 94.7718 44.5343 94.0243C42.5642 93.1012 41.0354 91.8156 40.2452 90.9939C39.9187 90.7057 39.8895 90.2058 40.1777 89.8794C40.4658 89.5529 40.9657 89.5237 41.2922 89.8118C42.0802 90.4062 43.5706 91.2775 45.3763 91.8156C46.6506 92.1939 48.0892 92.356 49.5617 92.0453C50.854 91.8044 51.5318 90.6989 51.9325 89.5462C52.1622 88.8865 52.2814 88.1863 52.3017 87.5176C52.322 86.8444 52.2837 86.2027 52.0563 85.7164ZM52.0563 85.7164C52.0563 85.7164 52.0563 85.7164 52.0563 85.7142V85.7164Z" fill="#262625"/>
        <path fill-rule="evenodd" clip-rule="evenodd" d="M119.915 85.5589C120.527 85.0478 120.401 84.2485 120.09 83.384C119.503 81.7427 118.105 79.9235 116.405 78.2461C113.617 75.4926 109.999 73.079 107.309 72.8652C100.442 72.2865 94.426 72.0681 89.1485 72.1042C81.829 72.1537 75.9347 72.7075 71.1526 73.6104C57.8645 76.1185 53.2895 81.2248 50.6531 84.4737C50.3852 84.8159 49.8899 84.8767 49.5454 84.6088C49.2032 84.3409 49.1424 83.8433 49.4103 83.5011C52.0715 79.9595 56.6825 74.3106 70.6483 71.172C75.5294 70.0733 81.5679 69.2831 89.0877 69.0332C94.4507 68.853 100.57 68.9679 107.563 69.4092C109.36 69.5285 111.53 70.3368 113.685 71.6223C116.234 73.1398 118.784 75.3102 120.671 77.5662C122.319 79.5385 123.454 81.5963 123.792 83.3637C124.199 85.4959 123.621 87.3128 121.824 88.5398C121.446 88.7965 120.291 89.1793 118.463 89.4427C113.964 90.0888 104.477 90.7463 94.0095 91.1966C77.7022 91.8968 59.0308 92.1197 53.2829 91.5185C52.8483 91.4825 52.5264 91.0975 52.5646 90.6652C52.6029 90.2307 52.9856 89.9087 53.4202 89.947C58.3599 90.2937 72.8322 89.6318 87.0997 88.72C99.4197 87.9319 111.58 86.9503 117.287 86.0925C118.548 85.9034 120.09 86.034 119.921 85.5679C119.919 85.5634 119.917 85.5612 119.915 85.5589ZM119.915 85.5589C119.883 85.5837 119.849 85.6107 119.816 85.6355C119.838 85.6174 119.89 85.5364 119.915 85.5589Z" fill="#262625"/>
        <path fill-rule="evenodd" clip-rule="evenodd" d="M86.724 70.51C86.778 70.0777 87.1742 69.7716 87.6065 69.8278C88.0388 69.8819 88.3451 70.2759 88.2888 70.7082C88.2888 70.7082 87.8587 76.9357 87.3139 82.9854C87.037 86.0384 86.7105 89.0328 86.4696 91.1672C86.2287 93.0179 85.864 94.8348 85.3619 96.6C84.8553 98.3764 84.2271 100.106 83.5089 101.769C81.7618 105.826 79.5577 109.53 77.5584 112.844C74.9489 117.174 72.6232 120.747 72.1976 123.552C72.1526 123.985 71.7653 124.3 71.3308 124.255C70.8985 124.21 70.5833 123.82 70.6283 123.388C70.7994 120.384 72.7627 116.321 75.1605 111.525C76.8378 108.166 78.6886 104.428 80.2421 100.432C80.8523 98.856 81.4286 97.2439 81.9239 95.5936C82.4057 93.986 82.8379 92.3492 83.1216 90.6674L86.724 70.51Z" fill="#262625"/>
        <path fill-rule="evenodd" clip-rule="evenodd" d="M45.4727 93.1373C45.5762 92.7163 46.004 92.4573 46.4272 92.5609C46.8505 92.6645 47.1094 93.0923 47.0036 93.5155C47.0036 93.5155 46.8392 96.0192 46.4047 99.2478C46.3056 99.9795 46.1796 100.736 46.031 101.508C45.9387 102.004 45.8419 102.503 45.709 102.996C45.3713 104.26 44.9503 105.491 44.545 106.63C43.4553 109.697 42.4512 111.996 42.4512 111.996C42.3477 112.419 41.9198 112.675 41.4965 112.572C41.0733 112.468 40.8143 112.041 40.9202 111.617C40.9202 111.617 41.098 109.116 41.5573 105.894C41.7284 104.696 41.9266 103.411 42.2148 102.136C42.3251 101.639 42.4737 101.15 42.6201 100.668C42.8497 99.9142 43.0883 99.187 43.3405 98.4935C44.455 95.4315 45.4727 93.1373 45.4727 93.1373Z" fill="#262625"/>
        <path fill-rule="evenodd" clip-rule="evenodd" d="M117.945 87.3555C118.103 86.948 118.56 86.7476 118.968 86.9052C119.373 87.0606 119.575 87.5199 119.418 87.9251C119.418 87.9251 118.895 90.2689 118.414 93.7519C118.252 94.9339 118.105 96.2375 117.952 97.6289C117.86 98.4575 117.77 99.313 117.666 100.189C117.518 101.436 117.346 102.71 117.252 104.019C117.088 106.308 117.027 108.625 117.423 110.913C117.542 111.331 117.297 111.768 116.878 111.887C116.459 112.005 116.023 111.761 115.903 111.343C114.971 108.999 114.401 106.536 114.176 104.052C114.023 102.355 114.023 100.668 114.176 99.0609C114.239 98.3899 114.354 97.7347 114.478 97.0976C114.678 96.0799 114.913 95.114 115.185 94.2135C116.437 90.0708 117.945 87.3555 117.945 87.3555Z" fill="#262625"/>
        <path fill-rule="evenodd" clip-rule="evenodd" d="M141.956 89.0936C141.99 88.6591 142.371 88.3326 142.803 88.3664C143.237 88.4002 143.564 88.7784 143.53 89.213C143.622 90.5053 144.102 91.8427 144.786 93.1485C145.088 93.7204 145.464 94.245 145.869 94.7673C146.241 95.2491 146.68 95.6769 147.146 96.0979C147.673 96.573 148.227 97.0413 148.907 97.397C149.346 97.6267 149.796 97.8586 150.309 98.0274C151.496 98.4169 152.835 98.6781 154.459 98.6083C154.889 98.5295 155.301 98.811 155.38 99.241C155.458 99.6688 155.175 100.081 154.747 100.16C153.234 100.671 151.874 100.871 150.6 100.882C149.521 100.891 148.549 100.702 147.644 100.412C146.536 100.058 145.57 99.4909 144.755 98.7907C144.302 98.3989 143.908 97.9531 143.568 97.4781C143.06 96.7644 142.639 96.0011 142.348 95.1929C142.13 94.5895 141.954 93.9861 141.857 93.3647C141.621 91.8607 141.652 90.4085 141.956 89.0936Z" fill="#262625"/>
        <path fill-rule="evenodd" clip-rule="evenodd" d="M80.3398 23H97.7607L90.554 35.1314L97.7769 32.4215L82.3486 55.6034L87.04 37.9795L80.9959 39.9327L80.3398 23Z" fill="#262625"/>
    </g>
    <defs>
        <clipPath id="clip0_5838_1073">
            <rect width="160" height="114.986" fill="white" transform="translate(0 23)"/>
        </clipPath>
    </defs>
</svg>
