<svg width="160" height="160" viewBox="0 0 160 160" fill="none" xmlns="http://www.w3.org/2000/svg">
    <g clip-path="url(#clip0_5838_903)">
        <path fill-rule="evenodd" clip-rule="evenodd" d="M68.1621 38.5391C74.002 38.1341 82.2341 38.0533 90.6633 38.2153C107.792 38.5393 125.703 39.7541 125.703 39.7541C126.224 39.7541 126.632 40.213 126.61 40.726C126.591 41.239 126.149 41.6441 125.627 41.6441C125.627 41.6441 107.738 41.4008 90.6606 41.6978C81.8723 41.8598 73.3028 42.1298 67.5384 42.7778C66.0427 42.9398 65.0031 42.2653 64.3795 40.9153C63.8206 39.7003 63.8287 37.2432 64.5415 34.3542C65.3812 30.9253 67.047 26.7944 68.8587 23.8245C70.079 21.8265 71.4209 20.3145 72.5953 19.6396C73.2136 19.2886 74.4934 18.8836 76.3132 18.5596C79.248 18.0466 83.8244 17.5875 89.0488 17.2365C104.158 16.2105 124.68 15.9404 126.111 16.1834C127.887 16.5074 129.272 17.3987 130.323 18.5327C132.645 21.0166 133.301 24.6076 133.301 24.6076C133.403 25.1205 133.071 25.6334 132.558 25.7144C132.048 25.8224 131.548 25.4986 131.446 24.9856C131.446 24.9856 130.906 22.6634 129.37 20.7464C128.524 19.6935 127.347 18.7756 125.735 18.5596C124.48 18.3706 108.504 19.3157 94.5782 20.5576C88.0336 21.1516 81.9452 21.7725 78.06 22.4745C76.4212 22.7445 75.2413 22.9875 74.7499 23.2845C74.2477 23.5815 73.759 24.2022 73.2326 24.9582C72.4982 26.0112 71.7773 27.3346 71.1077 28.7656C69.4904 32.2215 68.1486 36.2442 68.1621 38.5391Z" fill="#262625"/>
        <path fill-rule="evenodd" clip-rule="evenodd" d="M135.958 36.0278C135.437 36.0548 134.991 35.6501 134.967 35.1371C134.94 34.6242 135.342 34.1649 135.866 34.1379C138.377 33.9219 140.016 34.408 141.018 35.5959C141.868 36.5949 142.276 38.2422 142.187 40.7801C142.162 41.4011 142.13 46.7196 142.014 54.5224C141.955 58.5453 141.879 63.2432 141.755 68.2921C141.671 71.802 141.566 75.5282 141.425 79.2811C141.334 81.7111 141.226 84.1678 141.096 86.6248C140.767 92.8886 140.372 99.1527 139.989 104.931C138.971 120.347 138.021 132.416 138.021 132.416C137.999 132.929 137.559 133.334 137.038 133.334C136.514 133.307 136.109 132.848 136.131 132.335C136.131 132.335 136.174 120.239 136.43 104.796C136.528 98.9907 136.649 92.7268 136.841 86.436C136.914 83.979 137.011 81.5222 137.122 79.1192C137.294 75.3393 137.5 71.6402 137.71 68.1033C138.01 63.0814 138.329 58.3834 138.609 54.3605C139.157 46.5307 139.589 41.2118 139.651 40.5908C139.835 38.8628 139.811 37.7018 139.276 36.9728C138.688 36.1628 137.581 36.0008 135.958 36.0278Z" fill="#262625"/>
        <path fill-rule="evenodd" clip-rule="evenodd" d="M50.6861 41.4553C50.651 41.5903 50.3458 42.7509 50.1622 43.8578C49.3631 48.7447 48.4046 59.0589 47.4381 71.2896C46.3041 85.6263 45.216 102.528 44.4735 116.324C44.055 124.073 43.7311 130.85 43.6339 135.575C43.5853 137.978 43.5798 139.814 43.6554 140.948C44.541 141.11 45.8559 141.191 47.5191 141.272C52.684 141.488 60.7622 141.326 69.9798 141.002C96.1799 140.084 131.533 137.681 135.769 137.087C136.285 137.006 136.768 137.357 136.846 137.897C136.927 138.41 136.571 138.896 136.055 138.95C131.824 139.679 96.431 143.297 70.158 144.809C60.8081 145.376 52.6084 145.619 47.3597 145.457C44.1279 145.349 41.8924 144.998 40.9555 144.593C40.5721 144.404 39.9512 143.999 39.6515 143C39.4976 142.46 39.3598 141.326 39.3247 139.679C39.2167 134.738 39.6919 124.235 40.5586 111.869C41.2714 101.745 42.2542 90.3242 43.2883 79.6594C44.5519 66.6457 45.9207 54.712 47.0061 47.5302C47.4867 44.3442 47.9214 42.076 48.2724 40.996C48.4695 40.375 48.7017 40.0243 48.869 39.8353C49.8626 38.8634 51.8255 38.2151 54.2041 37.8911C58.2459 37.3241 63.5189 37.5941 66.0568 37.6211C66.5779 37.6211 67.0018 38.0531 67.0018 38.5661C67.0045 39.106 66.5806 39.5379 66.0568 39.5379C63.9131 39.5649 59.7632 39.511 56.1399 39.916C53.791 40.159 51.6608 40.5373 50.6861 41.4553Z" fill="#262625"/>
        <path fill-rule="evenodd" clip-rule="evenodd" d="M155.553 29.6293C155.429 29.5753 155.294 29.5482 155.17 29.5212C151.331 28.6572 141.292 28.7654 138.846 29.8724C138.374 30.0884 137.809 29.899 137.583 29.4131C137.359 28.9541 137.556 28.3872 138.028 28.1712C140.272 27.0102 148.736 26.2811 153.669 26.5781C155.726 26.7131 157.233 27.1722 157.778 27.6312C158.305 28.0632 158.458 28.6032 158.431 29.1162C158.404 29.6292 158.164 39.5649 157.662 53.5506C157.397 60.8404 157.079 69.2372 156.66 77.9851C156.474 81.846 156.25 85.788 156.015 89.7029C155.661 95.6428 155.273 101.583 154.881 107.279C153.253 131.147 151.722 151.208 151.722 151.208C151.695 151.748 151.25 152.152 150.729 152.125C150.208 152.098 149.805 151.639 149.832 151.126C149.832 151.126 150.34 131.012 151.144 107.091C151.336 101.367 151.549 95.4265 151.8 89.4867C151.968 85.5718 152.146 81.6303 152.354 77.7694C152.829 69.0216 153.366 60.6248 153.85 53.3349C154.654 41.2392 155.348 32.1942 155.553 29.6293Z" fill="#262625"/>
        <path fill-rule="evenodd" clip-rule="evenodd" d="M40.6342 35.5156C40.2049 38.3505 38.8684 70.7225 37.7912 101.448C37.4672 110.709 37.1594 119.834 36.911 127.961C36.7031 134.711 36.5276 140.759 36.4412 145.619C36.3575 150.29 36.3413 153.854 36.4466 155.825C38.5337 155.852 42.3595 155.798 47.3544 155.69C60.0035 155.42 80.064 154.799 98.3884 154.178C119.85 153.476 138.917 152.774 140.812 152.504C141.328 152.423 141.814 152.774 141.898 153.287C141.979 153.8 141.628 154.286 141.112 154.367C138.596 154.799 105.808 156.878 77.2641 158.363C60.9322 159.2 45.9935 159.848 38.9305 159.983C36.9785 160.01 35.6042 160.009 34.9292 159.955C34.3595 159.928 34.0032 159.82 33.852 159.767C33.4902 159.605 32.8314 159.226 32.5236 158.2C32.3994 157.768 32.2752 156.85 32.2104 155.5C32.0322 151.666 32.1105 143.54 32.4372 133.226C32.799 121.832 33.447 107.793 34.184 93.888C35.7284 64.7557 37.6994 36.3523 38.1044 34.7594C38.2475 34.1924 38.6686 33.5985 39.5029 33.1125C40.483 32.5725 42.2083 32.0593 44.3655 31.6813C52.3438 30.2774 66.5859 30.0613 67.8738 30.2233C68.3922 30.2503 68.7729 30.7364 68.7189 31.2494C68.6649 31.7624 68.2005 32.1403 67.6821 32.0863C66.694 32.0053 57.9489 32.3565 50.4835 33.2475C46.8845 33.6795 43.5906 34.2466 41.6602 34.9756C41.2525 35.1376 40.7935 35.4076 40.6342 35.5156Z" fill="#262625"/>
        <path fill-rule="evenodd" clip-rule="evenodd" d="M17.3364 1.68492C16.926 1.36093 16.8557 0.766839 17.177 0.361849C17.501 -0.0431422 18.0978 -0.124035 18.5082 0.199958C18.5082 0.199958 22.3798 2.5759 27.2154 5.86983C28.317 6.59881 29.4509 7.409 30.5984 8.24599C31.3328 8.78597 32.078 9.32575 32.7962 9.91974C34.6322 11.4047 36.3925 12.9705 38.0151 14.4284C42.3512 18.3433 45.5831 21.5295 45.5831 21.5295C45.9935 21.8535 46.0636 22.4476 45.7396 22.8525C45.4183 23.2845 44.8217 23.3384 44.4113 23.0144C44.4113 23.0144 40.5477 20.6386 35.7337 17.3177C33.9328 16.1027 31.9997 14.7526 30.1232 13.2947C29.3915 12.7547 28.6869 12.1606 27.9903 11.5666C26.905 10.6486 25.8573 9.73074 24.8746 8.83976C20.5574 4.89785 17.3364 1.68492 17.3364 1.68492Z" fill="#262625"/>
        <path fill-rule="evenodd" clip-rule="evenodd" d="M2.67002 35.9741C2.17053 35.8121 1.88972 35.299 2.04091 34.786C2.19211 34.3001 2.72403 34.0034 3.22352 34.1654C3.22352 34.1654 7.10332 34.786 12.0523 35.866C13.1782 36.109 14.3472 36.4059 15.5379 36.7029C16.2993 36.9189 17.0742 37.108 17.8328 37.351C19.7795 37.972 21.683 38.7008 23.4433 39.4028C28.1574 41.2388 31.7348 42.859 31.7348 42.859C32.2342 43.021 32.5178 43.5611 32.3639 44.047C32.2127 44.56 31.6835 44.8301 31.184 44.6951C31.184 44.6951 27.3042 44.0201 22.3661 42.9402C20.522 42.5082 18.5375 42.0491 16.5719 41.4821C15.8052 41.2661 15.0519 40.9958 14.3067 40.7528C13.1457 40.3208 12.0172 39.916 10.948 39.484C6.24201 37.6211 2.67002 35.9741 2.67002 35.9741Z" fill="#262625"/>
        <path fill-rule="evenodd" clip-rule="evenodd" d="M9.17133 70.128C8.69614 70.344 8.13187 70.1552 7.91048 69.6692C7.68908 69.2102 7.89426 68.6429 8.36675 68.3999C8.36675 68.3999 10.5888 66.78 13.637 64.89C14.3228 64.458 15.0518 64.0532 15.8132 63.6482C16.2992 63.3782 16.7933 63.108 17.3036 62.892C18.6157 62.298 19.9603 61.812 21.2185 61.407C24.6042 60.246 27.269 59.5445 27.269 59.5445C27.7414 59.3285 28.3058 59.5443 28.5272 60.0032C28.7513 60.4892 28.5461 61.029 28.0736 61.272C28.0736 61.272 25.8407 62.8652 22.7844 64.7281C21.6477 65.4301 20.4219 66.159 19.1368 66.78C18.6346 67.05 18.1162 67.239 17.6032 67.455C16.7986 67.779 16.0103 68.0763 15.2408 68.3193C11.8362 69.4532 9.17133 70.128 9.17133 70.128Z" fill="#262625"/>
        <path fill-rule="evenodd" clip-rule="evenodd" d="M60.543 55.9807C60.3027 55.5217 60.4782 54.9281 60.9426 54.6851C61.4043 54.4421 61.9766 54.6311 62.2196 55.0901C62.5139 55.495 62.954 56.1697 63.5885 56.5207C63.7289 56.6017 63.8855 56.5209 64.0745 56.4669C64.4309 56.3589 64.7522 56.0347 65.2193 55.5757C65.6648 55.1437 66.4559 54.4421 67.5061 53.6051C68.1946 53.0651 68.9803 52.4441 69.8605 51.8501C70.8945 51.1481 72.0447 50.4732 73.2138 49.8252C74.7149 48.9882 76.2404 48.2588 77.6282 47.6378C79.826 46.6388 81.6349 45.9908 82.5069 45.8828C83.0145 45.7478 83.5275 46.0723 83.649 46.5853C83.7732 47.0712 83.4627 47.584 82.9551 47.719C82.1235 48.043 80.4793 49.3388 78.4382 50.8777C76.9802 51.9577 75.4115 53.2269 73.8375 54.3339C72.9681 54.9548 72.0933 55.522 71.2779 56.035C69.5311 57.115 68.0488 57.898 67.3684 58.33C65.3462 59.545 63.9692 59.6528 62.9702 59.1669C62.3519 58.8969 61.8201 58.4919 61.4556 57.9519C61.0101 57.2769 60.7347 56.4937 60.543 55.9807Z" fill="#262625"/>
        <path fill-rule="evenodd" clip-rule="evenodd" d="M60.543 80.8142C60.3027 80.3553 60.4782 79.7611 60.9426 79.5181C61.4043 79.2751 61.9766 79.4641 62.2196 79.9231C62.5139 80.328 62.954 81.0032 63.5885 81.3542C63.7289 81.4352 63.8855 81.3544 64.0745 81.3004C64.4309 81.1925 64.7522 80.8682 65.2193 80.4093C65.6648 79.9773 66.4559 79.2751 67.5061 78.4381C68.1946 77.8981 68.9803 77.2771 69.8605 76.6831C70.8945 75.9811 72.0447 75.3062 73.2138 74.6582C74.7149 73.8212 76.2404 73.0923 77.6282 72.4713C79.826 71.4724 81.6349 70.8244 82.5069 70.7164C83.0145 70.5814 83.5275 70.9053 83.649 71.4183C83.7732 71.9042 83.4627 72.4175 82.9551 72.5525C82.1235 72.8765 80.4793 74.1723 78.4382 75.7113C76.9802 76.7912 75.4115 78.0604 73.8375 79.1674C72.9681 79.7884 72.0933 80.355 71.2779 80.868C69.5311 81.948 68.0488 82.731 67.3684 83.163C65.3462 84.378 63.9692 84.4864 62.9702 84.0004C62.3519 83.7304 61.8201 83.3254 61.4556 82.7854C61.0101 82.1104 60.7347 81.3272 60.543 80.8142Z" fill="#262625"/>
        <path fill-rule="evenodd" clip-rule="evenodd" d="M60.543 105.648C60.3027 105.189 60.4782 104.595 60.9426 104.352C61.4043 104.109 61.9766 104.298 62.2196 104.757C62.5139 105.162 62.954 105.837 63.5885 106.188C63.7289 106.269 63.8855 106.187 64.0745 106.133C64.4309 106.025 64.7522 105.702 65.2193 105.243C65.6648 104.811 66.4559 104.109 67.5061 103.272C68.1946 102.732 68.9803 102.111 69.8605 101.517C70.8945 100.815 72.0447 100.14 73.2138 99.4917C74.7149 98.6547 76.2404 97.9258 77.6282 97.3048C79.826 96.3059 81.6349 95.6579 82.5069 95.5499C83.0145 95.4149 83.5275 95.7388 83.649 96.2517C83.7732 96.7377 83.4627 97.2505 82.9551 97.3855C82.1235 97.7095 80.4793 99.0058 78.4382 100.545C76.9802 101.625 75.4115 102.893 73.8375 104C72.9681 104.621 72.0933 105.189 71.2779 105.702C69.5311 106.782 68.0488 107.564 67.3684 107.996C65.3462 109.211 63.9692 109.319 62.9702 108.833C62.3519 108.563 61.8201 108.158 61.4556 107.618C61.0101 106.943 60.7347 106.161 60.543 105.648Z" fill="#262625"/>
        <path fill-rule="evenodd" clip-rule="evenodd" d="M57.9407 60.4621C57.9407 60.4621 57.9407 60.4621 57.9434 60.4621C57.9893 60.5161 58.1729 60.5974 58.0919 60.6514C57.9893 60.6784 57.9488 60.5971 57.9407 60.4621ZM58.9748 52.8485C58.6751 53.3885 58.4807 54.7113 58.2728 56.1153C58.1027 57.2493 57.992 58.4374 58.0001 59.4633C58.0028 59.7603 57.9218 60.2191 57.9407 60.4621C57.9083 60.4351 57.8408 60.3274 57.8111 60.3814C57.3278 61.2454 60.4975 61.1642 62.3308 61.3802C63.778 61.5422 65.2224 61.6504 66.3213 61.5964C66.7344 61.5694 67.0881 61.5692 67.3607 61.5152C67.4174 61.4882 67.4687 61.5422 67.4984 61.5152C67.8197 61.3262 68.0357 61.0024 68.1653 60.6514C68.4623 59.8954 68.5325 59.1121 68.5325 59.1121C68.5082 58.5721 68.9133 58.1404 69.4343 58.1134C69.9581 58.0864 70.3982 58.4915 70.4225 59.0315C70.4225 59.0315 70.5764 60.4353 70.2038 61.7583C69.9932 62.4873 69.5639 63.1354 68.9807 63.6213C68.5784 63.9453 67.5929 64.296 66.27 64.512C64.7661 64.782 62.7655 64.9171 60.8998 64.8901C59.1638 64.8631 57.56 64.6203 56.5178 64.2963C55.7537 64.0533 55.2219 63.648 54.8709 63.297C54.4146 62.838 54.0339 62.0822 53.8422 61.1102C53.6613 60.1652 53.637 58.9232 53.7855 57.6003C54.1122 54.7653 55.1813 51.6335 55.8995 50.6885C56.1209 50.3915 56.4071 50.0677 56.858 49.8517C57.3791 49.6087 58.1729 49.3385 59.1638 49.2305C62.5144 48.8795 68.3463 49.5274 68.3463 49.5274C68.8674 49.5274 69.2831 49.9598 69.2723 50.4998C69.2615 51.0127 68.8295 51.4173 68.3084 51.4173C68.3084 51.4173 65.5815 51.6335 62.8708 52.0385C61.159 52.2815 58.262 52.2813 58.7183 53.0373C58.7858 53.1723 58.9073 52.9565 58.9748 52.8485ZM58.9748 52.8485C58.9829 52.8485 58.9937 52.8217 59.0018 52.7947C58.9937 52.8217 58.9856 52.8485 58.9748 52.8485Z" fill="#262625"/>
        <path fill-rule="evenodd" clip-rule="evenodd" d="M57.9407 85.2956C57.9407 85.2956 57.9407 85.2956 57.9434 85.2956C57.9893 85.3496 58.1729 85.4309 58.0919 85.4849C57.9893 85.5119 57.9488 85.4306 57.9407 85.2956ZM58.9748 77.682C58.6751 78.222 58.4807 79.5448 58.2728 80.9488C58.1027 82.0828 57.992 83.2709 58.0001 84.2968C58.0028 84.5938 57.9218 85.0526 57.9407 85.2956C57.9083 85.2686 57.8408 85.1609 57.8111 85.2149C57.3278 86.0789 60.4975 85.9977 62.3308 86.2137C63.778 86.3757 65.2224 86.4839 66.3213 86.4299C66.7344 86.4029 67.0881 86.4027 67.3607 86.3487C67.4174 86.3217 67.4687 86.3757 67.4984 86.3487C67.8197 86.1597 68.0357 85.8359 68.1653 85.4849C68.4623 84.7289 68.5325 83.9456 68.5325 83.9456C68.5082 83.4056 68.9133 82.9739 69.4343 82.9469C69.9581 82.9199 70.3982 83.325 70.4225 83.8649C70.4225 83.8649 70.5764 85.2688 70.2038 86.5918C69.9932 87.3208 69.5639 87.9689 68.9807 88.4548C68.5784 88.7788 67.5929 89.1295 66.27 89.3455C64.7661 89.6155 62.7655 89.7506 60.8998 89.7236C59.1638 89.6966 57.56 89.4538 56.5178 89.1298C55.7537 88.8868 55.2219 88.4815 54.8709 88.1305C54.4146 87.6715 54.0339 86.9157 53.8422 85.9437C53.6613 84.9987 53.637 83.7567 53.7855 82.4338C54.1122 79.5988 55.1813 76.467 55.8995 75.522C56.1209 75.225 56.4071 74.9012 56.858 74.6852C57.3791 74.4422 58.1729 74.172 59.1638 74.064C62.5144 73.713 68.3463 74.3608 68.3463 74.3608C68.8674 74.3608 69.2831 74.7927 69.2723 75.3327C69.2615 75.8457 68.8295 76.2508 68.3084 76.2508C68.3084 76.2508 65.5815 76.467 62.8708 76.872C61.159 77.115 58.262 77.1148 58.7183 77.8708C58.7858 78.0058 58.9073 77.79 58.9748 77.682ZM58.9748 77.682C58.9829 77.682 58.9937 77.6547 59.0018 77.6277C58.9937 77.6547 58.9856 77.682 58.9748 77.682Z" fill="#262625"/>
        <path fill-rule="evenodd" clip-rule="evenodd" d="M58.9748 102.515C58.6751 103.055 58.4807 104.379 58.2728 105.783C58.1027 106.917 57.992 108.104 58.0001 109.13C58.0028 109.427 57.9218 109.887 57.9407 110.13C57.9083 110.103 57.8408 109.994 57.8111 110.048C57.3278 110.912 60.4975 110.832 62.3308 111.048C63.778 111.21 65.2224 111.317 66.3213 111.263C66.7344 111.236 67.0881 111.237 67.3607 111.183C67.4174 111.156 67.4687 111.21 67.4984 111.183C67.8197 110.994 68.0357 110.669 68.1653 110.318C68.4623 109.562 68.5325 108.78 68.5325 108.78C68.5082 108.24 68.9133 107.807 69.4343 107.78C69.9581 107.753 70.3982 108.158 70.4225 108.698C70.4225 108.698 70.5764 110.102 70.2038 111.425C69.9932 112.154 69.5639 112.802 68.9807 113.288C68.5784 113.612 67.5929 113.963 66.27 114.179C64.7661 114.449 62.7655 114.585 60.8998 114.558C59.1638 114.531 57.56 114.287 56.5178 113.963C55.7537 113.72 55.2219 113.316 54.8709 112.965C54.4146 112.506 54.0339 111.75 53.8422 110.778C53.6613 109.833 53.637 108.591 53.7855 107.268C54.1122 104.433 55.1813 101.3 55.8995 100.355C56.1209 100.058 56.4071 99.7346 56.858 99.5186C57.3791 99.2756 58.1729 99.0059 59.1638 98.8979C62.5144 98.547 68.3463 99.1948 68.3463 99.1948C68.8674 99.1948 69.2831 99.6267 69.2723 100.167C69.2615 100.68 68.8295 101.085 68.3084 101.085C68.3084 101.085 65.5815 101.3 62.8708 101.705C61.159 101.948 58.262 101.949 58.7183 102.705C58.7858 102.84 58.9073 102.623 58.9748 102.515ZM58.9748 102.515C58.9829 102.515 58.9937 102.489 59.0018 102.462C58.9937 102.489 58.9856 102.515 58.9748 102.515ZM57.9407 110.13C57.9407 110.13 57.9407 110.13 57.9434 110.13C57.9893 110.184 58.1729 110.264 58.0919 110.318C57.9893 110.345 57.9488 110.265 57.9407 110.13Z" fill="#262625"/>
        <path fill-rule="evenodd" clip-rule="evenodd" d="M82.7773 57.7624C82.2562 57.7894 81.8107 57.3847 81.7864 56.8717C81.7594 56.3317 82.1617 55.8994 82.6828 55.8724C82.6828 55.8724 87.297 55.1168 93.3746 54.4418C94.7434 54.2798 96.1825 54.1717 97.662 54.0637C98.607 53.9827 99.5628 53.9288 100.527 53.9018C102.954 53.8478 105.397 53.9019 107.708 54.0099C112.247 54.1719 116.219 54.5766 118.532 54.9005C119.054 54.9275 119.456 55.3599 119.426 55.8998C119.399 56.4128 118.954 56.8175 118.43 56.7905C116.135 56.8445 112.242 57.3037 107.795 57.6817C105.505 57.8977 103.084 58.0867 100.675 58.2217C99.7167 58.2487 98.7609 58.2485 97.8186 58.2755C96.3418 58.2755 94.9027 58.2487 93.5284 58.2217C87.432 58.0597 82.7773 57.7624 82.7773 57.7624Z" fill="#262625"/>
        <path fill-rule="evenodd" clip-rule="evenodd" d="M82.7773 82.596C82.2562 82.623 81.8107 82.2183 81.7864 81.7053C81.7594 81.1653 82.1617 80.733 82.6828 80.706C82.6828 80.706 87.297 79.9503 93.3746 79.2754C94.7434 79.1134 96.1825 79.0053 97.662 78.8973C98.607 78.8163 99.5628 78.7624 100.527 78.7354C102.954 78.6814 105.397 78.7349 107.708 78.8429C112.247 79.0049 116.219 79.4101 118.532 79.7341C119.054 79.7611 119.456 80.1929 119.426 80.7329C119.399 81.2459 118.954 81.6511 118.43 81.6241C116.135 81.6781 112.242 82.1373 107.795 82.5153C105.505 82.7313 103.084 82.9203 100.675 83.0553C99.7167 83.0823 98.7609 83.0821 97.8186 83.1091C96.3418 83.1091 94.9027 83.0823 93.5284 83.0553C87.432 82.8933 82.7773 82.596 82.7773 82.596Z" fill="#262625"/>
        <path fill-rule="evenodd" clip-rule="evenodd" d="M82.7773 107.43C82.2562 107.457 81.8107 107.051 81.7864 106.538C81.7594 105.998 82.1617 105.567 82.6828 105.54C82.6828 105.54 87.297 104.783 93.3746 104.108C94.7434 103.946 96.1825 103.838 97.662 103.73C98.607 103.649 99.5628 103.595 100.527 103.568C102.954 103.514 105.397 103.569 107.708 103.677C112.247 103.839 116.219 104.244 118.532 104.568C119.054 104.595 119.456 105.026 119.426 105.566C119.399 106.079 118.954 106.485 118.43 106.458C116.135 106.512 112.242 106.97 107.795 107.348C105.505 107.564 103.084 107.753 100.675 107.888C99.7167 107.915 98.7609 107.916 97.8186 107.943C96.3418 107.943 94.9027 107.915 93.5284 107.888C87.432 107.726 82.7773 107.43 82.7773 107.43Z" fill="#262625"/>
    </g>
    <defs>
        <clipPath id="clip0_5838_903">
            <rect width="156.435" height="160" fill="white" transform="translate(2)"/>
        </clipPath>
    </defs>
</svg>
